<?xml version="1.0" standalone="no"?>
<!DOCTYPE svg PUBLIC "-//W3C//DTD SVG 1.1//EN" "http://www.w3.org/Graphics/SVG/1.1/DTD/svg11.dtd" >
<svg xmlns="http://www.w3.org/2000/svg" xmlns:xlink="http://www.w3.org/1999/xlink" version="1.1">
<metadata></metadata>
<defs>
<font id="londrina_solid_blackregular" horiz-adv-x="974" >
<font-face units-per-em="2048" ascent="1638" descent="-410" />
<missing-glyph horiz-adv-x="409" />
<glyph horiz-adv-x="0" />
<glyph unicode="&#xd;" horiz-adv-x="409" />
<glyph horiz-adv-x="0" />
<glyph horiz-adv-x="0" />
<glyph unicode=" "  horiz-adv-x="409" />
<glyph unicode="&#x09;" horiz-adv-x="409" />
<glyph unicode="&#xa0;" horiz-adv-x="409" />
<glyph unicode="!" horiz-adv-x="444" d="M47 918v143q0 231 10 393h93q73 8 118 8q68 0 119 -16l-2 -37v-29q-6 -260 -6 -534q0 -299 10 -496q-82 -6 -145 -6q-18 -2 -49 -2l-41 -2l-41 -2h-52l-10 139q0 199 -2 297zM70 57q0 23 4 76q6 59 6 113q49 20 115 20q31 0 88 -4q53 -4 108 -4v-43l-2 -37 q-4 -115 -4 -186h-45l-23 2h-59l-154 -2q-20 0 -27 16.5t-7 48.5z" />
<glyph unicode="&#x22;" horiz-adv-x="774" d="M43 1055v149q0 94 6 248h33l37 4l20 2q70 8 121 8q59 0 74 -22q0 -211 2 -336l2 -137v-39h-109q-25 -2 -90 -2q-63 0 -94 6zM438 1055v149q0 94 6 248h33l37 4l21 2q70 8 120 8q59 0 74 -22q0 -211 2 -336l2 -137v-39h-108q-25 -2 -90 -2q-63 0 -95 6z" />
<glyph unicode="#" horiz-adv-x="1370" d="M20 516v82q63 -63 164 -63q43 0 78 2v6q0 25 6 45q27 102 58 186l-279 -2l-2 256q16 -8 70.5 -17.5t142.5 -9.5q68 0 109 3h28h8q18 47 51 155.5t46 163.5q45 -10 143 -12q18 -2 72 -2l88 -2q0 -16 -7.5 -42t-19.5 -67l-59 -192h112q10 0 26.5 1t47.5 -1q27 49 103 321 q66 -14 102 -14l82 2q51 0 102 -8q2 -6 2 -21q0 -27 -16 -72q-4 -23 -8 -28q-4 -12 -9.5 -26.5t-9.5 -31.5l-39 -129h9l22 -2h96v-18l15 -199l-221 -6q-18 -49 -27 -78l-14 -45l-39 -114h14q86 0 246 -11q10 -22 12 -38.5t2 -45.5q0 -68 4 -125q-82 -10 -176 -10 q-98 0 -184 -2q-4 -6 -6 -12t-4 -10l-15 -45v2l-10 -31q-6 -14 -29.5 -83t-62.5 -134h-27q-29 -4 -98 -4l-170 4q16 68 49 153l14 39q25 63 41 129h-59q-70 0 -119 -2l-41 -108q-23 -49 -51 -131q-6 -20 -33 -72q-10 -10 -47 -10q-33 4 -94 4l-154 -4q20 111 86 272l11 29 l6 16l-25 -2q-18 -2 -53 -2q-33 0 -53 2q-4 47 -4 156zM553 537l195 2q6 25 17 54.5t17 47.5l11 31q24 71 30 104h-26q-109 4 -162 2q-37 -104 -43 -125q-18 -51 -23 -65z" />
<glyph unicode="$" horiz-adv-x="911" d="M10 391q0 53 6.5 74.5t32 31t86.5 9.5q29 0 62 -4h-2l10 -2h14q14 -2 39 -2q66 0 97.5 -12.5t31.5 -63.5v-49l2 -15q0 -80 55 -79q23 0 43.5 18t20.5 45q0 82 -55.5 145.5t-161.5 145.5q-80 59 -146 125q-53 61 -85.5 137t-32.5 143q0 111 82 193q31 31 82 58.5t104 45.5 l-2 8q0 2 -1 5.5t-1 9.5q0 2 -1 5t-1 9q-2 14 -2 30.5t-2 31.5l-4 75q0 29 29.5 36t88.5 7h35q76 0 131.5 -5t71.5 -36v-163q0 -18 -2 -19q82 -6 145.5 -61.5t91.5 -114.5q20 -43 25.5 -81t5.5 -101v-13q0 -35 -25.5 -49t-74.5 -14h-33l-29 -2h-24q-16 -2 -62 -2 q-82 0 -106.5 25.5t-30.5 74.5q-4 35 -10 50.5t-29 15.5q-24 0 -44.5 -25.5t-20.5 -56.5q0 -63 62.5 -122.5t172.5 -133.5l41 -27l25 -18q82 -59 131 -157.5t49 -188.5q0 -137 -131 -246h2q-8 -8 -47 -29.5t-74 -40.5v-18l-2 -55v-80q0 -66 -108 -66h-62l-24 -2h-58 q-63 0 -82.5 21.5t-19.5 64.5l2 55q0 33 -9.5 53.5t-33.5 26.5q-104 35 -155.5 87.5t-67 119t-15.5 172.5z" />
<glyph unicode="%" horiz-adv-x="1236" d="M6 1051l4 51l2 18q0 16 2 23q8 61 21.5 104t46.5 80q72 82 188 82q106 0 169 -63.5t81 -157.5q10 -74 8 -121q4 -84 -20 -164l37 103q2 6 7 20t5 25q14 47 27 84q6 12 42 119.5t62 213.5q49 -10 98 -10l101 2q78 0 127 -24q-2 -2 -8.5 -6.5t-8.5 -10.5q2 2 6.5 -4 t2.5 -12l-2 -6l-54 -176q-16 -55 -22 -72l-17 -51l-30 -86l-50 -140q-35 -98 -43 -127q-2 -8 -4 -14t-4 -14l-24 -72l-8 -24q12 29 36 57q72 82 189 82q106 0 168.5 -63.5t81.5 -157.5q10 -74 8 -121q4 -84 -22.5 -171t-86 -146.5t-153.5 -59.5q-66 0 -135 35 q-49 33 -72 66.5t-35 82.5l-6 54q-4 41 -8 59l-2 12l-2 51l4 52l2 18q0 16 2 23q2 12 5 35.5t7 39.5l-49 -141l-16 -47l-29 -76l-119 -299l-6 -6q-29 -6 -49.5 -8t-46.5 -2l-189 -2q-25 0 -24 35q0 33 32 120q6 18 15 33h-2v4q31 98 67 189q14 49 172 473q-33 -70 -87 -111 t-132 -41q-66 0 -135 35q-49 33 -71.5 66.5t-34.5 82.5l-7 54q-4 41 -8 59l-2 12zM229 1130l11 -149l2 -20v-19q0 -25 2 -37q0 -14 7 -24.5t17 -6.5q10 2 16.5 23t10.5 45v-2l2 6v17l2 6q2 24 2 73q0 102 -14 164q-18 0 -20.5 4t7.5 15q-6 8 -16 6q-4 -6 -22 -25v2 q-4 -8 -6.5 -31.5t-0.5 -46.5zM932 481l10 -149l2 -21v-18q0 -25 2 -37q0 -14 7.5 -24.5t17.5 -6.5q10 2 16 22.5t10 45.5v-2l2 6v16l2 6q3 25 3 74q0 102 -15 164q-18 0 -20 4t8 14q-6 8 -16 7q-4 -6 -23 -25v2q-4 -8 -6 -31.5t0 -46.5z" />
<glyph unicode="&#x26;" horiz-adv-x="1157" d="M6 451q0 96 58.5 199.5t146.5 189.5q-158 215 -158 348q0 88 61.5 160.5t161 115.5t203.5 43q111 0 198 -44t136 -117.5t49 -159.5q0 -59 -23.5 -108.5t-78.5 -139.5l-12 -18v2l-9 -11l-6 -12q-14 -18 -28 -45q-12 -18 -13 -33q-6 -57 45 -145v26q6 47 39 75t111 28h145 q53 0 80 -17.5t27 -68.5q0 -61 -31 -152.5t-82 -177.5q-2 -2 -1 -3t-1 -3q-16 -37 -16 -45q0 -14 22 -41v2l10 -14l13 -13l8 -10l4 -4q39 -47 64.5 -87t33.5 -81v-22l-2 -11q-12 -45 -59 -57t-127 -12h-10q-88 0 -133.5 11t-96.5 56q-55 -33 -124.5 -47t-161.5 -20 q-139 0 -239.5 66.5t-152 173t-51.5 223.5zM377 446q0 -25 2 -34q14 -117 102 -117q14 0 39 4l8 2h-4q33 12 33 14q0 16 2 25l8 88q-2 63 -27.5 107.5t-86.5 44.5q-16 0 -25 -2q-23 -2 -37 -43t-14 -89zM422 1182q0 -37 9 -92.5t18 -53.5q41 6 40 187q0 33 -10 32 q-57 0 -57 -73z" />
<glyph unicode="'" horiz-adv-x="378" d="M43 1055v149q0 94 6 248h33l37 4l20 2q70 8 121 8q59 0 74 -22q0 -211 2 -336l2 -137v-39h-109q-25 -2 -90 -2q-63 0 -94 6z" />
<glyph unicode="(" horiz-adv-x="643" d="M37 473q12 260 10 387v49q2 29 2 90q0 84 10.5 151t40.5 126q53 90 142.5 139t191.5 51q109 -4 182 -18q4 -29 5 -94q0 -70 -3 -105l-2 -28v-35q-170 -31 -200 -215q-12 -53 -17.5 -124t-9.5 -237q0 -115 21 -192v2q27 -63 88 -103.5t127 -42.5v-22q-4 -37 -4 -117 q0 -37 2 -55q0 -16 1 -38t-1 -44q-16 -8 -68 -8h-88q-84 4 -143 22q-74 27 -121 64q-41 29 -64.5 59.5t-25.5 30.5q-76 143 -76 307z" />
<glyph unicode=")" horiz-adv-x="641" d="M18 252q4 -37 5 -117q0 -37 -3 -55q0 -16 -1 -38t1 -44q16 -8 68 -8h88q84 4 143 22q74 27 121 64q41 29 64.5 59.5t25.5 30.5q76 143 76 307q-12 260 -10 387v49q-2 29 -2 90q0 84 -10.5 151t-40.5 126q-53 90 -142.5 139t-191.5 51q-109 -4 -182 -18q-4 -29 -4 -94 q0 -70 2 -105l2 -28v-35q170 -31 200 -215q12 -53 17.5 -124t9.5 -237q0 -115 -21 -192v2q-27 -63 -88 -103.5t-127 -42.5v-22z" />
<glyph unicode="*" horiz-adv-x="751" d="M12 911q10 20 88 103l60 63q-2 -2 -15 15q-4 6 -17 21t-30 34v-2l-16 20q-18 18 -38.5 48t-27.5 44l13 9l37 39l40 43q70 70 103 94q39 -6 127 -90q8 -8 16 -14.5t13 -10.5h-3l21 -16q39 31 101.5 70.5t72.5 39.5v11l148 -150l30 -33q-2 -16 -23.5 -39.5t-60.5 -60.5 q-31 -29 -51 -68q33 -25 59 -61q4 -4 23 -29q23 -26 42 -45.5t30 -27.5l-64 -64l-184 -141q-57 66 -62 67l-16 17q-72 72 -61 59l-39 -39l-15 -12q-20 -20 -61 -53h2q-6 -6 -17.5 -8.5t-39.5 -2.5q-25 25 -33 31l-14 14h2q-49 47 -140 125z" />
<glyph unicode="+" horiz-adv-x="911" d="M8 807q2 0 12.5 -1t30.5 -1q66 0 140.5 3t82.5 5l-4 78v22l2 23l7 74q2 10 2 28l4 19v16l2 41q63 -41 123 -41h51l53 2q90 4 131 -4v-156l2 -67q0 -27 -8 -29q25 -2 46.5 -1t39.5 1q113 0 172 -10q-2 -51 -2 -141q0 -104 -6 -162q-18 -10 -47 -12t-82 -2q-66 0 -115 -5 q2 -63 -8 -163q-6 -55 -6 -86q0 -18 -94 -19q-51 0 -146 4q-35 -2 -76 -8t-53 -12l-4 35q-8 49 -4 108v103q0 23 2 30q-59 2 -138 11.5t-102 23.5l2 41q0 90 -8 193v-3q-2 18 -2 62z" />
<glyph unicode="," horiz-adv-x="385" d="M33 12q0 51 10 238q47 16 109 16q51 0 100 -6h-2l102 -8l-12 -244l-2 -10l-2 -10q-6 -16 -6 -33l-25 -123l-6 -31q-4 -16 -4 -34q-31 14 -49.5 18t-42.5 4h-99q-6 6 -6 25q0 23 11 67l2 8q8 27 8 64q0 27 2 43l-12 -4l-11 -2q-2 0 -32 6q-27 0 -33 16z" />
<glyph unicode="-" horiz-adv-x="1067" d="M43 403l4 259l2 67v23h969q0 -86 -2 -125l-2 -45v-41q0 -80 10 -152q-164 0 -492 6l-458 8h-31z" />
<glyph unicode="." horiz-adv-x="387" d="M33 106l2 50v41l2 24v21q55 25 170 24q111 0 139 -14q2 -2 4 -12.5t2 -22.5q0 -16 -4 -74l-12 -153l-295 2q-8 48 -8 114z" />
<glyph unicode="/" horiz-adv-x="843" d="M20 23q0 33 33 120q6 18 15 33h-2v4q31 98 67 189q10 39 195 532l37 105q2 6 7 20t5 25q14 47 26 84q6 12 42 119.5t63 213.5q49 -10 98 -10l101 2q78 0 127 -24q-2 -2 -8.5 -6.5t-8.5 -10.5q2 2 6 -4t2 -12l-2 -6l-53 -176q-16 -55 -22 -72l-17 -51l-31 -86l-49 -140 q-35 -98 -43 -127q-2 -8 -4 -14t-4 -14l-25 -72l-14 -43l-61 -174l-17 -47l-28 -76l-119 -299l-6 -6q-29 -6 -49.5 -8t-47.5 -2l-188 -2q-25 0 -25 35z" />
<glyph unicode="0" horiz-adv-x="1050" d="M29 815q0 129 25.5 242.5t88.5 214.5l-2 2l25 24q72 78 159 122t199 44q203 0 328 -131t162 -321q20 -113 16 -248q-2 -170 -59.5 -349t-173 -300t-283.5 -121q-98 0 -168 26q-137 51 -204.5 147.5t-85 204t-21.5 273.5l-2 53q-4 70 -4 117zM395 711q0 -131 27 -238v2 q8 -20 10 -33q23 -74 45 -86h4q18 -6 39 -6q33 0 52.5 24.5t31.5 69.5q14 45 19 140q0 25 4 57v-2q2 33 2 121q0 96 -13.5 187t-40.5 136q-33 33 -67 33q-10 0 -16 -2q-16 -2 -32 -14.5t-24 -28.5q-10 -14 -17 -59t-13 -94q-10 -117 -11 -207z" />
<glyph unicode="1" horiz-adv-x="749" d="M-27 1001q4 39 60.5 142.5t124 208t80.5 116.5h24q102 4 176 5q131 0 246 -11q10 -145 10 -352q0 -158 -12 -465q-10 -256 -10 -465q0 -96 2 -143q0 -47 -156 -47q-118 0 -231 20v205q0 131 12 393l4 66q8 188 8 276q-27 -35 -59 -35q-14 0 -87 16.5t-132.5 37 t-59.5 32.5z" />
<glyph unicode="2" horiz-adv-x="1019" d="M29 -10q8 106 8 172q2 125 13 200.5t54 147.5q82 90 273 207q111 68 174 117q29 18 45 56t16 81q0 53 -22.5 93t-59.5 44q-66 -2 -88 -70.5t-30 -179.5q-121 -16 -240 -16q-68 0 -125 14q-14 72 -14 137q0 100 30.5 189.5t90.5 156.5q51 61 157.5 94t225.5 33 q141 0 231 -34q102 -53 158.5 -146.5t68.5 -208.5v-18l2 -19q4 -100 2 -147q-10 -121 -93 -193.5t-226 -142.5q-88 -45 -126 -70.5t-66.5 -63.5t-69.5 -120q47 -2 135 -2q117 0 174 2q127 4 223 4q20 -49 21 -117l-2 -32v-95q0 -33 4 -51q0 -10 -7.5 -12t-31.5 -2l-778 -10 l-68 -4q-25 0 -38 3t-21 3z" />
<glyph unicode="3" horiz-adv-x="1007" d="M25 1077v46t10 73v-2q39 131 172 199.5t301 68.5q131 0 248.5 -50t171.5 -130q14 -25 22 -70t11 -84q4 -160 4 -270q0 -143 -9 -409q-2 -18 -2 -54q-2 -57 -9 -100t-25 -86q-31 -68 -88.5 -120t-135.5 -77q-76 -25 -200 -24q-74 0 -150 10q-49 6 -82 18l-18 4l-17 7h2 q-47 14 -73.5 29.5t-36.5 25.5q-66 66 -76 151q-4 25 -10 97v8q-4 61 -4 123q39 -2 90 4q45 4 67 4q53 8 97 8q25 0 73 -4q18 -49 61.5 -88t88.5 -39q39 0 72 47v-2q14 29 14 68q0 29 -11.5 55.5t-27.5 42.5q-27 14 -59.5 24.5t-59.5 10.5q-43 0 -108 -17q-27 51 -27 113 q0 23 4 72l2 69q0 33 -2 50q47 20 135 20q78 2 118 21.5t34 93.5q-2 49 -22.5 73.5t-51.5 24.5q-45 0 -94 -35t-68 -82q-47 -8 -194 -8l-135 4z" />
<glyph unicode="4" horiz-adv-x="960" d="M-4 588q0 72 2 104q35 59 59.5 104.5t42.5 75.5q84 147 157 268.5t198 307.5l141 2q90 4 143 4q57 0 95 -10l-3 -41q-14 -430 -14 -664v-51q7 2 23 2q12 0 41 -4q45 -4 75 -4l-10 -328q-35 0 -45 1t-12 1q-16 4 -76 2q6 -6 4 -30q-20 -301 -24 -318q-16 -18 -58.5 -22 t-146.5 -4h-144q-8 8 -8 63q0 66 13 217q8 98 8 123q-8 0 -65.5 -3t-115.5 -3q-121 0 -184 3t-74 17q-23 70 -22 187zM309 684q8 0 72.5 -3t122.5 -3l14 395q-20 -37 -72 -145q-57 -119 -89.5 -181.5t-47.5 -62.5z" />
<glyph unicode="5" horiz-adv-x="1030" d="M45 313q0 55 14 140l351 8l2 -19v2q8 -63 32.5 -90.5t59.5 -19.5q55 10 84.5 61t29.5 119q0 66 -27.5 121t-74.5 72h2q-47 8 -104 8q-35 0 -101 -4l-49 -2l-119 -4q-49 0 -98 8q0 258 -2 370v353q74 0 129 2q528 12 703 12q66 0 98 -8q6 -6 6 -58q0 -33 -4 -110l-2 -53 q-2 -27 -2 -66v-27q-35 -6 -150.5 -10t-230.5 -4q-135 0 -178 6q-2 -16 -2 -37q0 -16 5 -22t19 -6l64 2q74 0 121 -8q193 -37 289 -205t96 -389q0 -92 -13 -183q-20 -94 -96 -161.5t-184.5 -103.5t-223.5 -36q-119 0 -220 38t-162.5 115t-61.5 189z" />
<glyph unicode="6" horiz-adv-x="1030" d="M35 698q0 106 12 308q4 37 4 55v18q4 59 12 92q0 2 15 31q59 117 211.5 187.5t314.5 70.5q113 0 199 -52t134 -137t48 -181q0 -47 -14 -103q-86 -14 -193 -14h-61l-80 -2q-4 109 -39 145q-25 27 -47 27q-29 0 -49 -21q-35 -31 -49.5 -81t-14.5 -119q0 -25 4 -78l2 -37 q6 -55 5 -107q20 10 65 21q98 25 174 24q57 0 90 -10q45 -14 87 -38.5t69 -53.5q29 -31 50.5 -81t27.5 -97l4 -49q10 -140 -60.5 -237t-192.5 -146t-267 -49q-68 0 -99 4q-207 37 -284.5 227.5t-77.5 482.5zM532 399q0 -23 11.5 -42t25.5 -31q20 -8 41 -9q33 0 56 15 q31 16 45 61v25q0 27 -4 39q-6 37 -37 43q-31 4 -66 -11.5t-57 -46.5q-14 -20 -15 -43z" />
<glyph unicode="7" d="M2 12q94 201 231 480q221 463 306 649l-527 16q11 84 11 221l2 37v43q27 2 98 2l88 2l121 2q156 4 256 4q229 0 389 -18q-2 -29 -2 -86q0 -66 2 -98q2 -35 2 -109q-68 -154 -172.5 -351.5t-376.5 -688.5l-63 -113l-111 -4h2q-55 -6 -127 -6q-74 0 -129 18z" />
<glyph unicode="8" horiz-adv-x="1003" d="M18 401q0 84 35 168t97 152q-51 61 -82 141t-31 158q0 109 45 208t129 163.5t199 68.5q49 2 129 2q94 0 151.5 -11t108.5 -40l20 -12q70 -39 115 -145.5t45 -231.5q0 -41 -8 -74q-35 -139 -152 -241q70 -61 112 -146.5t42 -167.5q0 -80 -31 -161.5t-86 -145.5 q-51 -55 -148.5 -88t-203.5 -33q-119 0 -225.5 39t-159.5 107q-47 59 -74 136t-27 154zM412 446q0 -57 34 -71q23 -10 56 -10l30 2q23 2 39.5 30.5t14.5 69.5q0 18 -8.5 37.5t-16.5 25.5q-35 29 -74 29q-31 0 -53 -33.5t-22 -79.5zM426 1001q0 -35 19.5 -64.5t52.5 -31.5 q30 -2 48.5 25.5t18.5 64.5q0 33 -23.5 55.5t-52.5 22.5q-39 0 -59 -43q-4 -16 -4 -29z" />
<glyph unicode="9" horiz-adv-x="1050" d="M27 375q0 49 4 71v19l123 4l45 2q57 4 94 4q68 0 119 -8q12 -41 38.5 -68.5t59.5 -25.5h-2q49 6 68.5 69.5t15.5 149.5q-61 -16 -123 -17q-115 0 -214 52.5t-159 140.5q-35 51 -52 120.5t-17 141.5q0 168 84 270q63 78 172.5 118t240.5 44l31 -2h31q133 -2 213 -21.5 t127 -95.5q47 -70 60 -157.5t15 -220.5l5 -303q0 -17 4 -78q4 -66 4 -97q0 -49 -6 -96q-25 -164 -109 -280q-55 -63 -146 -96t-202 -33q-137 0 -268 54t-197 140q-59 88 -59 199zM442 1032q2 -41 11 -74q14 -27 37.5 -43t48.5 -16q20 0 40.5 11.5t32.5 29.5q10 20 19 74 q2 41 -27 70.5t-67 29.5q-23 0 -64 -20q-31 -12 -31 -62z" />
<glyph unicode=":" horiz-adv-x="419" d="M49 106l2 50v41l2 24v21q55 25 170 24q111 0 139 -14q2 -2 4.5 -12.5t2.5 -22.5q0 -16 -4 -74l-13 -153l-295 2q-8 48 -8 114zM49 795l2 49v41l2 24v21q55 25 170 24q111 0 139 -14q2 -2 4.5 -12t2.5 -23q0 -16 -4 -74l-13 -153l-295 2q-8 49 -8 115z" />
<glyph unicode=";" horiz-adv-x="419" d="M49 795l2 49v41l2 24v21q55 25 170 24q111 0 139 -14q2 -2 4.5 -12t2.5 -23q0 -16 -4 -74l-13 -153l-295 2q-8 49 -8 115zM51 0q0 63 10 250q47 16 109 16q51 0 100 -6h-2l103 -8l-13 -244l-2 -10l-2 -10q-6 -16 -6 -33l-24 -123l-7 -31q-4 -16 -4 -34q-31 14 -49 18 t-43 4h-98q-6 6 -6 25q0 23 10 67l2 8q16 51 21 99q-16 2 -41 4t-58 8z" />
<glyph unicode="&#x3c;" horiz-adv-x="743" d="M-2 553q61 78 235 256l33 35l43 43l80 80l10 12v-2l29 31l90 94q59 -35 85 -58.5t30 -27.5q55 -59 80 -76q-39 -49 -170 -184q-12 -12 -73.5 -76t-117.5 -131q74 -66 164 -156l29 -28h-2q117 -113 190 -175l-31 -28l-32 -33q-4 -4 -6 -8q-12 -12 -127 -107 q-84 84 -177 166l-26 25h2l-25 20q-115 102 -183.5 172t-129.5 156z" />
<glyph unicode="=" horiz-adv-x="954" d="M53 233l4 218l2 61v23h838l-2 -60v-49l-2 -31v-30q0 -57 8 -144q-143 0 -424 6l-158 2q-117 0 -153 2l-82 2h-31zM53 657l4 217l2 62v22h838l-2 -59v-49l-2 -31v-31q0 -57 8 -143q-143 0 -424 6l-158 2q-117 0 -153 2l-82 2h-31z" />
<glyph unicode="&#x3e;" horiz-adv-x="743" d="M10 190q74 62 191 175h-2l28 28l37 35l125 121q-109 125 -184 203q-133 137 -174 188q25 16 78 74q51 51 116 88l84 -88l35 -37v2l10 -12l80 -80l43 -43l33 -35q174 -178 235 -256q-57 -78 -120.5 -140.5t-169.5 -160.5l-41 -39q-119 -109 -211 -203q-117 102 -123 117 v-4l-39 39h2z" />
<glyph unicode="?" horiz-adv-x="923" d="M2 1016q6 111 69.5 213t170 166.5t229.5 64.5q119 0 220.5 -49t161.5 -135t60 -193q0 -131 -104 -260l-66 -75q-31 -31 -57 -66q-35 -49 -56.5 -107.5t-37.5 -138.5l-2 -6q-8 -25 -8 -39q0 -12 6 -31q-37 -6 -87 -8t-87 0h-135q-12 12 -15.5 24.5t-3.5 31.5l4 79 q15 80 31 134.5t53 113.5l-2 -2q12 23 57 82l15 19q53 70 79.5 115.5t26.5 88.5q0 57 -59 80q-18 6 -31 6q-23 0 -37 -14t-35 -45q-4 -4 -14 -19.5t-22.5 -25.5t-26.5 -14q-53 -4 -96 -5q-35 0 -97 5l-49 4zM256 106l2 50v41l2 24v21q55 25 170 24q111 0 139 -14 q2 -2 4 -12.5t2 -22.5q0 -16 -4 -74l-12 -153l-295 2q-8 48 -8 114z" />
<glyph unicode="@" horiz-adv-x="1155" d="M37 770v61q2 113 24.5 207.5t83.5 175.5q51 61 132 93t186 47q31 6 110 6q82 0 175 -14q66 -10 128 -37t107 -68q88 -82 113.5 -197.5t25.5 -265.5v-110q0 -111 -12 -187q-14 -82 -83 -128t-171 -48q-59 0 -117 39l-10 10q-61 -37 -160 -37q-127 0 -198 78 q-66 76 -66 228q0 141 92 256q37 45 119 78.5t166 33.5q88 0 137 -33l-2 3l12 -5q33 -40 31 -79v-41l-2 -19q-2 -35 -2 -119q0 -121 4 -159q-2 -8 5 -12.5t12.5 13t5.5 64.5l2 70q4 63 2 86v82q0 123 -34 183t-110 103v-2q-80 39 -190 39q-109 0 -180 -71v2 q-45 -49 -60.5 -129t-21.5 -205q-2 -31 -2 -92q0 -135 20 -256q12 -86 37 -141.5t66 -84.5l-2 2q37 -18 91 -28t97 -10l18 2h39q68 4 176.5 41.5t198.5 83.5l88 -193q-59 -39 -152.5 -78t-156.5 -49q-72 -16 -209 -16q-78 0 -145 6q-197 27 -295 153q-41 57 -73 146.5 t-36 150.5q-14 244 -14 371zM541 586q0 -27 14 -41.5t31 -5.5q37 14 37 116q0 20 6 57.5t14 59.5q-57 -4 -78 -43q-16 -27 -20 -55.5t-4 -73.5v-14z" />
<glyph unicode="A" horiz-adv-x="888" d="M-16 0q0 10 4 48t12 85l45 258q53 317 101.5 553t125.5 498q29 4 78 4h12q133 0 261 10q25 -96 45 -189t37 -167q66 -285 88 -379l135 -727q-66 -14 -142 -14q-90 0 -196 22q-14 39 -45 164q-31 127 -49 168l-41 2l-35 -2q-8 -25 -27 -121q-14 -80 -28.5 -130t-40.5 -91 q-20 -4 -62 -4q-18 0 -80 4q-178 8 -198 8zM414 596h86q-45 410 -43 410l-2 20l-4 -49q-6 -154 -19 -244z" />
<glyph unicode="B" horiz-adv-x="976" d="M53 496q0 367 2 661v266q180 51 346 52q231 0 380 -101.5t149 -333.5q0 -150 -105 -325v2q-4 -8 -4 -12q0 -6 13 -19v-2q77 -98 114 -162.5t37 -150.5q0 -35 -6 -76q-33 -182 -170 -248.5t-352 -66.5q-63 0 -398 24q-6 154 -6 492zM383 412q0 -74 23 -115h31q53 0 85 5 q42 7 70 42q14 20 14 68q0 34 -12 75v-2q-10 23 -28.5 41.5t-37.5 22.5q-33 8 -96 12q-6 0 -13 -1t-16 1q-20 -86 -20 -149zM397 1124q6 -35 6 -106v-74q0 -51 3 -80h59q90 0 123 62q26 47 26 78q0 20 -8 36q-31 58 -78 70q-33 4 -51 4q-53 4 -80 10z" />
<glyph unicode="C" horiz-adv-x="999" d="M33 688q0 195 2 320l2 92v14q0 26 5 56q7 40 19 71q18 47 48 94t63 78q43 35 127 60q77 24 159 24h7q139 0 262 -64.5t196.5 -176t73.5 -242.5q0 -78 -28 -156q-86 -18 -144 -18q-78 0 -215 26l-6 78q-4 94 -24 142q-19 47 -77 47h-5q-2 0 -5.5 -1.5t-9.5 -1.5h2 q-63 -10 -69 -43q-4 -8 -10.5 -128.5t-6.5 -245.5q0 -127 7 -213q6 -55 32.5 -107.5t63.5 -70.5h8q66 0 100 65h-2q18 39 19 117q0 61 8 96q51 -8 98 -8l94 2q74 0 140 -16q24 -69 24 -144v-6q0 -117 -58.5 -221.5t-160.5 -170t-227 -69.5q-37 -6 -86 -6q-160 0 -281 71.5 t-135 215.5q-10 205 -10 440z" />
<glyph unicode="D" horiz-adv-x="987" d="M47 1417l14 2q109 29 252 29l54 -2h55q27 -2 82 -2t82 2q76 -20 145.5 -72.5t110.5 -120.5l-13 17q96 -151 127 -305v2q16 -51 21 -133q-4 -61 -4 -93l-2 -32q0 -14 -4 -96.5t-21 -161.5q-39 -115 -107.5 -224.5t-162.5 -226.5q-172 -4 -283 -4l-147 -2l-160 -2 q-37 268 -37 676q0 178 2 266q2 80 2 274q0 49 -4 148zM401 459q31 -12 43 -13h27q33 0 47 7q33 8 74 73q51 78 51 176q0 37 -8 72q-16 86 -39 140.5t-70 70.5h4q-49 4 -73 4q-41 0 -54 -4q4 -74 5 -139v-53l-2 -56q-2 -47 -3 -141q0 -90 -2 -137z" />
<glyph unicode="E" horiz-adv-x="985" d="M49 899q0 281 14 522l181 6q303 12 463 13q137 0 266 -10q8 -43 8 -101q0 -31 -4 -100q-4 -66 -4 -103q-119 -26 -264 -26h-11l-266 -2q-10 -96 -10 -160q0 -49 12 -86l135 16q29 0 86 -4l27 -2q10 -61 10 -133l-4 -164q-66 -18 -176 -18l-53 2q-14 0 -19 -4l-8 -107 q0 -84 8 -139q106 0 207 -6q35 -2 86 -4t121 -2l125 4q4 -94 4 -109v-9q0 -99 -22 -177q-90 0 -267 -4l-268 -2q-182 0 -365 12v42q0 113 -6 468q-6 252 -6 387z" />
<glyph unicode="F" horiz-adv-x="1011" d="M53 4l2 334v268q2 215 2 793q88 14 255 26.5t321 12.5q252 0 401 -37v-39q0 -8 1 -33.5t3 -114.5q0 -72 -4 -129l-149 -8l-76 -4l-37 -2l-110 -6q-117 -4 -177 -10l-6 -15q-6 -18 -6 -53q0 -33 4 -64.5t8 -37.5q51 -6 99 -6q94 0 166 10q10 -23 10 -86v-41l-2 -49l-2 -39 v-39q0 -43 4 -96q0 -10 -33 -15q-27 -4 -133 -14q-20 -2 -49 -3t-58 -7l-14 -434v-72q-86 -10 -250 -10q-141 0 -170 20z" />
<glyph unicode="G" horiz-adv-x="985" d="M25 748q0 66 2 104q4 184 20 270q29 164 133 242q78 57 213 78q47 6 96 6q205 0 336 -103.5t131 -293.5l-4 -66v-29q-14 -2 -34.5 -2h-36.5h-99q-78 0 -149 9q-49 167 -110 167h-1q-10 0 -22.5 2.5t-22.5 2.5q-33 0 -57 -25q-2 -2 -14 -49q-39 -129 -39 -381 q0 -125 8 -207q14 -137 55 -174q20 -12 33 -16q23 -2 54.5 3t55.5 15q35 14 45 66q6 25 12.5 63.5t4.5 46.5h-49q-15 -1 -29 -1q-55 0 -88 13q-4 43 -4 107v22q0 8 1 28v6q0 22 -5 69q16 0 69 8q82 14 123 14q88 0 199 -8l66 -4l34 -2l4 -43q2 -23 8.5 -97.5t6.5 -127.5 q0 -104 -17 -207q-14 -92 -71.5 -155.5t-145.5 -96.5q-150 -45 -276 -45q-98 0 -178 31q-162 72 -211 250q-14 55 -25 143v-1q-1 0 -22 368z" />
<glyph unicode="H" horiz-adv-x="1021" d="M49 1210q0 164 2 230l232 4q53 0 96 -14q10 -88 14 -203l2 -49q4 -90 10.5 -150.5t20.5 -132.5l78 -8q20 0 39.5 4t38.5 6h4q14 156 14 301q0 106 -6 229q47 14 114.5 22.5t131.5 8.5q55 0 96 -4l55 -1448q-84 -14 -221 -14q-70 0 -127 -4q-12 88 -18 311q-4 172 -19 264 l-78 4q-61 0 -94 -8q-6 -59 -6 -113q0 -92 2 -137v-53l2 -53q0 -123 -10 -187q-45 -26 -110 -26h-5q-33 0 -82 4l-18 2q-37 4 -49 4l-66 -4q-14 184 -28.5 555t-14.5 659z" />
<glyph unicode="I" horiz-adv-x="532" d="M47 1055q0 203 19 399q27 4 57 4q16 0 45 -3q17 -2 38 -2q14 0 30 1q80 -4 135 -4h35h79v-18q0 -240 -6 -484q-8 -324 -8 -510q0 -215 12 -428q-30 -30 -151 -30h-8q-74 0 -109 2l-25 2l-36 2q-41 0 -105 -17q12 178 12 379q0 80 -4 236l-2 118q-8 217 -8 353z" />
<glyph unicode="J" horiz-adv-x="948" d="M-25 528l2 31v35q59 16 160 16q117 0 219 -20v-17q16 -217 99 -223q7 -1 13 -1q30 0 48 33q21 40 27 101q-8 344 -8 580q0 186 6 377v24l360 4v-112q0 -92 4 -285l2 -80q4 -123 4 -200q0 -78 -2 -117q-2 -27 -2 -84q-4 -150 -18.5 -250t-68.5 -188.5t-167 -128.5v2 q-100 -51 -243 -52q-82 0 -160 17q-150 45 -212.5 197.5t-62.5 340.5z" />
<glyph unicode="K" horiz-adv-x="940" d="M49 410q0 244 6 485q6 246 6 547q23 1 51 1q58 0 140 -3q39 -2 145 -2q2 -78 2 -381v-41q68 109 111 196q72 137 137 230l135 -2q23 1 46 1q79 0 151 -11q-25 -86 -68 -171t-120 -221l-13 -20q-78 -123 -149 -283l352 -731q-68 -16 -145 -16q-39 0 -109 4q-23 2 -84 2 q-55 66 -98 146.5t-96 201.5q-10 20 -17.5 46t-7.5 30l-6 24l-8 27q0 -104 4 -260q4 -127 4 -203q-74 -20 -172 -20q-100 0 -189 20q-8 178 -8 404z" />
<glyph unicode="L" horiz-adv-x="944" d="M43 -12v47q14 338 14 680q0 100 -4 346v49v76q-2 35 -2 125l-2 133q29 10 80 17t102 7q57 0 114.5 -8t92.5 -22q-4 -147 -4 -236q0 -123 4 -368q2 -123 2 -363v-133q68 0 166 -6l109 -4q86 -6 162 -6q53 0 94 4q0 -47 -2 -62v2q-3 -37 -3 -60q0 -12 1 -20l2 -39 q2 -24 2 -71q0 -43 -7.5 -60.5t-21.5 -21.5t-49 -4h-14l-33 2l-53 -2q-127 -4 -375 -4q-236 0 -375 2z" />
<glyph unicode="M" horiz-adv-x="1026" d="M53 338q0 283 6 1069q31 10 65 14t97 4l101 -2q45 0 67 2q27 -31 47.5 -78t75.5 -192q2 4 13.5 41t95.5 240q27 -6 69 -6q33 0 111 4l173 4l-9 -1454q-66 10 -142 10q-8 0 -38.5 -1t-151.5 -3q-4 111 -4 194l-15 451l-24 -47q-31 -55 -48.5 -78t-37.5 -23q-45 2 -107 148 q-2 -20 -1 -53t1 -52v-51q0 -199 19 -479q-88 -14 -178 -14l-140 4h-28q-6 0 -8.5 1t-2.5 5l-2 22q-4 78 -4 320z" />
<glyph unicode="N" horiz-adv-x="1019" d="M49 885q0 330 19 553q55 14 122 14q45 0 110 -8t89 -25q29 -53 71 -148t81 -190l82 -188q-4 143 -5 338q0 158 3 217q84 16 178 16q80 0 166 -18v-1452q-6 0 -25 -6q-20 -8 -72 -8h-8q-22 0 -100 6q-25 2 -63 4t-44 0l-82 182q-129 283 -170 391v-393q0 -127 2 -174 q-55 -16 -120 -16q-20 0 -62 4q-45 4 -65 4l-101 4v153q0 131 -4 373q-2 121 -2 367z" />
<glyph unicode="O" horiz-adv-x="989" d="M27 799q0 94 6 188q6 102 35.5 199.5t91.5 171.5l45 24q131 63 287 64q98 0 185 -25.5t152 -74.5q72 -66 95 -129q25 -66 34 -132q7 -63 7 -129l-2 -36v-37q-4 -68 -5 -199q0 -145 -6 -221l-6 -68q-10 -166 -84 -282q-31 -43 -92 -76t-135 -53q-76 -23 -178 -23 q-47 0 -66 2q-100 8 -179 44t-116 106q-49 92 -53 231l-4 66q-2 16 -2 67q-10 168 -10 322zM311 741q0 -70 2 -104v2q8 -41 13 -109l2 -28q8 -102 22 -152v2q18 -41 54 -62.5t77 -21.5q33 0 67 15.5t58 44.5q20 27 25.5 45t5.5 57q0 35 2 51l2 27l2 39v28l2 39v99l-4 139v10 l-8 107q-4 57 -27.5 101t-60.5 63q-16 6 -33 6q-49 0 -96 -33q-25 -20 -48.5 -58t-35.5 -77q-20 -90 -21 -230z" />
<glyph unicode="P" horiz-adv-x="1017" d="M45 1427q158 45 330 46q264 0 449.5 -112t197.5 -355v-2q0 -40 -2 -56q-14 -117 -90 -215t-188.5 -154.5t-237.5 -56.5q-6 0 -16.5 -1t-24.5 1q2 -25 1 -49t-1 -45v-416l-23 -2q-55 -16 -192 -16q-102 0 -189 10q-8 199 -8 690v248q0 334 -6 485zM406 1143q2 -33 2 -111 v-18q0 -61 3 -101.5t13 -70.5h29h60t80 12t52 41q20 35 21 80q0 55 -33 102l-17 19q-32 28 -71 36.5t-79 9.5t-60 1z" />
<glyph unicode="Q" horiz-adv-x="1013" d="M31 516v285q0 141 9 255.5t36 211.5q31 90 152.5 147.5t289.5 57.5q123 0 190.5 -14.5t123 -69t104.5 -172.5q53 -162 53 -463q0 -131 -6 -213q-4 -45 -4 -68q-4 -94 -14 -137v-4q0 -4 -2 -18.5t-9 -30.5q-10 -33 -51 -119l6 -8q14 -16 25.5 -31.5t11.5 -26.5 q0 -25 -13 -40t-50 -42q-33 -20 -57.5 -31.5t-53.5 -11.5q-16 0 -39.5 14.5t-42.5 32.5q-39 -23 -100 -35q-47 -9 -90 -9q-15 0 -29 1q-109 8 -177.5 37t-129.5 88q-82 76 -107.5 173.5t-25.5 240.5zM342 543q0 -131 16 -191v2q41 -108 154 -108h2l-12 10q-6 8 -33 35 q-37 45 -37 76q0 16 12.5 27.5t34.5 25.5v-1t2 1q12 4 47 37q28 28 71 28h3q31 0 47.5 -14t18.5 -27q2 23 2 62l2 80v153q0 113 -15 250q-6 78 -37.5 118t-107.5 40q-68 0 -97.5 -10.5t-41 -39t-15.5 -98.5q-14 -160 -14 -297v-100z" />
<glyph unicode="R" horiz-adv-x="1060" d="M35 1438l55 8q123 16 203 24.5t164 8.5q90 0 153 -9q119 -14 222.5 -81.5t166 -166t62.5 -202.5q0 -100 -66 -219q-41 -74 -108.5 -123t-161.5 -60q55 -98 129 -204q14 -25 23 -33q81 -125 131.5 -211t83.5 -174h-33q-25 0 -111 -4t-137 -4q-29 0 -86 4l-35 2 q-133 303 -237 455v-54q0 -127 14 -327v2q2 -14 2 -50q-68 -32 -220 -32h-9l-50 2h-108q-23 0 -23 370q0 336 -6 673t-18 405zM397 1141q4 -61 4 -105q0 -111 7 -135q35 -4 86 -4q47 0 88 6q28 8 44.5 41t16.5 78q0 84 -41 108q-27 16 -54.5 20.5t-62.5 4.5z" />
<glyph unicode="S" horiz-adv-x="993" d="M-6 410v18q59 10 131 10q61 0 104 -2q39 -2 140 -2q2 -61 37.5 -96t82.5 -35q41 0 69 26.5t28 76.5q0 18 -2 28q-10 76 -71.5 106.5t-166.5 51.5l-31 6q-88 16 -153 72q-74 72 -111 153.5t-37 163.5q0 133 81 251t210 171q80 33 199 33q154 0 280 -58 q94 -49 149.5 -128.5t55.5 -188.5q0 -41 -12 -106h-25q-86 -15 -170 -15q-100 0 -176 23q4 20 4 28q0 47 -34.5 78t-77.5 31q-31 0 -54.5 -19.5t-27.5 -58.5q-6 -18 -6 -33l2 -18v-4q14 -43 41.5 -59.5t66.5 -22.5q102 -14 206.5 -75.5t168.5 -143.5q39 -53 61.5 -118 t22.5 -126q0 -106 -47 -207q-53 -115 -164 -178t-242 -63q-133 0 -259 52q-125 52 -203 150q-70 89 -71 204q0 12 1 24z" />
<glyph unicode="T" horiz-adv-x="907" d="M-12 1305q0 102 2 147h88l80 2h114l119 2q305 0 498 -22h26q5 -70 5 -131q0 -119 -15 -213q-68 12 -106 12l-97 2q-53 0 -53 -6q-4 -29 -4 -121q0 -180 14 -971q-59 -10 -139 -10h-59q-102 0 -189 -14q-6 10 -9 41.5t-1 58.5v100l2 185q0 373 -16 727q-23 10 -64 10 l-82 -2q-70 0 -100 10q-6 12 -10 67.5t-4 125.5z" />
<glyph unicode="U" horiz-adv-x="1034" d="M45 301q0 150 4 449l2 133q4 217 4 321q0 135 -2 199h51l123 4q100 0 176 -23q-8 -229 -8 -352q0 -297 27 -657v2q12 -41 36.5 -62.5t53.5 -21.5q33 0 61.5 26.5t38.5 67.5v-2q8 188 13 596l2 131q0 98 4 270l43 7q29 0 78 6q67 6 91 6h9q88 0 123 -21h16 q10 -219 10 -405q0 -354 -34 -668q-16 -141 -113.5 -236.5t-251.5 -109.5h2q-37 -4 -67 -4q-121 0 -231.5 38t-183.5 115.5t-77 190.5z" />
<glyph unicode="V" horiz-adv-x="901" d="M2 1395q18 20 75.5 30.5t127.5 10.5q66 0 147 -15l13 -182q12 -203 26.5 -351.5t40.5 -293.5q25 113 76 410q61 362 82 432q80 -16 182 -17q102 0 146 -8h26q-63 -338 -143 -657.5t-201 -761.5q-45 0 -61 -2l-21 -2q-37 -4 -76 -4q-129 0 -200 24q-178 629 -240 1387z " />
<glyph unicode="W" horiz-adv-x="952" d="M16 1432q80 14 164 14l92 -2q57 -4 99 -4q8 -92 8 -332v-39q0 -250 12 -358q8 29 21 90q10 59 22 100t39 72q66 -43 100 -262l7 272q8 324 18 442q78 18 176 19q80 0 156 -8l14 -11q-12 -166 -65 -684q-45 -457 -69 -735q-27 -8 -75.5 -9t-146.5 -1q-25 31 -40.5 77 t-31.5 115q-20 84 -31 109q-68 -238 -84 -291q-66 -12 -127 -12q-57 0 -108 8l-12 92q-53 317 -89 666.5t-49 671.5z" />
<glyph unicode="X" horiz-adv-x="892" d="M-37 1417q127 10 303 10h70q20 -80 59 -227t49 -164l31 105q29 109 82 293q143 8 373 8l-221 -744q18 -90 48.5 -200.5t61.5 -212.5q47 -152 84 -295q-49 4 -72 4l-126 -2q-88 0 -142 16q-16 37 -33.5 96.5t-37.5 145.5q-12 41 -39 147l-13 -41q-27 -94 -66.5 -219 t-49.5 -141l-76 -2q-27 -2 -78 -2q-104 0 -182 24q43 129 128 402.5t85 292.5q-72 334 -238 706z" />
<glyph unicode="Y" horiz-adv-x="890" d="M-12 -8q49 147 188 508l84 213q-20 82 -51 160.5t-78 187.5q-55 137 -83 211t-48 155h16q38 0 105 7q66 8 96 8q72 0 119 -27q18 -76 56 -188.5t73 -200.5q10 20 65 186q61 184 70 201q113 23 223 23q68 0 119 -9q-49 -184 -120.5 -355t-194.5 -429q-98 -201 -164 -351.5 t-117 -305.5q-49 6 -94 6q-31 0 -84 -4l-86 -2q-41 0 -94 6z" />
<glyph unicode="Z" horiz-adv-x="970" d="M-4 1421q176 18 403 19q90 0 271 -4q184 -4 282 -4q6 -47 6 -103q0 -78 -2 -119l-2 -120q-92 -154 -315 -469q-125 -180 -205 -297q111 14 402 14h104q10 -55 10 -137q0 -59 -8 -158l-4 -59q-250 14 -479 14q-219 0 -416 -12q-20 33 -20 174v90q0 55 -3 76 q74 160 194 338t288 401q18 27 14 25q-82 10 -229.5 16t-249.5 6q-16 29 -20.5 61.5t-4.5 86.5q0 45 -6 92t-10 69z" />
<glyph unicode="[" horiz-adv-x="657" d="M57 -16v708q0 453 21 758q70 12 147 12q27 0 105 -4l49 -2q106 -4 125 -4q59 0 135 8v-78q0 -70 -4 -112.5t-21 -77.5q-23 2 -65 2q-43 0 -62 -2h-10q-51 -4 -78 -2q-8 -78 -8 -252q0 -121 8 -346q8 -197 9 -311l120 4l43 -2l56 -7q8 -123 8 -196q0 -61 -2 -88z" />
<glyph unicode="\" horiz-adv-x="843" d="M10 1436q37 18 77 22t101 2q16 -2 50 -2q49 0 98 10q27 -109 60.5 -214t41.5 -117l27 -82q8 -33 14 -49q12 -45 37 -105q182 -489 193 -532q43 -111 65 -183l-2 2l10 -22q4 -10 8.5 -21.5t-2.5 -1.5q33 -88 33 -120q0 -35 -24 -35l-187 2q-37 0 -56 3t-46 13l-119 299 q-16 41 -45 123l-68 190l-34 99l-4 12t-5 12q-16 57 -43 131q-18 55 -96 277q-4 16 -20 72l-19 61v-2q-27 80 -39 133z" />
<glyph unicode="]" horiz-adv-x="657" d="M18 1401v59q66 -8 127 -8q43 0 134 4l49 2q57 4 100 4q80 0 152 -16q18 -252 18 -692v-490q0 -174 2 -260v-20q-74 6 -301 6l-274 2q-2 27 -2 88q0 74 8 196l55 7l41 2q25 2 74 2q37 0 49 -4q0 96 8 309q8 217 8 346q0 172 -10 250q-33 0 -86 4q-18 2 -59 2q-47 0 -76 -2 q-10 35 -13.5 80t-3.5 129z" />
<glyph unicode="^" horiz-adv-x="901" d="M-12 969q59 82 124.5 150.5t161.5 156.5h-2l56 49l61 57l33 31h-2l31 29l471 -471h-54l-16 -4q-82 -14 -168 -15q-61 0 -109 6q-39 4 -94 70l-24 31q-2 4 -5 9t-10 7l-32 -37l-17 -16q-27 -29 -46 -45t-38 -19q-18 -2 -51 -2t-53 2z" />
<glyph unicode="_" horiz-adv-x="1331" d="M53 -76h31l516 4h66l245 2q180 0 238 2l135 2q-8 -57 -11 -94t-1 -71v-29l2 -57l-1041 4h-176v20l-2 39q-2 51 -2 178z" />
<glyph unicode="`" horiz-adv-x="522" d="M-4 1270l168 170q55 -43 120.5 -106.5t121.5 -121.5v2l40 -40l41 -44q55 -55 56 -55q-31 -8 -91.5 -13t-117.5 -5q-80 0 -123 6q-23 33 -125 125l-14 12h2q-47 39 -78 70z" />
<glyph unicode="a" d="M8 545q0 135 49 244.5t135.5 173t190.5 65.5q63 0 118.5 -10t69.5 -25q0 10 -4 26.5t2 24.5q4 4 29 5q37 0 97.5 -5.5t76.5 -7.5l129 -6h27q0 -10 3 -34.5t3 -45.5q-2 -53 -2 -159q0 -143 2 -216v-122l2 -123q0 -121 -6 -248v-21q0 -33 -8.5 -50t-42.5 -23h-261 q-47 14 -47 55v14q-51 -33 -112.5 -52t-118.5 -19q-109 0 -183.5 88t-111.5 218t-37 253zM322 504q0 -90 40.5 -150.5t110.5 -60.5q45 0 65.5 24.5t25.5 65.5t5 123v53q0 88 -3 120t-18.5 43t-53.5 11q-66 0 -107 -35.5t-53 -87.5q-12 -41 -12 -106z" />
<glyph unicode="b" horiz-adv-x="950" d="M39 250q0 238 6 491q8 344 8 566v139q68 14 150 14q63 0 116.5 -7t53.5 -13v-23q2 -16 5 -109.5t3 -170.5l-2 -121q75 22 170 22h8q117 0 195 -28q92 -37 139 -155t47 -271q-6 -170 -32.5 -288t-106.5 -202t-234 -98h2q-10 -2 -30 -2q-98 0 -156 76v-52q0 -12 -10 -22 q-55 -8 -127 -8l-146 4h-57q-2 80 -2 258zM371 555q0 -150 20.5 -218.5t95.5 -68.5q70 0 113 77t43 181q0 82 -12 115l10 -6l-12 8q-11 68 -52.5 102.5t-111.5 34.5q-47 0 -65.5 -14t-23.5 -57t-5 -154z" />
<glyph unicode="c" horiz-adv-x="905" d="M16 659q0 84 13 152q4 41 24 96l13 27q-2 -2 -3 0q29 61 125.5 93t214.5 32q10 -2 74 -2q12 2 51 2q25 0 35 -2q162 -14 242 -88q51 -41 68.5 -118t21.5 -210v-23l2 -30q-63 -12 -106 -13q-49 0 -168 15l-45 6q-10 59 -41 95t-78 36q-12 0 -33 -4h2q-29 -10 -45 -29 q-16 -16 -23 -49q-8 -57 -8 -149l-2 -70q-2 -23 -2 -55q0 -47 32 -71t79 -24q39 0 76 21q10 12 21 46t17 69q41 -5 84 -5q21 0 43 1h45l46 2q51 0 77 -7h25q-10 -139 -23.5 -223t-40.5 -114q-41 -57 -117.5 -80t-179.5 -23q-39 0 -108 4q-66 4 -100 4q-113 20 -191 92 q-63 61 -86.5 153.5t-23.5 207.5v63q0 121 -7 172z" />
<glyph unicode="d" horiz-adv-x="948" d="M12 584q0 154 47 271.5t140 154.5q75 28 186 28h8q113 0 178 -18l-2 72q-2 51 -2 131q0 41 11 194v23q0 6 53 13t117 7q82 0 149 -14v-139q0 -195 8 -568q6 -229 6 -489q0 -178 -2 -258h-57l-53 -2q-80 0 -219 6q-10 10 -11 22l-2 48l-4 -7q-29 -35 -61.5 -50t-75.5 -15 q-29 0 -43 2h2q-152 14 -232.5 98t-108.5 205t-32 285zM307 526q0 -104 43 -181t113 -77q76 0 96.5 69t20.5 218q0 111 -5.5 154t-24 57t-65.5 14q-70 0 -112.5 -36.5t-53.5 -108.5v6q-12 -33 -12 -115z" />
<glyph unicode="e" horiz-adv-x="909" d="M10 547q0 176 49 323q41 92 152 143.5t246 51.5q74 0 143 -16q158 -31 230.5 -149t72.5 -282q0 -27 -4 -92q-39 -10 -178 -19t-260 -9h-111v-43q2 -68 7 -99.5t28 -66.5q16 -31 43 -47.5t55 -16.5q43 0 70 46q23 39 23 110q0 13 -1 27q43 -6 91 -6q18 0 36 1l193 -10 q0 -92 -13.5 -186t-50.5 -144q-41 -57 -117.5 -78.5t-178.5 -21.5q-39 0 -109 4q-33 2 -96 2q-63 8 -127 45q-98 78 -145.5 221.5t-47.5 311.5zM354 698q0 -12 12.5 -14t61.5 0h90l62 -2h26q6 -2 8 0t2 8v8q0 43 -15 76t-42 47l-8 2q-30 19 -55 19q-72 0 -103 -33t-37 -92 q-2 -8 -2 -19z" />
<glyph unicode="f" horiz-adv-x="776" d="M-8 985h67q16 0 36 1t44 -1q-1 11 -1 21q0 105 54 210q58 117 179 164q121 41 311 41q57 0 111 -4q18 -53 18 -119q0 -68 -12 -153l-2 -25q-14 2 -47 2q-70 0 -185 -16l-30 -4h2q-12 -4 -23 -4h2q-41 -8 -41 -74q0 -12 4 -45h318q-4 -29 -4 -61v-44q0 -72 -9 -145l-2 -10 v-19l-104 7l-16 2q-102 8 -189 10v-715l-12 -10q-49 6 -80 6q-27 0 -68 -4l-10 -2q-45 -4 -78 -4q-31 0 -75 4q-10 61 -11 285l2 170v143l2 92v33q-102 0 -145 -2z" />
<glyph unicode="g" horiz-adv-x="956" d="M14 365q0 180 19.5 311t101.5 234.5t250 117.5q123 0 182 -45q0 31 11 45q72 8 145 8l35 -2h35l53 -2h63q9 -237 9 -567q0 -317 -11 -553v-59q0 -43 -4 -70t-20 -55q-51 -80 -112.5 -111t-133.5 -37q-20 -4 -55 -4l-50 2h-49l-63 2q-102 0 -188.5 45t-141.5 125 q-14 25 -22.5 65t-8.5 74q0 18 2 27q53 23 142 23q57 0 182 -17q0 -53 27.5 -85t64.5 -32q27 0 53.5 27t36.5 68v6l2 12q2 8 2 57q-2 8 -2 31q-47 -14 -149 -18q-31 0 -47 -2q-102 0 -183 30.5t-116 104.5h2q-29 57 -42.5 114.5t-19.5 129.5zM307 467q0 -104 55 -172 q43 -53 117 -53q33 0 62 10q16 6 24 35.5t15 81.5q0 219 -25 325v-2q-12 33 -35.5 48.5t-52.5 15.5q-20 0 -43 -9.5t-37 -23.5v2q-61 -68 -76 -162q-4 -20 -4 -61v-35z" />
<glyph unicode="h" horiz-adv-x="917" d="M39 975q0 391 4 520q66 -8 102 -8q35 0 68 4l35 4q68 6 71 6q49 0 52 -18q4 -57 4 -226l-2 -186v-121q2 0 1 1t1 1q49 33 113.5 52.5t127.5 19.5q135 0 209 -66q57 -51 58 -337q0 -84 -4 -256q-4 -147 -5 -211q0 -70 5 -156q-90 -13 -178 -13q-22 0 -44 1h-96 q-4 61 -4 237v103l-2 145q-2 12 -2 41q-2 61 -11.5 94t-16.5 41t-21 21q-16 10 -47 10q-37 0 -66 -26.5t-31 -88.5q-2 -31 -2 -94q0 -51 4 -150q4 -102 5 -153q0 -92 -9 -164q-54 -14 -88 -17q-20 -2 -43 -2q-15 0 -32 1q-18 2 -60 2q-47 0 -92 -4v163l-2 238q-2 164 -2 592 z" />
<glyph unicode="i" horiz-adv-x="423" d="M35 -23q10 137 10 277q0 86 -4 254q-4 139 -4 242q0 152 12 292q29 4 49 5q18 0 29 -3q95 -4 160 -4h39l63 -10q0 -106 -4 -311l-2 -115q-4 -188 -4 -282q0 -176 8 -310q-10 -14 -42 -19t-87 -5q-63 0 -88 2q-15 1 -30 1q-60 0 -105 -14zM41 1487l340 -6q0 -55 2 -92 q0 -20 4 -74l4 -131q-10 -12 -33 -13q-14 0 -38.5 3.5t-40.5 3.5q-25 0 -78 4q-20 2 -70 2q-53 0 -82 -2q0 43 -4 112l-2 33q-3 60 -3 111q0 26 1 49z" />
<glyph unicode="j" horiz-adv-x="417" d="M-291 -272q0 68 12 153v6l3 19l43 -2q86 0 164.5 18.5t107.5 57.5q2 100 2 333q0 309 6 430v289q33 -6 74 -6q27 0 72 4l24 2q49 4 78 4q33 0 78 -4q6 -61 6 -155l-2 -70v-68q-2 -47 -2 -129q0 -51 2 -69v-287q0 -279 -29 -455q-45 -106 -185 -150t-327 -44q-55 0 -108 4 q-18 53 -19 119zM35 1487l334 -6q0 -55 2 -92q4 -115 4 -179q-24 -32 -100 -32h-5q-31 0 -80 4q-18 2 -69 2q-53 0 -78 -2q0 43 -4 112l-2 33q-3 60 -3 111q0 26 1 49z" />
<glyph unicode="k" horiz-adv-x="890" d="M39 475q0 158 4 469q4 315 4 553q84 0 117 2h51l53 2l70 -4l49 -2v-504l-2 -49q-2 -33 -2 -94l-2 -25q23 25 33 45.5t16 32.5q4 6 9 17.5t12 21.5v-2q53 90 100 145q59 -20 119 -20q33 0 102 4h10q20 2 74 2q43 0 68 -2q-53 -82 -128 -183.5t-91 -121.5q-2 -2 -27 -33 l-27 -35l-73 -96q10 -18 21 -33.5t19 -27.5q20 -37 44 -68q174 -270 278 -479l-123 -4q-82 -4 -129 -4q-92 0 -135 10q-12 20 -66 121l-26 51q-23 39 -23 43l-49 96v-55l2 -66q0 -123 -14 -194q-25 2 -137 2q-61 -4 -103 -4q-41 0 -90 8q-8 213 -8 481z" />
<glyph unicode="l" horiz-adv-x="421" d="M33 1112q0 205 18 387l338 -6l-4 -365v-59l-2 -201q-4 -299 -4 -446q0 -276 8 -410q-10 -14 -42 -19t-87 -5q-63 0 -88 2q-15 1 -30 1q-61 0 -105 -14q14 197 14 365q0 123 -8 369q-8 266 -8 401z" />
<glyph unicode="m" horiz-adv-x="1400" d="M39 750q0 100 4 284q66 -8 102 -8q35 0 68 4l35 4q45 4 69 4q49 0 54 -14q4 -25 4 -72v-2q2 0 1 1t1 1q49 33 113.5 52.5t127.5 19.5q135 0 209 -66q0 -2 13 -14q2 0 0 -1t0 -3l18 12q49 33 112.5 52.5t129.5 19.5q135 0 209 -66q57 -51 57 -337q0 -84 -4 -256 q-4 -147 -4 -211q0 -70 4 -156q-90 -13 -178 -13q-22 0 -43 1h-97q-4 61 -4 237v103q0 115 -6 172q-10 106 -28.5 143t-63.5 37q-20 0 -34.5 -15.5t-22.5 -62.5q0 -86 -4 -266q-4 -135 -4 -195q0 -63 4 -141q-90 -13 -178 -13q-22 0 -44 1h-96q-4 61 -4 237v103 q0 100 -4 145q0 2 -1 7t-1 20q-4 68 -13.5 110.5t-33.5 59.5q-16 10 -47 10q-37 0 -65.5 -26.5t-31.5 -88.5q-2 -31 -2 -94q0 -51 5 -150q4 -102 4 -153q0 -92 -9 -164q-54 -14 -88 -17q-20 -2 -43 -2q-15 0 -32 1q-18 2 -60 2q-47 0 -92 -4q0 246 -2 364q-4 266 -4 404z " />
<glyph unicode="n" horiz-adv-x="921" d="M41 750q0 100 4 284q66 -8 102 -8q35 0 68 4l35 4q45 4 69 4q49 0 54 -14q4 -25 4 -72v-2q2 0 1 1t1 1q49 33 113.5 52.5t128.5 19.5q135 0 208 -66q57 -51 58 -337q0 -84 -4 -256q-4 -147 -4 -211q0 -70 4 -156q-90 -13 -178 -13q-22 0 -43 1h-97q-4 61 -4 237v103 q0 100 -4 145l-2 12v15q-4 57 -9 90t-26.5 61.5t-66.5 28.5q-33 0 -59.5 -28.5t-28.5 -86.5q-2 -31 -3 -94q0 -51 5 -150q4 -102 4 -153q0 -92 -9 -164q-54 -14 -88 -17q-20 -2 -43 -2q-15 0 -32 1q-18 2 -60 2q-47 0 -92 -4q0 246 -2 364q-4 266 -4 404z" />
<glyph unicode="o" horiz-adv-x="917" d="M18 666q-1 13 -1 29q1 51 15 131q20 104 40 118q23 57 118 88t213 31q11 -2 74 -2q12 2 51 2q25 0 35 -2q72 -4 136.5 -27.5t103.5 -62.5q59 -47 77.5 -147.5t18.5 -233.5v-68q-6 -174 -20.5 -292.5t-49.5 -159.5q-41 -57 -117.5 -80t-179.5 -23q-39 0 -108 4 q-66 4 -100 4q-109 20 -191 93q-63 61 -88 154t-25 210zM348 385q2 -45 35 -73.5t74 -28.5t82 18q12 6 30 68l2 10q12 102 13 149q0 49 -9 88q-10 53 -39.5 84t-74.5 31q-8 0 -33 -4q-51 -16 -59 -45l-9 -33q-2 -20 -4 -56t-2 -54l-2 -41q0 -51 -4 -113z" />
<glyph unicode="p" horiz-adv-x="950" d="M39 774q0 178 2 258h57l54 2l227 -4q2 -2 2 -45q39 49 106 49q35 0 78 -6q154 -14 234 -98t106.5 -202t32.5 -288q0 -154 -47 -271.5t-139 -154.5q-75 -28 -187 -28h-8q-113 0 -178 18l2 -72q2 -37 2 -98q0 -37 -4 -139q-4 -39 -6 -111q-12 -8 -67.5 -14t-119.5 -6 q-90 0 -133 12v141q0 193 -8 566q-6 233 -6 491zM371 469q0 -111 5 -154t23.5 -57t65.5 -14q70 0 113 35.5t53 103.5q6 41 9 65.5t3 49.5q0 104 -43 181t-113 77q-76 0 -96 -69t-20 -218z" />
<glyph unicode="q" horiz-adv-x="948" d="M12 440q4 164 32 285t108.5 205t230.5 98q10 2 31 2q86 0 155 -55v31q0 12 11 22q70 8 127 8q23 0 145 -4h57q2 -80 2 -258q0 -236 -6 -491q-8 -344 -8 -566v-141q-63 -12 -149 -12q-63 0 -116.5 7t-53.5 13v23q-9 69 -9 194v86l2 119q-72 -20 -178 -20q-117 0 -194 28 q-92 37 -139.5 155t-47.5 271zM307 498q0 -82 12 -115q20 -57 62.5 -98t103.5 -41q47 0 65.5 14t24 57t5.5 154q0 150 -20.5 218.5t-96.5 68.5q-70 0 -113 -77t-43 -181z" />
<glyph unicode="r" horiz-adv-x="753" d="M41 750q0 100 4 284q66 -8 102 -8q53 0 105 6q49 6 96 6q35 0 35 -6l2 -49v-2q10 2 25.5 9t29.5 11q86 27 224 27q100 0 100 -10l-2 -107l2 -276l-55 18l-119 29q-49 6 -88 6q-63 0 -96 -30q-31 -29 -31 -98v-9q8 -252 8 -549q-53 -14 -88 -17q-21 -2 -48 -2q-18 0 -40 1 q-20 2 -66 2q-49 0 -94 -4q0 246 -2 364q-4 266 -4 404z" />
<glyph unicode="s" horiz-adv-x="921" d="M-8 328q82 10 168 10l196 -4q2 -49 39 -81t82 -32q33 -1 57 25q23 24 23 63v6q1 7 1 14q0 42 -34 61q-39 22 -116 38l-31 6q-84 18 -127 37q-113 43 -175.5 124t-62.5 169q0 94 63.5 176t172.5 113q74 20 215 20q150 0 270 -29q98 -41 144.5 -132t46.5 -214l-33 -10 q-52 -8 -115 -8q-96 0 -209 22q2 8 2 27q-1 43 -27 71q-23 25 -65 25h-12q-31 -10 -50.5 -33.5t-19.5 -52.5q0 -33 18.5 -61.5t53.5 -42.5h-2q154 -23 248 -53.5t143 -94.5q55 -90 55 -180q0 -68 -32 -160q-47 -98 -153 -145q-101 -45 -232 -45h-11q-17 -1 -33 -1 q-200 0 -324 91q-134 98 -134 281z" />
<glyph unicode="t" horiz-adv-x="792" d="M-8 756l6 270q55 -2 145 -2l2 391q45 4 78 4t78 -4l14 -2q49 -4 76 -4q39 0 80 6v-373l2 -20q106 4 189 10l28 2q14 2 29.5 1t25.5 -1h48q8 -82 8 -94q0 -10 -4 -63l-2 -23l-2 -45q0 -14 4 -47h-320q0 -326 -2 -400q31 -39 111 -57t166 -18l43 2v-19l2 -8v2 q12 -86 12 -153q0 -66 -18 -119q-53 -4 -109 -4q-186 0 -326.5 44t-185.5 150q-18 111 -24.5 220.5t-6.5 250.5v103q-27 -2 -48 -1t-38 1h-61z" />
<glyph unicode="u" horiz-adv-x="921" d="M35 403q0 84 4 256q4 147 4 211q0 70 -4 156q87 13 176 13q22 0 45 -1h96q4 -61 4 -237q0 -115 5 -205q2 -27 2 -70q8 -137 49 -172q16 -8 45 -8q37 0 64.5 26.5t31.5 88.5q4 57 4 84q0 70 -6 143q-2 25 -4 73t-2 85q0 106 10 176q53 14 86 17q20 2 42 2q15 0 32 -1 q18 -2 63 -2q47 0 92 4q0 -246 3 -364q4 -266 4 -404q0 -98 -4 -282l-50 2q-43 0 -79 -2q-61 -6 -127 -6q-72 0 -72 14q-4 27 -4 72v2l-4 -2h2q-49 -33 -112.5 -52.5t-129.5 -19.5q-135 0 -209 66q-57 51 -57 337z" />
<glyph unicode="v" horiz-adv-x="878" d="M-14 1040q53 -10 118 -10q43 0 66 2l70 2q43 0 96 -6l43 -250q35 -231 63 -358q20 96 43 231q47 262 90 375l105 2q78 4 121 4q70 0 108 -4q-47 -131 -84 -276.5t-86 -374.5q-57 -262 -90 -385q-72 -12 -176 -12l-266 4q-98 598 -221 1056z" />
<glyph unicode="w" horiz-adv-x="1398" d="M-14 1040q53 -10 118 -10l64 2q20 2 61 2q39 0 82 -6h27q13 -57 29 -180q68 -426 75 -436q84 311 133 624q18 -2 54 -2l108 2q11 1 24 1q43 0 99 -11q18 -78 47 -291q33 -242 56 -321q16 55 34.5 147t24.5 121q20 98 41.5 194.5t40.5 149.5q33 0 102 4q74 4 119 4 q25 0 105 -6q-47 -131 -84 -276.5t-86 -374.5q-57 -262 -91 -385q-55 -10 -190 -10h-102q-35 2 -125 2q-12 57 -29 176l-23 141q-10 -47 -22 -137q-2 -18 -10.5 -72.5t-18.5 -99.5q-68 -10 -207 -10q-133 0 -235 2q-98 598 -221 1056z" />
<glyph unicode="x" horiz-adv-x="845" d="M-29 1026q123 8 176 8q190 0 207 -16q39 -170 66 -254q14 45 33 123q23 96 36 141q45 6 256 10q100 0 148 2q-25 -76 -76 -198q-45 -111 -70.5 -185.5t-39.5 -152.5q24 -123 79 -289q25 -74 70 -231q-57 8 -72 8l-290 10q-31 57 -52 170l-18 82q-29 -100 -82 -266h-98 l-103 -2q-88 0 -153 20q20 74 84 270q18 55 36.5 112.5t36.5 117.5q-45 188 -174 520z" />
<glyph unicode="y" horiz-adv-x="919" d="M-66 -203q0 63 13 123q74 0 96 -2q23 -2 63 -2q109 0 109 104l-2 27q-57 317 -207 864v-2q-16 41 -37 131q61 -10 113 -10l141 2q63 0 88 -4h27q20 -73 45 -237q8 -39 20 -117q41 -215 62 -289q10 16 21.5 102t23.5 185q20 180 36 273q14 87 30 87h2q66 0 100 2l108 2 l150 -4q-25 -96 -66 -276q-25 -111 -45 -189l1 3l-42 -162q-59 -250 -123.5 -406t-209 -266.5t-396.5 -110.5q-47 0 -96 4q-25 76 -25 168z" />
<glyph unicode="z" horiz-adv-x="933" d="M12 227q0 25 2 35q39 51 98.5 111.5t157.5 154.5q162 158 205 205q-274 -12 -448 -39v21q-4 61 -4 78l2 96q3 60 3 102q0 21 -1 37h335h539h19l-2 -184q0 -74 2 -99q-66 -70 -209 -208q-164 -156 -236 -236l434 12l2 -149q2 -45 2 -160q-504 -12 -895 -12q4 8 5 39 q0 27 -5 92q-6 55 -6 104z" />
<glyph unicode="{" horiz-adv-x="651" d="M-12 682q0 59 14 137q10 -2 33 -2q106 0 151 73t45 185q0 31 -4 76v-2q-4 29 -4 45q0 74 45 131t119 70l27 2q51 6 104 6l76 -4l27 -2q8 -57 8 -107q0 -33 -4 -78v-16q-45 -16 -73 -32.5t-34 -49.5q-8 -55 -4 -139q0 -6 1 -20.5t1 -45.5q0 -80 -20.5 -131t-85.5 -80 q63 -41 85.5 -106.5t18.5 -155.5l-2 -41q0 -166 119 -176v-143q0 -61 -2 -84h-29q-36 -4 -63 -4q-98 0 -171 33.5t-111 87t-34 112.5q8 61 8 101q0 119 -43 197.5t-143 72.5q-14 0 -26.5 2t-20.5 10q-8 33 -8 78z" />
<glyph unicode="|" horiz-adv-x="411" d="M61 -61v1558q102 0 287 8q0 -414 2 -788l2 -723v-62h-49q-51 1 -162 5l-57 2h-23z" />
<glyph unicode="}" horiz-adv-x="651" d="M20 219q119 10 119 176l-2 41q-4 88 19.5 153.5t89.5 108.5q-66 29 -88.5 81t-22.5 130v31l2 35q4 84 -4 139q-6 31 -34.5 48.5t-71.5 31.5q-6 43 -7 96q0 53 11 107l26 2l76 4q57 0 107 -6l26 -2q74 -12 118 -69.5t44 -131.5q0 -16 -4 -45v2q-4 -45 -4 -76 q0 -113 45 -185.5t151 -72.5q23 0 33 2q14 -104 15 -137q0 -45 -9 -78q-8 -8 -20 -10t-27 -2q-100 6 -143 -73t-43 -197q0 -39 8 -101q4 -59 -34 -112.5t-110.5 -87t-170.5 -33.5q-27 0 -64 4h-28q-3 22 -3 227z" />
<glyph unicode="~" horiz-adv-x="1167" d="M0 268q18 78 68.5 192.5t101.5 172.5q45 45 110.5 70.5t135.5 25.5q96 0 159 -43q45 -33 76 -74q6 -10 49 -57q29 -25 43 -25q37 0 70 56.5t45 109.5q57 4 103 4l55 2l37 3h34l66 4q4 -16 4 -50q0 -74 -33.5 -158.5t-83.5 -154.5q-43 -53 -118 -80q-49 -18 -113 -18 q-84 0 -152.5 37t-97.5 106l2 -2q-20 29 -37.5 43t-42.5 12q-33 0 -78 -22h3q-16 -10 -31 -45q-6 -20 -6 -39q0 -20 10 -72l-39 -4q-33 8 -174 8q-119 0 -166 -2z" />
<glyph unicode="&#xa1;" horiz-adv-x="442" d="M53 1036v43l2 37q4 115 4 187h45l23 -3h59l154 3q20 0 27.5 -16.5t7.5 -49.5q0 -25 -4 -78q-6 -57 -6 -112q-43 -18 -115 -19q-31 0 -88 4q-53 4 -109 4zM55 944q84 6 146 6q18 2 49 2l41 2h41l51 2q-2 -72 -2 -227l-4 -883h-33l-70 -6q-16 -2 -53 -6t-45 -2 q-68 0 -119 16v37q8 246 9 564q0 299 -11 495z" />
<glyph unicode="&#xa2;" horiz-adv-x="716" d="M29 590v72l2 75q2 53 2 168q-6 74 23.5 147.5t87 121t132.5 47.5l25 -2v102q6 10 25.5 17.5t44.5 7.5q39 0 63 -19q0 -2 -1 -22.5t-1 -100.5q78 0 139.5 -48t95 -121.5t33.5 -153.5q0 -53 -18 -103q-55 -8 -113 -8q-51 0 -147 18q-2 8 -2 41q-2 53 -7 83t-24 30v-22 q4 -41 4 -103q0 -35 -4 -92t-4 -94q0 -57 12 -172h9q33 0 32 43l-2 82q0 20 2 28l101 -2q92 4 145 -16q0 -35 4 -80v2q8 -49 4 -96q-12 -82 -96 -147.5t-160 -88.5q-2 -20 -2 -43v-37q0 -37 -8 -53q-12 -4 -37 -4q-39 0 -88 19q-2 12 -2 69v41q-92 0 -170 49t-88 133 q-12 100 -12 232zM287 693.5q0 -60.5 4 -122.5q0 -31 6 -62.5t22 -45.5q2 119 2.5 245t-2.5 244q-12 0 -18 -15t-8 -35.5t-2 -43t-2 -43.5q-2 -61 -2 -121.5z" />
<glyph unicode="&#xa3;" horiz-adv-x="995" d="M8 694q0 55 6 66q16 0 57.5 3t90.5 3q63 0 106 -2h15q-7 117 -7 246q0 137 4.5 244.5t10.5 125.5h51q156 0 248 17q4 -221 4 -332q0 -82 3 -176t5 -131h141h119q2 -27 2 -74q0 -37 -4 -115q-4 -61 -4 -102h-63h-107l-92 -2q-4 2 1 -48t5 -63l168 -10q201 -12 221 -16 q-4 -66 -12 -250l-2 -33l-2 -51h-199q-270 0 -370.5 5t-127.5 26q4 47 5 151q0 147 -9 299q-39 2 -66.5 0t-45.5 -2q-45 0 -69.5 -1t-37.5 -1q-25 0 -41 8q0 145 -4 215z" />
<glyph unicode="&#xa4;" horiz-adv-x="1243" d="M4 223l80 96l31 37q8 10 26.5 32t16.5 24q-18 57 -23.5 116.5t-5.5 159.5q0 207 31 316q-31 41 -80 98q-33 27 -72 82l236 200l14 -2l203 -227q25 10 58.5 13t94.5 3q90 0 170 -12l41 45l43 51l103 113l20 23l246 -207l-20 -23v2l-87 -98l-28 -31l-37 -43q31 -55 43 -117 q6 -35 6 -167q0 -180 -61 -295q121 -154 184 -185l-49 -41q-12 -4 -51 -39h2q-10 -10 -25 -20q-47 -43 -86 -66.5t-74 -17.5q-33 35 -59.5 60.5t-36.5 35.5q-49 41 -88 88q-84 -14 -184 -14q-98 0 -160 12q-2 -2 -27 -37q-61 -80 -108 -145q-41 -2 -82 24.5t-105 79.5 q-68 63 -100 76zM408 715l4 -131q0 -47 23.5 -83t62.5 -46q10 -4 40.5 -8.5t69.5 -4.5q72 0 123 21q49 33 64.5 57.5t23.5 77.5l10 68q0 27 7 47q4 41 4 59q0 41 -18.5 82t-55.5 53q-70 23 -143 23q-53 0 -129 -15q-61 -20 -78 -104q-8 -43 -8 -96z" />
<glyph unicode="&#xa5;" horiz-adv-x="1085" d="M23 578l2 45q0 29 8 73q86 10 243 11q92 0 111 4q-43 141 -111 301q-106 258 -137 420q61 -6 94 -7q55 0 91 2q49 4 84 5q25 0 41 -2q25 -4 45 -5l8 -24q12 -31 28 -88l17 -51q31 -102 51 -154q47 92 129 293l6 4t19 8q102 12 219 12q74 0 112 -8q-127 -375 -307 -700 q29 -6 76 -6l129 4v-113q0 -61 6 -98l-37 -4q-37 4 -57 4q-25 0 -107 -4q-33 -2 -100 -2l-12 -27l-8 -18q-2 -4 -3 -10.5t-10 -18.5h27l49 2l49 2h47q78 0 156 -4v-55l-2 -35v-35q0 -49 8 -82q-129 2 -424 -8q-25 -41 -36 -77t-15 -50q-14 -37 -43 -98q-68 12 -98 12h-35 l-39 -2h-16q-41 -4 -78 -4q-27 0 -80 4q8 57 47 145l25 62q-23 2 -99 2l-69 2l-2 78q0 35 2 72.5t12 64.5q74 -4 86 -4l61 2l21 2q27 0 76 4l12 37q0 4 2 6q2 6 6 13t4 12q-12 2 -28 2q-18 0 -35 -2l-33 -3h-33q-76 0 -149 21q-6 37 -6 68z" />
<glyph unicode="&#xa6;" horiz-adv-x="301" />
<glyph unicode="&#xa7;" horiz-adv-x="1775" />
<glyph unicode="&#xa8;" horiz-adv-x="714" d="M37 1159l2 43v35l2 23v20q27 8 71 14t85 6q86 0 129 -20q0 -20 -2 -33l-5 -61l-10 -129l-264 2q-8 41 -8 100zM393 1159l2 43v35l2 23v20q27 8 71 14t85 6q86 0 129 -20q0 -20 -2 -33l-4 -61l-10 -129l-265 2q-8 41 -8 100z" />
<glyph unicode="&#xa9;" horiz-adv-x="1132" d="M43 733q0 57 8 180q4 45 25.5 93.5t56.5 89.5q43 51 114.5 87t153.5 48l41 2l52 2q53 4 92 4q82 0 159 -14q102 -20 218 -90q74 -51 103.5 -131t29.5 -187q0 -41 -9.5 -138t-19.5 -169v-2q-20 -86 -106 -172q-125 -115 -437 -115q-145 0 -239 31q-92 41 -151.5 107.5 t-72.5 144.5q-18 109 -18 229zM233 774q0 -39 2.5 -67.5t4.5 -49.5q6 -61 6 -118q0 -70 58 -118t136 -54q27 -6 117 -7q53 2 109.5 14.5t70.5 14.5q66 12 108 77.5t50 143.5l8 252q-2 49 -8 79t-27 52q-27 33 -68.5 56.5t-90.5 31.5q-66 9 -152 9q-88 0 -151 -9 q-66 -6 -111 -60t-53 -116q-8 -55 -9 -131zM348 713v63l2 90q0 29 12 58q20 45 39 63q16 14 36 21.5t24 9.5q29 10 71 10q92 0 158 -55t66 -137v-21q0 -31 -6 -47q-39 -8 -72 -8q-45 0 -103 12l-2 19l-2 22q-2 20 -7 40.5t-11 23.5l-6 2q-14 0 -15 -33q-4 -53 -4 -141 q0 -49 2 -68q4 -63 23 -64q6 2 11 17.5t16 87.5h65q55 4 105 -10q2 -10 2 -31q0 -80 -52.5 -143.5t-134.5 -69.5q-74 -6 -139.5 22.5t-71.5 90.5q-6 68 -6 176z" />
<glyph unicode="&#xaa;" horiz-adv-x="565" d="M20 1239q0 109 58.5 180.5t146.5 71.5q23 0 44.5 -7t33.5 -9v4q0 12 10.5 15t34.5 3l141 -6h39q0 -4 -3 -24.5t-3 -110.5l2 -111v-45l2 -43q0 -82 -6 -153v-13q0 -18 -7 -28.5t-34 -12.5h-137q-29 6 -35 25q-53 -27 -104 -27q-90 0 -136.5 92.5t-46.5 198.5zM188 1219 q0 -54 24 -89.5t60 -35.5q37 0 45.5 28.5t8.5 98.5q0 68 -2 91t-10.5 30.5t-30.5 7.5q-35 0 -57.5 -19.5t-30.5 -54.5q-6 -25 -7 -57z" />
<glyph unicode="&#xab;" horiz-adv-x="1193" d="M-2 537q43 55 167 184t353 364q59 -35 85 -58t30 -28q55 -59 80 -75q-41 -51 -100.5 -111.5t-71.5 -75.5q-133 -137 -189 -205q74 -66 193 -184l188 -174l-31 -29l-165 -147q-72 72 -226 211q-115 102 -183.5 172t-129.5 156zM451 537q43 55 166.5 184t353.5 364 q59 -35 84.5 -58t29.5 -28q55 -59 80 -75q-41 -51 -100 -111.5t-72 -75.5q-133 -137 -188 -205q84 -76 239 -225l142 -133l-197 -176q-84 84 -176 166q-37 37 -115 106q-96 90 -148 143.5t-99 123.5z" />
<glyph unicode="&#xac;" horiz-adv-x="964" d="M10 924v53h41l414 -2h117q145 0 229 -4t109 -17l-7 -387v-63h-174v176l-2 154q-221 2 -471 9t-254 13v18z" />
<glyph unicode="&#xad;" horiz-adv-x="755" d="M43 580v53h53l271 2q131 2 348 2q-10 -59 -8 -88v-17l2 -34h-103l-368 2h-193v30z" />
<glyph unicode="&#xae;" horiz-adv-x="1132" d="M43 733q0 57 8 180q4 45 25.5 93.5t56.5 89.5q43 51 114.5 87t153.5 48l185 8q82 0 159 -14q166 -31 258.5 -135.5t92.5 -276.5q0 -61 -8.5 -132t-10.5 -89q-2 -14 -14 -73.5t-35.5 -98.5t-69.5 -84h3q-61 -61 -153.5 -83t-223.5 -28q-37 -4 -60 -4q-145 0 -239 31 q-92 41 -151.5 107.5t-72.5 144.5q-18 109 -18 229zM256 836q-2 -61 2 -174l4 -58q4 -68 11.5 -103.5t35 -64t82.5 -41.5q43 -6 90 -6l146 -2q55 0 82 2q184 10 184 209q0 20 -6 94q-2 18 -2 51q-8 133 -13.5 171t-19.5 67q-29 55 -147 80q-82 10 -154 10l-92 2 q-68 0 -112 -16.5t-69.5 -68.5t-21.5 -152zM340 1028q33 0 102 8q10 0 57.5 5.5t94.5 0.5q84 -8 141.5 -63t57.5 -127q0 -143 -144 -168l47 -59q41 -59 65.5 -101.5t43.5 -91.5h-33q-31 0 -49 -2l-35 -2l-74 4q-4 4 -11 16.5t-13 22.5q-31 70 -45 98q0 -27 4 -63l4 -62 q-63 -16 -176 -16q-10 0 -18.5 57.5t-8.5 137.5q0 123 -3 234.5t-7 170.5zM524 852q0 -31 2 -45q33 0 47 4h-2q23 8 23 43q0 27 -14 41h2q-14 8 -37 8q-14 0 -21 -2v-49z" />
<glyph unicode="&#xb0;" horiz-adv-x="610" d="M23 1096q0 70 12 110q18 51 65 85t115 46q55 4 113 4q61 0 125 -22l10 -4q47 -16 61 -35q55 -43 62 -102q4 -23 4 -93q0 -102 -47 -178t-144 -86q-55 -10 -110 -10q-74 0 -135 18l-4 2q-89 46 -107 89q-10 27 -14 61q-6 49 -6 115zM207 1018q0 -27 9 -45.5t24 -20.5 q57 -4 118 4q31 0 43 70l7 53l2 11q6 37 6 49q0 45 -23 53q-16 16 -80 16q-59 0 -75 -14q-8 -4 -17.5 -19.5t-11.5 -33.5q-2 -21 -2 -68v-55z" />
<glyph unicode="&#xb1;" horiz-adv-x="1026" d="M27 12l4 258l2 68v22h968q0 -86 -2 -124l-2 -46v-40q0 -80 11 -152q-162 0 -492 6l-459 8h-30zM61 1098q14 -2 131 2t130 8l8 256q20 -2 49 -1t57 1q43 2 139 2q78 0 123 -4l7 -250q29 -2 73 -2q113 0 172 -10q-2 -51 -2 -142q0 -104 -6 -161q-18 -10 -47 -12.5t-82 -2.5 q-100 0 -115 -8l-8 -160q-2 -10 -2 -34v-39q0 -23 -2 -29q0 -4 -20 -4l-76 2q-51 0 -146 4h-49q-74 0 -86 -6l-2 129v102q0 23 2 31q-59 2 -138 11.5t-101 23.5l2 41q0 90 -9 192v-2q-2 18 -2 62z" />
<glyph unicode="&#xb2;" horiz-adv-x="540" d="M35 676q2 25 2 84q0 51 5 87t21 62q29 31 61 53.5t81 51.5t67 45q27 18 27 65q0 27 -3 41.5t-17 14.5q-18 -6 -27.5 -40t-9.5 -73q-55 -6 -111 -6q-33 0 -86 4q-8 35 -8 70q0 41 16.5 84t42.5 75q27 27 82 43.5t111 16.5q72 0 110 -17q47 -25 76 -69.5t33 -96.5 q4 -53 4 -84q-6 -53 -37 -81.5t-92 -61.5q-57 -29 -88 -53.5t-43 -67.5q8 0 26.5 1t67.5 1h139q10 -31 11 -84q0 -39 -2 -63z" />
<glyph unicode="&#xb3;" horiz-adv-x="520" d="M27 1122v29q4 102 67.5 149.5t167.5 47.5q68 0 125 -22.5t80 -61.5q20 -41 20 -187l-2 -121q-2 -29 -2 -73q-2 -18 -5 -54t-13 -59q-33 -63 -111 -90q-43 -12 -106 -12q-25 0 -62 4q-66 8 -108 37q-29 25 -37 60.5t-10 72.5t-2 51q104 0 180 4q-2 -23 12.5 -37t32.5 -14 t27 12q8 14 8 35q0 25 -15 33q-18 18 -75 18q-29 0 -41 -4q-2 20 -2 47l2 43q0 18 -6 49q29 2 53 1t35 -1q18 0 31.5 14.5t13.5 45.5q0 41 -19 41q-33 2 -42 -7.5t-11 -24.5t-6 -26h-45l-74 -2z" />
<glyph unicode="&#xb4;" horiz-adv-x="522" d="M-20 1081q49 41 137 136q152 156 239 227l166 -174l-69 -62q-115 -96 -138 -141q-43 -6 -127 -6q-57 0 -117.5 6t-90.5 14z" />
<glyph unicode="&#xb5;" horiz-adv-x="937" d="M49 100q0 274 4 324q0 152 4 262v12q4 164 4 230q0 70 -2 98q109 16 222 12h96q4 -61 4 -237v-103q0 -100 4 -145v-14l2 -13q8 -137 49 -172q16 -8 45 -8q37 0 64.5 26.5t32.5 88.5q2 25 2 71q0 37 -5 115l-2 58q-6 80 -6 174q0 84 8 147q109 12 164 8q74 0 156 8 q0 -246 2 -364q4 -266 4 -404q0 -96 -4 -280q-39 0 -84 -4q-90 -8 -151 -8q-39 0 -65 4t-28 10q-4 29 -4 53q-39 -25 -72.5 -33t-99.5 -16l6 -266v2q2 -10 2 -60q-10 -14 -41.5 -19t-87.5 -5q-63 0 -88 2q-78 4 -133 -12v84q-2 90 -2 374z" />
<glyph unicode="&#xb6;" horiz-adv-x="1376" d="M8 1079q0 115 19 244q20 98 118 143q63 27 228 31q49 0 73 2l695 6l225 -4q0 -55 2 -96q4 -127 4 -193q-25 -33 -112 -32q-25 0 -66 4l-27 2q-2 -35 -2 -103l-2 -114q-12 -643 -12 -1026q0 -236 6 -349q-10 -14 -42 -19t-87 -5q-63 0 -88 2q-80 4 -135 -12q23 303 22 948 q0 469 7 680h-48l-49 2q-14 -760 -14 -1170q0 -305 8 -426q-10 -14 -42 -19t-87 -5q-63 0 -88 2q-80 4 -135 -12q20 219 20 653q0 147 -4 426q-20 -2 -71 -2q-109 0 -168.5 48t-124.5 167q-23 102 -23 227z" />
<glyph unicode="&#xb7;" horiz-adv-x="335" d="M43 815l246 -2q0 -55 2 -92q4 -115 4 -176q-14 -25 -41 -30t-82 -3q-6 2 -31 2q-29 0 -49 -2l-41 -2q0 43 -4 113l-2 32q-4 90 -2 160z" />
<glyph unicode="&#xb8;" horiz-adv-x="389" d="M-4 -326q53 143 80 232l33 96l280 -4q-14 -51 -53 -162l-27 -76l-16 -51q-4 -8 -4 -22h-187q-31 0 -60.5 -2t-45.5 -11z" />
<glyph unicode="&#xb9;" horiz-adv-x="382" d="M4 1118q2 27 55.5 114t63.5 95h10l80 2q49 0 109 -6q6 -76 6 -156q0 -49 -4 -139l-2 -70q-4 -139 -5 -208v-64q0 -23 -69 -22q-54 0 -105 10v90q0 59 9 178q0 51 2 74l2 78q-10 -14 -27 -15q-14 0 -69.5 14.5t-55.5 24.5z" />
<glyph unicode="&#xba;" horiz-adv-x="520" d="M23 1049q0 119 59 202.5t180 83.5q96 0 155.5 -59t74.5 -146q8 -61 8 -100q0 -143 -59.5 -249.5t-182.5 -106.5q-45 0 -90 14q-63 29 -94 79t-39 104.5t-10 136.5zM219 993q0 -39 12 -108q12 -37 23 -37q14 0 22.5 41t10.5 78q2 18 2 57q0 109 -21 133q-10 10 -14 10 q-6 0 -14 -10q-10 -14 -15 -72q-6 -51 -6 -92z" />
<glyph unicode="&#xbb;" horiz-adv-x="1193" d="M-2 174l197 -176q84 84 176 166q37 37 114 106q96 90 148.5 143.5t99.5 123.5q-43 55 -167 184t-353 364q-59 -35 -85 -58t-30 -28q-55 -59 -80 -75q41 -51 100.5 -111.5t71.5 -75.5q133 -137 189 -205q-84 -76 -240 -225zM451 174l30 -29l166 -147q72 72 225 211 q115 102 183.5 172t130.5 156q-43 55 -167 184t-353 364q-59 -35 -85 -58t-30 -28q-55 -59 -80 -75q41 -51 100.5 -111.5t71.5 -75.5q133 -137 188 -205q-74 -66 -192 -184z" />
<glyph unicode="&#xbc;" horiz-adv-x="1218" d="M10 1118q2 29 61.5 126t71.5 108h13l88 2q55 0 123 -6q6 -86 6 -177q0 -53 -4 -155l-2 -78l-2 -78q-4 -102 -5 -155v-72q0 -25 -77 -25q-63 0 -117 13v100q0 90 10 199l2 86q2 27 2 84q-12 -16 -30 -17q-14 0 -77 17.5t-63 27.5zM215 -27q63 197 147 424l17 45l43 117 q98 268 170 480t131 436q43 -14 70 -15l26 2h12q106 4 136 -20l-125 -373q-229 -690 -373 -1063l-4 2v-10q-47 -10 -121 -6q-33 2 -59.5 -1t-69.5 -18zM709 298v58q23 35 43 78q8 16 54 95t134 208l143 2q29 0 45 -4v-20q-6 -190 -6 -336v-25h11l59 -2l-4 -166q-23 0 -31 1 t-39 1q2 0 4 -3t0 -11l-4 -51q-8 -106 -10 -111q-8 -8 -34.5 -10t-67.5 -2h-70q-4 8 -4 37q0 35 8 166q-8 0 -31.5 -2t-58.5 -2q-45 0 -85 2t-46 10q-10 37 -10 87zM868 352l97 -2l6 199l-29 -60q-59 -137 -74 -137z" />
<glyph unicode="&#xbd;" horiz-adv-x="1232" d="M10 1118q2 29 61.5 126t71.5 108h13l88 2q55 0 123 -6q6 -86 6 -177q0 -53 -4 -155l-2 -78l-2 -78q-4 -102 -5 -155v-72q0 -25 -77 -25q-63 0 -117 13v100q0 90 10 199l2 86q2 27 2 84q-12 -16 -30 -17q-14 0 -77 17.5t-63 27.5zM215 -27q63 197 147 424l17 45l43 117 q98 268 170 480t131 436q43 -14 70 -15l26 2h12q106 4 136 -20l-125 -373q-229 -690 -373 -1063l-4 2v-10q-47 -10 -121 -6q-33 2 -59.5 -1t-69.5 -18zM707 -14q6 41 6 88q0 63 6 103t29 79q43 47 141 109q55 33 90 59q33 20 33 72q0 27 -12.5 48t-30.5 23 q-33 -2 -45.5 -36.5t-16.5 -92.5q-59 -10 -125 -10q-35 0 -65 8q-6 41 -6 72q0 111 61 180q29 33 84 49.5t117 16.5q78 0 121 -19q53 -27 82.5 -76t33.5 -108v-8l2 -11q0 -12 1 -38.5t-1 -38.5q-4 -61 -47 -99.5t-118 -74.5q-64 -33 -85.5 -53.5t-52.5 -80.5h72h90 q33 2 117 3q10 -25 10 -60v-18v-49q0 -16 2 -27q0 -4 -5 -5t-15 -1l-406 -6q-14 -2 -33 -2q-14 0 -21 2t-13 2z" />
<glyph unicode="&#xbe;" horiz-adv-x="1282" d="M25 1118v43v25q0 25 4 37v-2q20 68 87.5 102.5t151.5 34.5q68 0 128.5 -25.5t86.5 -66.5q6 -12 11.5 -36t5.5 -42v-137q0 -141 -2 -209v-27q-4 -61 -19 -94q-32 -73 -112 -100q-45 -12 -103 -13q-45 0 -76 6q-29 4 -43 9q-2 2 -10 2l-8 4h2q-25 6 -39 15t-16 13 q-33 29 -41 76l-4 49v4l-2 64q16 -2 39.5 0t39.5 2q25 4 50 4t37 -2q10 -25 31.5 -44t43.5 -19q23 0 39 24v-2q6 25 6 35q0 27 -18 49q-33 18 -62 18q-12 0 -57 -8q-12 29 -12 58q0 16 2 34.5t2 36.5q0 16 -2 25q23 10 70 10q37 0 56 9.5t19 41.5q0 57 -37 58 q-23 0 -48 -17.5t-33 -42.5q-25 -4 -101 -4zM283 -27q63 197 147 424l16 45l43 117q98 268 170 480t132 436q43 -14 69 -15l27 2h12q106 5 135 -20l-497 -1436l-5 2v-10q-47 -10 -120 -6q-33 2 -59.5 -1t-69.5 -18zM784 356q23 35 43 78q8 16 54.5 95t134.5 208l143 2 q29 0 45 -4v-20q-6 -190 -6 -336v-25h10l60 -2l-4 -166q-23 0 -31 1t-39 1q2 0 4 -3t0 -11l-4 -51q-8 -106 -10 -111q-8 -8 -35 -10t-68 -2h-69q-4 8 -4 37q0 35 8 166q-8 0 -31.5 -2t-58.5 -2q-45 0 -85 2t-46 10q-10 37 -10.5 87t-0.5 58zM944 352l96 -2l7 199l-29 -60 q-59 -137 -74 -137z" />
<glyph unicode="&#xbf;" horiz-adv-x="921" d="M6 172q0 131 105 260l65 76q31 31 57 65q35 49 56.5 107.5t38.5 138.5l2 6q8 25 8 39q0 12 -6 31q37 6 87 8t87 0h135q12 -12 15 -23.5t3 -31.5l-4 -80q-14 -80 -30.5 -134t-53.5 -114l2 2q-12 -23 -57 -82l-14 -18q-53 -70 -80 -116t-27 -89q0 -57 60 -80q18 -6 30 -6 q23 0 37.5 14.5t34.5 44.5q4 4 14.5 19.5t22.5 26t27 14.5q53 4 96 4q35 0 96 -4l49 -4l56 -6q-6 -111 -70 -213.5t-170.5 -167t-228.5 -64.5q-119 0 -220.5 49.5t-162 135.5t-60.5 192zM344 1038q0 16 4 74l12 154l295 -2q9 -49 9 -115l-2 -49v-41l-3 -25v-20 q-55 -25 -170 -25q-111 0 -139 15q-2 2 -4 12t-2 22z" />
<glyph unicode="&#xc0;" horiz-adv-x="888" d="M-16 0q0 10 4 48t12 85l45 258q53 317 101.5 553t125.5 498q29 4 78 4h12q133 0 261 10q25 -96 45 -189t37 -167q66 -285 88 -379l135 -727q-66 -14 -142 -14q-90 0 -196 22q-14 39 -45 164q-31 127 -49 168l-41 2l-35 -2q-8 -25 -27 -121q-14 -80 -28.5 -130t-40.5 -91 q-20 -4 -62 -4q-18 0 -80 4q-178 8 -198 8zM80 1735l168 170q55 -43 120.5 -106.5t120.5 -121.5v2l41 -41l41 -43q55 -55 56 -55q-31 -8 -91.5 -13t-117.5 -5q-80 0 -123 6q-23 33 -125 125l-14 12h2q-47 39 -78 70zM414 596h86q-45 410 -43 410l-2 20l-4 -49 q-6 -154 -19 -244z" />
<glyph unicode="&#xc1;" horiz-adv-x="888" d="M-16 0q0 10 4 48t12 85l45 258q53 317 101.5 553t125.5 498q29 4 78 4h12q133 0 261 10q25 -96 45 -189t37 -167q66 -285 88 -379l135 -727q-66 -14 -142 -14q-90 0 -196 22q-14 39 -45 164q-31 127 -49 168l-41 2l-35 -2q-8 -25 -27 -121q-14 -80 -28.5 -130t-40.5 -91 q-20 -4 -62 -4q-18 0 -80 4q-178 8 -198 8zM238 1542q49 41 137 135q152 156 239 228l166 -174l-69 -62q-115 -96 -138 -141q-43 -6 -127 -6q-57 0 -117.5 6t-90.5 14zM414 596h86q-45 410 -43 410l-2 20l-4 -49q-6 -154 -19 -244z" />
<glyph unicode="&#xc2;" horiz-adv-x="888" d="M-16 0q0 10 4 48t12 85l45 258q53 317 101.5 553t125.5 498q29 4 78 4h12q133 0 261 10q25 -96 45 -189t37 -167q66 -285 88 -379l135 -727q-66 -14 -142 -14q-90 0 -196 22q-14 39 -45 164q-31 127 -49 168l-41 2l-35 -2q-8 -25 -27 -121q-14 -80 -28.5 -130t-40.5 -91 q-20 -4 -62 -4q-18 0 -80 4q-178 8 -198 8zM86 1538q51 68 106.5 124t145.5 138l115 109l340 -355q-23 -22 -61 -26t-107 -4q-55 0 -80 4q-25 2 -43.5 17.5t-32.5 34.5t-20 28l-35 -35t-58 -43q-41 -6 -84 -6q-41 0 -77 6zM414 596h86q-45 410 -43 410l-2 20l-4 -49 q-6 -154 -19 -244z" />
<glyph unicode="&#xc3;" horiz-adv-x="888" d="M-16 0q0 10 4 48t12 85l45 258q53 317 101.5 553t125.5 498q29 4 78 4h12q133 0 261 10q25 -96 45 -189t37 -167q66 -285 88 -379l135 -727q-66 -14 -142 -14q-90 0 -196 22q-14 39 -45 164q-31 127 -49 168l-41 2l-35 -2q-8 -25 -27 -121q-14 -80 -28.5 -130t-40.5 -91 q-20 -4 -62 -4q-18 0 -80 4q-178 8 -198 8zM0 1538q20 66 58 153t77 130q35 35 86 55t105 20q72 0 125 -34q18 -12 33.5 -29.5t19.5 -22.5q31 -35 49 -49q10 -8 22 -8q25 0 48.5 39t38.5 80q55 6 176 6l49 2q2 -14 2 -41q0 -106 -59.5 -198.5t-157.5 -112.5q-29 -4 -45 -4 q-66 0 -120 27.5t-77 80.5q-23 41 -59 41q-29 0 -50.5 -26.5t-21.5 -63.5q0 -27 10 -45q-135 4 -174 4zM414 596h86q-45 410 -43 410l-2 20l-4 -49q-6 -154 -19 -244z" />
<glyph unicode="&#xc4;" horiz-adv-x="888" d="M-16 0q0 10 4 48t12 85l45 258q53 317 101.5 553t125.5 498q29 4 78 4h12q133 0 261 10q25 -96 45 -189t37 -167q66 -285 88 -379l135 -727q-66 -14 -142 -14q-90 0 -196 22q-14 39 -45 164q-31 127 -49 168l-41 2l-35 -2q-8 -25 -27 -121q-14 -80 -28.5 -130t-40.5 -91 q-20 -4 -62 -4q-18 0 -80 4q-178 8 -198 8zM104 1645l2 43v34l3 23v20q27 8 70.5 14.5t84.5 6.5q86 0 129 -21q0 -20 -2 -32l-4 -62l-10 -129l-264 2q-9 42 -9 101zM414 596h86q-45 410 -43 410l-2 20l-4 -49q-6 -154 -19 -244zM461 1645l2 43v34l2 23v20q27 8 71 14.5 t85 6.5q86 0 129 -21q0 -20 -2 -32l-5 -62l-10 -129l-264 2q-8 42 -8 101z" />
<glyph unicode="&#xc5;" horiz-adv-x="888" d="M-16 0q0 10 4 48t12 85l45 258q53 317 101.5 553t125.5 498q29 4 78 4h12q133 0 261 10q25 -96 45 -189t37 -167q66 -285 88 -379l135 -727q-66 -14 -142 -14q-90 0 -196 22q-14 39 -45 164q-31 127 -49 168l-41 2l-35 -2q-8 -25 -27 -121q-14 -80 -28.5 -130t-40.5 -91 q-20 -4 -62 -4q-18 0 -80 4q-178 8 -198 8zM223 1731q0 49 6.5 80.5t30.5 62.5q57 51 168 51q61 0 123.5 -18.5t91.5 -57.5q14 -57 14 -106q0 -88 -32 -162q-16 -33 -72.5 -43t-132.5 -10q-44 0 -62 2q-39 4 -73.5 24.5t-48.5 49.5q-8 27 -10.5 58.5t-2.5 68.5zM375 1718 q0 -72 43 -80l22 -2q41 0 56 25q12 41 12 72q0 82 -66 82q-39 0 -49 -13q-6 -10 -12 -34.5t-6 -49.5zM414 596h86q-45 410 -43 410l-2 20l-4 -49q-6 -154 -19 -244z" />
<glyph unicode="&#xc6;" horiz-adv-x="1466" d="M-29 -12q25 193 74 418t139 598q70 291 101 426q274 12 858 12q279 0 311 -4v-305q-27 -14 -85 -17.5t-187 -5.5q-168 0 -273 -10v-221q20 -4 64 -5h69q68 0 117 -12q10 -33 10 -108l-2 -97q-2 -31 -2 -88q-53 -14 -155 -14q-63 0 -92 -4l-3 -31q-4 -61 -4 -100 q0 -94 17 -117q78 -4 205 -4q209 0 327 -10q2 -33 2 -92q0 -111 -20 -199q-209 0 -299 -2q-184 -4 -283 -4q-186 0 -315 10l-60 227l-86 2q-25 -68 -41 -146.5t-18 -92.5h-104l-218 -2zM416 596l71 -6l-16 82q-14 92 -25 92q-10 0 -30 -168z" />
<glyph unicode="&#xc7;" d="M33 903q0 158 31.5 279t121.5 207q45 26 98.5 34.5t118.5 6.5h60q147 0 225 -29q125 -53 202 -176t77 -258q0 -88 -31 -152q-39 0 -59 -2l-74 -2q-74 0 -195 18q-16 41 -20 105q-6 68 -22.5 109.5t-63.5 52.5q-41 2 -70 -31t-33 -82q-8 -164 -8 -268q0 -139 12 -269v3 q12 -49 35 -88t54 -52q72 0 104 64h-2q14 33 18 123q0 35 4 75q55 0 84 2l93 2q90 0 151 -18q23 -74 23 -147q0 -106 -46.5 -202.5t-134.5 -160t-202 -76.5l-4 -18q-29 -125 -58 -225q-25 2 -61 2q-43 0 -60 -2q-18 -2 -57 -2q-27 0 -39 2q-14 0 -20 3t-6 13q0 47 28 141 q18 70 23 88q-180 -4 -237.5 151t-57.5 404l2 166q0 66 -2 101z" />
<glyph unicode="&#xc8;" horiz-adv-x="985" d="M49 899q0 281 14 522l181 6q303 12 463 13q137 0 266 -10q8 -43 8 -101q0 -31 -4 -100q-4 -66 -4 -103q-123 -27 -275 -26l-266 -2q-10 -96 -10 -160q0 -49 12 -86l135 16q29 0 86 -4l27 -2q10 -61 10 -133l-4 -164q-66 -18 -176 -18l-53 2q-14 0 -19 -4l-8 -107 q0 -84 8 -139q106 0 207 -6q35 -2 86 -4t121 -2l125 4q4 -94 4 -109q1 -104 -22 -186q-90 0 -267 -4l-268 -2q-182 0 -365 12q2 66 -6 510q-6 252 -6 387zM197 1735l168 170q55 -43 120.5 -106.5t120.5 -121.5v2l41 -41l41 -43l55 -55q-31 -8 -91 -13t-117 -5q-80 0 -123 6 q-23 33 -125 125l-15 12h2q-47 39 -77 70z" />
<glyph unicode="&#xc9;" horiz-adv-x="985" d="M49 899q0 281 14 522l181 6q303 12 463 13q137 0 266 -10q8 -43 8 -101q0 -31 -4 -100q-4 -66 -4 -103q-123 -27 -275 -26l-266 -2q-10 -96 -10 -160q0 -49 12 -86l135 16q29 0 86 -4l27 -2q10 -61 10 -133l-4 -164q-66 -18 -176 -18l-53 2q-14 0 -19 -4l-8 -107 q0 -84 8 -139q106 0 207 -6q35 -2 86 -4t121 -2l125 4q4 -94 4 -109q1 -104 -22 -186q-90 0 -267 -4l-268 -2q-182 0 -365 12q2 66 -6 510q-6 252 -6 387zM295 1542q49 41 137 135q152 156 240 228l166 -174l-70 -62q-115 -96 -137 -141q-43 -6 -127 -6q-57 0 -117.5 6 t-91.5 14z" />
<glyph unicode="&#xca;" horiz-adv-x="985" d="M49 899q0 281 14 522l181 6q303 12 463 13q137 0 266 -10q8 -43 8 -101q0 -31 -4 -100q-4 -66 -4 -103q-123 -27 -275 -26l-266 -2q-10 -96 -10 -160q0 -49 12 -86l135 16q29 0 86 -4l27 -2q10 -61 10 -133l-4 -164q-66 -18 -176 -18l-53 2q-14 0 -19 -4l-8 -107 q0 -84 8 -139q106 0 207 -6q35 -2 86 -4t121 -2l125 4q4 -94 4 -109q1 -104 -22 -186q-90 0 -267 -4l-268 -2q-182 0 -365 12q2 66 -6 510q-6 252 -6 387zM86 1538q51 68 106.5 124t145.5 138l115 109l340 -355q-23 -22 -61 -26t-107 -4q-55 0 -80 4q-25 2 -43.5 17.5 t-32.5 34.5t-20 28l-35 -35t-58 -43q-41 -6 -84 -6q-41 0 -77 6z" />
<glyph unicode="&#xcb;" horiz-adv-x="985" d="M49 899q0 281 14 522l181 6q303 12 463 13q137 0 266 -10q8 -43 8 -101q0 -31 -4 -100q-4 -66 -4 -103q-123 -27 -275 -26l-266 -2q-10 -96 -10 -160q0 -49 12 -86l135 16q29 0 86 -4l27 -2q10 -61 10 -133l-4 -164q-66 -18 -176 -18l-53 2q-14 0 -19 -4l-8 -107 q0 -84 8 -139q106 0 207 -6q35 -2 86 -4t121 -2l125 4q4 -94 4 -109q1 -104 -22 -186q-90 0 -267 -4l-268 -2q-182 0 -365 12q2 66 -6 510q-6 252 -6 387zM184 1645l2 43v34l2 23v20q27 8 71 14.5t85 6.5q86 0 129 -21q0 -20 -2 -32l-4 -62l-10 -129l-264 2q-9 42 -9 101z M541 1645l2 43v34l2 23v20q27 8 70.5 14.5t84.5 6.5q86 0 129 -21q0 -20 -2 -32l-4 -62l-10 -129l-264 2q-8 42 -8 101z" />
<glyph unicode="&#xcc;" horiz-adv-x="532" d="M-63 1735l167 170q56 -43 121.5 -106.5t120.5 -121.5v2l41 -41l41 -43l55 -55q-31 -8 -91 -13t-118 -5q-80 0 -122 6q-23 33 -125 125l-15 12h2q-47 39 -77 70zM47 1055q0 203 19 399q27 4 57 4q16 0 45 -3t68 -1q106 -6 170 -4h79v-18q0 -240 -6 -484q-8 -324 -8 -510 q0 -215 12 -428q-31 -31 -159 -30q-74 0 -109 2l-25 2l-36 2q-41 0 -105 -17q12 178 12 379q0 80 -4 236l-2 118q-8 217 -8 353z" />
<glyph unicode="&#xcd;" horiz-adv-x="530" d="M47 1055q0 203 19 399q27 4 57 4q16 0 45 -3t68 -1q106 -6 170 -4h79v-18q0 -240 -6 -484q-8 -324 -8 -510q0 -215 12 -428q-31 -31 -159 -30q-74 0 -109 2l-25 2l-36 2q-41 0 -105 -17q12 178 12 379q0 80 -4 236l-2 118q-8 217 -8 353zM88 1542q49 41 137 135 q152 156 240 228l166 -174l-70 -62q-115 -96 -137 -141q-43 -6 -127 -6q-57 0 -117.5 6t-91.5 14z" />
<glyph unicode="&#xce;" horiz-adv-x="532" d="M-88 1538q51 68 106.5 124t145.5 138l115 109l339 -355q-22 -22 -60 -26t-107 -4q-55 0 -80 4q-25 2 -43.5 17.5t-32.5 34.5t-21 28q-6 -6 -34.5 -35t-57.5 -43q-39 -6 -84 -6q-41 0 -78 6zM47 1055q0 203 19 399q27 4 57 4q16 0 45 -3t68 -1q106 -6 170 -4h79v-18 q0 -240 -6 -484q-8 -324 -8 -510q0 -215 12 -428q-31 -31 -159 -30q-74 0 -109 2l-25 2l-36 2q-41 0 -105 -17q12 178 12 379q0 80 -4 236l-2 118q-8 217 -8 353z" />
<glyph unicode="&#xcf;" horiz-adv-x="532" d="M-33 1645l2 43v34l2 23v20q27 8 71 14.5t85 6.5q86 0 129 -21q0 -20 -2 -32l-4 -62l-10 -129l-265 2q-8 42 -8 101zM47 1055q0 203 19 399q27 4 57 4q16 0 45 -3t68 -1q106 -6 170 -4h79v-18q0 -240 -6 -484q-8 -324 -8 -510q0 -215 12 -428q-31 -31 -159 -30 q-74 0 -109 2l-25 2l-36 2q-41 0 -105 -17q12 178 12 379q0 80 -4 236l-2 118q-8 217 -8 353zM324 1645l2 43v34l2 23v20q27 8 70.5 14.5t84.5 6.5q86 0 129 -21q0 -20 -2 -32l-4 -62l-10 -129l-264 2q-8 42 -8 101z" />
<glyph unicode="&#xd0;" horiz-adv-x="987" d="M-41 850l117 -2v129q2 55 2 158l-2 221q-2 18 -2 57l55 8q100 16 169 24.5t140 8.5q133 0 232.5 -41t158.5 -141q66 -111 91 -197q41 -125 49 -237q6 -55 6 -127q0 -137 -31 -265q-53 -201 -134 -312t-151 -128q-90 -16 -210 -16q-49 0 -144 4l-37 2q-127 4 -184 2 q-6 152 -10 485v62q-39 2 -107 2q0 33 -4 110l-2 33q-4 90 -2 160zM373 434q0 -82 4 -84q20 -6 51 -6q27 0 68 4q96 25 124.5 117t28.5 223q0 109 -25.5 216.5t-91.5 162.5h3q-33 16 -72 16q-27 0 -48.5 -6t-41.5 -14l2 -221q8 0 30.5 -1t90.5 -1q0 -39 4 -142l2 -141 l-129 2v-39v-86z" />
<glyph unicode="&#xd1;" horiz-adv-x="1056" d="M49 885q0 330 19 553q55 14 122 14q45 0 110 -8t89 -25q29 -53 71 -148t81 -190l82 -188q-4 143 -5 338q0 158 3 217q84 16 178 16q80 0 166 -18v-1452q-6 0 -25 -6q-20 -8 -72 -8q-10 -2 -108 6q-25 2 -63 4t-44 0l-82 182q-129 283 -170 391v-393q0 -127 2 -174 q-55 -16 -120 -16q-20 0 -62 4q-45 4 -65 4l-101 4v153q0 131 -4 373q-2 121 -2 367zM82 1538q20 66 58 153t77 130q35 35 86 55t105 20q72 0 124 -34q18 -12 34 -29.5t20 -22.5q31 -35 49 -49q10 -8 22 -8q25 0 48.5 39t37.5 80q55 6 177 6l49 2q2 -14 2 -41 q0 -106 -59.5 -198.5t-157.5 -112.5q-29 -4 -45 -4q-66 0 -120 27.5t-77 80.5q-23 41 -59 41q-29 0 -50.5 -26.5t-21.5 -63.5q0 -27 10 -45q-135 4 -174 4z" />
<glyph unicode="&#xd2;" horiz-adv-x="993" d="M27 799q0 94 6 188q6 102 35.5 199.5t91.5 171.5l45 24q131 63 287 64q98 0 185 -25.5t152 -74.5q72 -66 95 -129q25 -66 34 -132q7 -63 7 -129l-2 -36v-37q-4 -68 -5 -199q0 -145 -6 -221l-6 -68q-10 -166 -84 -282q-31 -43 -92 -76t-135 -53q-76 -23 -178 -23 q-47 0 -66 2q-100 8 -179 44t-116 106q-49 92 -53 231l-4 66q-2 16 -2 67q-10 168 -10 322zM104 1735l168 170q56 -43 121.5 -106.5t120.5 -121.5v2l41 -41l41 -43l55 -55q-31 -8 -91 -13t-118 -5q-80 0 -123 6q-23 33 -124 125l-15 12h2q-47 39 -78 70zM311 741 q0 -70 2 -104v2q8 -41 13 -109l2 -28q8 -102 22 -152v2q18 -41 54 -62.5t77 -21.5q33 0 67 15.5t58 44.5q20 27 25.5 45t5.5 57q0 35 2 51l2 27l2 39v28l2 39v99l-4 139v10l-8 107q-4 57 -27.5 101t-60.5 63q-16 6 -33 6q-49 0 -96 -33q-25 -20 -48.5 -58t-35.5 -77 q-20 -90 -21 -230z" />
<glyph unicode="&#xd3;" horiz-adv-x="993" d="M27 799q0 94 6 188q6 102 35.5 199.5t91.5 171.5l45 24q131 63 287 64q98 0 185 -25.5t152 -74.5q72 -66 95 -129q25 -66 34 -132q7 -63 7 -129l-2 -36v-37q-4 -68 -5 -199q0 -145 -6 -221l-6 -68q-10 -166 -84 -282q-31 -43 -92 -76t-135 -53q-76 -23 -178 -23 q-47 0 -66 2q-100 8 -179 44t-116 106q-49 92 -53 231l-4 66q-2 16 -2 67q-10 168 -10 322zM307 1542q49 41 137 135q152 156 240 228l166 -174l-70 -62q-115 -96 -137 -141q-43 -6 -127 -6q-57 0 -117.5 6t-91.5 14zM311 741q0 -70 2 -104v2q8 -41 13 -109l2 -28 q8 -102 22 -152v2q18 -41 54 -62.5t77 -21.5q33 0 67 15.5t58 44.5q20 27 25.5 45t5.5 57q0 35 2 51l2 27l2 39v28l2 39v99l-4 139v10l-8 107q-4 57 -27.5 101t-60.5 63q-16 6 -33 6q-49 0 -96 -33q-25 -20 -48.5 -58t-35.5 -77q-20 -90 -21 -230z" />
<glyph unicode="&#xd4;" horiz-adv-x="991" d="M27 799q0 94 6 188q6 102 35.5 199.5t91.5 171.5l45 24q131 63 287 64q98 0 185 -25.5t152 -74.5q72 -66 95 -129q25 -66 34 -132q7 -63 7 -129l-2 -36v-37q-4 -68 -5 -199q0 -145 -6 -221l-6 -68q-10 -166 -84 -282q-31 -43 -92 -76t-135 -53q-76 -23 -178 -23 q-47 0 -66 2q-100 8 -179 44t-116 106q-49 92 -53 231l-4 66q-2 16 -2 67q-10 168 -10 322zM139 1538q51 68 106.5 124t145.5 138l115 109l340 -355q-23 -22 -60.5 -26t-107.5 -4q-55 0 -80 4q-25 2 -43 17.5t-32.5 34.5t-20.5 28l-35 -35t-57 -43q-41 -6 -84 -6 q-41 0 -78 6zM311 741q0 -70 2 -104v2q8 -41 13 -109l2 -28q8 -102 22 -152v2q18 -41 54 -62.5t77 -21.5q33 0 67 15.5t58 44.5q20 27 25.5 45t5.5 57q0 35 2 51l2 27l2 39v28l2 39v99l-4 139v10l-8 107q-4 57 -27.5 101t-60.5 63q-16 6 -33 6q-49 0 -96 -33 q-25 -20 -48.5 -58t-35.5 -77q-20 -90 -21 -230z" />
<glyph unicode="&#xd5;" horiz-adv-x="991" d="M27 799q0 94 6 188q6 102 35.5 199.5t91.5 171.5l45 24q131 63 287 64q98 0 185 -25.5t152 -74.5q72 -66 95 -129q25 -66 34 -132q7 -63 7 -129l-2 -36v-37q-4 -68 -5 -199q0 -145 -6 -221l-6 -68q-10 -166 -84 -282q-31 -43 -92 -76t-135 -53q-76 -23 -178 -23 q-47 0 -66 2q-100 8 -179 44t-116 106q-49 92 -53 231l-4 66q-2 16 -2 67q-10 168 -10 322zM51 1511q20 66 58 153t77 130q35 35 86.5 55.5t104.5 20.5q72 0 125 -35q18 -12 33.5 -29.5t19.5 -21.5q31 -35 49 -49q10 -8 23 -9q25 0 48 39t38 80q55 6 176 6l49 2q2 -14 2 -41 q0 -106 -59.5 -198t-157.5 -113q-29 -4 -45 -4q-66 0 -120 27.5t-77 81.5q-23 41 -59 41q-29 0 -50.5 -27t-21.5 -64q0 -27 10 -45q-135 4 -174 5zM311 741q0 -70 2 -104v2q8 -41 13 -109l2 -28q8 -102 22 -152v2q18 -41 54 -62.5t77 -21.5q33 0 67 15.5t58 44.5 q20 27 25.5 45t5.5 57q0 35 2 51l2 27l2 39v28l2 39v99l-4 139v10l-8 107q-4 57 -27.5 101t-60.5 63q-16 6 -33 6q-49 0 -96 -33q-25 -20 -48.5 -58t-35.5 -77q-20 -90 -21 -230z" />
<glyph unicode="&#xd6;" horiz-adv-x="991" d="M27 799q0 94 6 188q6 102 35.5 199.5t91.5 171.5l45 24q131 63 287 64q98 0 185 -25.5t152 -74.5q72 -66 95 -129q25 -66 34 -132q7 -63 7 -129l-2 -36v-37q-4 -68 -5 -199q0 -145 -6 -221l-6 -68q-10 -166 -84 -282q-31 -43 -92 -76t-135 -53q-76 -23 -178 -23 q-47 0 -66 2q-100 8 -179 44t-116 106q-49 92 -53 231l-4 66q-2 16 -2 67q-10 168 -10 322zM180 1645l2 43v34l2 23v20q27 8 71 14.5t85 6.5q86 0 129 -21q0 -20 -2 -32l-4 -62l-10 -129l-265 2q-8 42 -8 101zM311 741q0 -70 2 -104v2q8 -41 13 -109l2 -28q8 -102 22 -152v2 q18 -41 54 -62.5t77 -21.5q33 0 67 15.5t58 44.5q20 27 25.5 45t5.5 57q0 35 2 51l2 27l2 39v28l2 39v99l-4 139v10l-8 107q-4 57 -27.5 101t-60.5 63q-16 6 -33 6q-49 0 -96 -33q-25 -20 -48.5 -58t-35.5 -77q-20 -90 -21 -230zM537 1645l2 43v34l2 23v20q27 8 70.5 14.5 t84.5 6.5q86 0 129 -21q0 -20 -2 -32l-4 -62l-10 -129l-264 2q-8 42 -8 101z" />
<glyph unicode="&#xd7;" horiz-adv-x="1505" d="M53 1497l1387 -4v-623q0 -581 10 -843q-2 -2 -2 -11q-2 -14 -21.5 -22t-99.5 -13.5t-252 -5.5q-393 0 -1012 19q10 231 11 412q0 184 -11 481q-12 424 -10 610zM328 338q63 146 112 291q14 43 52 131l-27 92q-29 94 -57.5 174t-77.5 182q-2 -117 -2 -368v-369v-133z M559 201l92 4l195 2q70 0 76 -6l-191 401l-41 -92q-16 -37 -26 -55q-10 -20 -48 -103.5t-57 -150.5zM580 1300q39 -119 135 -348v-2q4 -14 16 -43l43 92q86 178 131 304zM983 758q16 -82 69.5 -193.5t118.5 -214.5v78v162l-2 198l-2 390l-34 -64q-68 -133 -104 -212 t-46 -144z" />
<glyph unicode="&#xd8;" horiz-adv-x="980" d="M29 696q0 57 2 99.5t4 70.5q6 84 6 168q4 137 45 217q61 111 147 156t218 45h51q27 0 43 -2v33q0 14 92 14q53 0 87 -2t48 -2q76 0 127 -29q0 -25 -22 -73q-18 -45 -19 -66q100 -121 100 -328l-4 -204q0 -168 -6 -289t-28 -238q-25 -109 -113 -182.5t-209 -87.5 q-35 -4 -121 -4q-57 0 -88 -4q-6 -10 -31 -33q-14 -6 -155 -6q-129 0 -158 -4q-2 8 -2 30q0 51 13.5 105.5t41.5 73.5q-70 295 -69 542zM324 766q75 226 118 371q-27 -10 -51 -37t-37 -60v2q-8 -45 -12 -129zM510 287q37 14 67.5 38.5t43.5 59.5q23 98 22 197q0 51 -4 94 l-51 -152l-41 -116q-27 -86 -37 -121z" />
<glyph unicode="&#xd9;" horiz-adv-x="1034" d="M45 301q0 150 4 449l2 133q4 217 4 321q0 135 -2 199h51l123 4q100 0 176 -23q-8 -229 -8 -352q0 -297 27 -657v2q12 -41 36.5 -62.5t53.5 -21.5q33 0 61.5 26.5t38.5 67.5v-2q8 188 13 596l2 131q0 98 4 270l43 7q29 0 78 6q84 8 100 6q88 0 123 -21h16q10 -219 10 -405 q0 -354 -34 -668q-16 -141 -113.5 -236.5t-251.5 -109.5h2q-37 -4 -67 -4q-121 0 -231.5 38t-183.5 115.5t-77 190.5zM164 1735l168 170q55 -43 120.5 -106.5t120.5 -121.5v2l41 -41l41 -43q55 -55 56 -55q-31 -8 -91.5 -13t-117.5 -5q-80 0 -123 6q-23 33 -125 125l-14 12 h2q-47 39 -78 70z" />
<glyph unicode="&#xda;" horiz-adv-x="1034" d="M45 301q0 150 4 449l2 133q4 217 4 321q0 135 -2 199h51l123 4q100 0 176 -23q-8 -229 -8 -352q0 -297 27 -657v2q12 -41 36.5 -62.5t53.5 -21.5q33 0 61.5 26.5t38.5 67.5v-2q8 188 13 596l2 131q0 98 4 270l43 7q29 0 78 6q84 8 100 6q88 0 123 -21h16q10 -219 10 -405 q0 -354 -34 -668q-16 -141 -113.5 -236.5t-251.5 -109.5h2q-37 -4 -67 -4q-121 0 -231.5 38t-183.5 115.5t-77 190.5zM342 1542q49 41 137 135q152 156 240 228l166 -174l-70 -62q-115 -96 -137 -141q-43 -6 -127 -6q-57 0 -117.5 6t-91.5 14z" />
<glyph unicode="&#xdb;" horiz-adv-x="1034" d="M45 301q0 150 4 449l2 133q4 217 4 321q0 135 -2 199h51l123 4q100 0 176 -23q-8 -229 -8 -352q0 -297 27 -657v2q12 -41 36.5 -62.5t53.5 -21.5q33 0 61.5 26.5t38.5 67.5v-2q8 188 13 596l2 131q0 98 4 270l43 7q29 0 78 6q84 8 100 6q88 0 123 -21h16q10 -219 10 -405 q0 -354 -34 -668q-16 -141 -113.5 -236.5t-251.5 -109.5h2q-37 -4 -67 -4q-121 0 -231.5 38t-183.5 115.5t-77 190.5zM139 1538q51 68 106.5 124t145.5 138l115 109l340 -355q-23 -22 -60.5 -26t-107.5 -4q-55 0 -80 4q-25 2 -43 17.5t-32.5 34.5t-20.5 28l-35 -35t-57 -43 q-41 -6 -84 -6q-41 0 -78 6z" />
<glyph unicode="&#xdc;" horiz-adv-x="1034" d="M45 301q0 150 4 449l2 133q4 217 4 321q0 135 -2 199h51l123 4q100 0 176 -23q-8 -229 -8 -352q0 -297 27 -657v2q12 -41 36.5 -62.5t53.5 -21.5q33 0 61.5 26.5t38.5 67.5v-2q8 188 13 596l2 131q0 98 4 270l43 7q29 0 78 6q84 8 100 6q88 0 123 -21h16q10 -219 10 -405 q0 -354 -34 -668q-16 -141 -113.5 -236.5t-251.5 -109.5h2q-37 -4 -67 -4q-121 0 -231.5 38t-183.5 115.5t-77 190.5zM186 1645l2 43v34l2 23v20q27 8 71 14.5t85 6.5q86 0 129 -21q0 -20 -2 -32l-4 -62l-10 -129l-264 2q-9 42 -9 101zM543 1645l2 43v34l2 23v20 q27 8 71 14.5t84 6.5q86 0 129 -21q0 -20 -2 -32l-4 -62l-10 -129l-264 2q-8 42 -8 101z" />
<glyph unicode="&#xdd;" horiz-adv-x="888" d="M-12 -14q25 86 194 524l76 197q-23 92 -60.5 186t-45.5 115l-21 47q-100 231 -133 364l90 4q14 0 29.5 2t34.5 2q45 4 77 5q88 0 146 -23q43 -178 94 -301q35 70 100 221l35 82q133 14 236 14q68 0 108 -10q-43 -139 -110.5 -303t-241.5 -555q-233 -528 -252 -571 q-49 4 -72 4l-96 -2q-123 -4 -188 -2zM272 1542q49 41 138 135q152 156 239 228l166 -174l-70 -62q-115 -96 -137 -141q-43 -6 -127 -6q-57 0 -117.5 6t-91.5 14z" />
<glyph unicode="&#xde;" horiz-adv-x="978" d="M45 -31q14 244 14 498q0 123 -4 356q-4 188 -4 326q0 195 8 356l340 -6l2 -67q2 -51 2 -158q33 20 76 25.5t115 5.5q104 -2 190 -65.5t135.5 -173.5t49.5 -245q0 -123 -37 -253t-112 -218t-183 -88q-59 0 -120.5 18.5t-110.5 51.5q-1 -131 -7 -254l-2 -37q0 -14 4 -31 q-35 -35 -131 -35q-45 0 -67 2l-68 3q-59 0 -90 -11zM408 782q0 -82 5 -123t25.5 -65.5t65.5 -24.5q70 0 110.5 60.5t40.5 150.5q0 66 -12 107q-12 51 -53 87t-107 36q-39 0 -54 -13.5t-18 -54.5t-3 -160z" />
<glyph unicode="&#xdf;" horiz-adv-x="962" d="M39 481v162l2 162q2 117 2 352v266q180 51 346 52q231 0 380 -101.5t149 -333.5q0 -150 -105 -325v2q-8 -14 -2 -21q84 -102 123 -169.5t39 -155.5q0 -35 -6 -76q-31 -174 -193 -256q-55 -29 -105.5 -41t-119.5 -12l-72 4l-37 2q-16 51 -16 133q0 63 8 127q12 47 90 49 q33 6 47.5 35t14.5 70q0 43 -15.5 87t-38.5 64q-80 84 -73 170v2q14 89 82 152q47 41 57 90q4 20 4 30q0 18 -8 39q-35 78 -137 78q-51 0 -95 -12v-6q-6 -74 -6 -156q0 -68 2 -110q6 -115 9 -281l8 -360q2 -205 -51 -203q-150 0 -199 2h-10q-35 0 -66 10q-8 213 -8 479z" />
<glyph unicode="&#xe0;" d="M8 545q0 135 49 244.5t135.5 173t190.5 65.5q63 0 118.5 -10t69.5 -25q0 10 -4 26.5t2 24.5q4 4 29 5q37 0 97.5 -5.5t76.5 -7.5l129 -6h27q0 -10 3 -34.5t3 -45.5q-2 -53 -2 -159q0 -143 2 -216v-122l2 -123q0 -121 -6 -248v-21q0 -33 -8.5 -50t-42.5 -23h-261 q-47 14 -47 55v14q-51 -33 -112.5 -52t-118.5 -19q-109 0 -183.5 88t-111.5 218t-37 253zM203 1401l168 170q55 -43 120.5 -106.5t120.5 -121.5v3l41 -41l41 -43l56 -56q-31 -8 -91.5 -13t-117.5 -5q-80 0 -123 6q-23 33 -125 125l-14 12h2q-47 39 -78 70zM322 504 q0 -90 40.5 -150.5t110.5 -60.5q45 0 65.5 24.5t25.5 65.5t5 123v53q0 88 -3 120t-18.5 43t-53.5 11q-66 0 -107 -35.5t-53 -87.5q-12 -41 -12 -106z" />
<glyph unicode="&#xe1;" d="M8 545q0 135 49 244.5t135.5 173t190.5 65.5q63 0 118.5 -10t69.5 -25q0 10 -4 26.5t2 24.5q4 4 29 5q37 0 97.5 -5.5t76.5 -7.5l129 -6h27q0 -10 3 -34.5t3 -45.5q-2 -53 -2 -159q0 -143 2 -216v-122l2 -123q0 -121 -6 -248v-21q0 -33 -8.5 -50t-42.5 -23h-261 q-47 14 -47 55v14q-51 -33 -112.5 -52t-118.5 -19q-109 0 -183.5 88t-111.5 218t-37 253zM293 1208q49 41 137 135q152 156 240 228l166 -174l-70 -62q-115 -96 -137 -141q-43 -6 -127 -6q-57 0 -117.5 6t-91.5 14zM322 504q0 -90 40.5 -150.5t110.5 -60.5q45 0 65.5 24.5 t25.5 65.5t5 123v53q0 88 -3 120t-18.5 43t-53.5 11q-66 0 -107 -35.5t-53 -87.5q-12 -41 -12 -106z" />
<glyph unicode="&#xe2;" d="M8 545q0 135 49 244.5t135.5 173t190.5 65.5q63 0 118.5 -10t69.5 -25q0 10 -4 26.5t2 24.5q4 4 29 5q37 0 97.5 -5.5t76.5 -7.5l129 -6h27q0 -10 3 -34.5t3 -45.5q-2 -53 -2 -159q0 -143 2 -216v-122l2 -123q0 -121 -6 -248v-21q0 -33 -8.5 -50t-42.5 -23h-261 q-47 14 -47 55v14q-51 -33 -112.5 -52t-118.5 -19q-109 0 -183.5 88t-111.5 218t-37 253zM154 1204q51 68 106 124t146 138l114 109l340 -354q-22 -23 -60 -27t-108 -4q-55 0 -80 4q-25 2 -43 17.5t-32.5 35t-20.5 27.5q-6 -6 -34.5 -35t-57.5 -43q-41 -6 -84 -6 q-41 0 -78 6zM322 504q0 -90 40.5 -150.5t110.5 -60.5q45 0 65.5 24.5t25.5 65.5t5 123v53q0 88 -3 120t-18.5 43t-53.5 11q-66 0 -107 -35.5t-53 -87.5q-12 -41 -12 -106z" />
<glyph unicode="&#xe3;" d="M8 545q0 135 49 244.5t135.5 173t190.5 65.5q63 0 118.5 -10t69.5 -25q0 10 -4 26.5t2 24.5q4 4 29 5q37 0 97.5 -5.5t76.5 -7.5l129 -6h27q0 -10 3 -34.5t3 -45.5q-2 -53 -2 -159q0 -143 2 -216v-122l2 -123q0 -121 -6 -248v-21q0 -33 -8.5 -50t-42.5 -23h-261 q-47 14 -47 55v14q-51 -33 -112.5 -52t-118.5 -19q-109 0 -183.5 88t-111.5 218t-37 253zM66 1196q20 66 58 153t77 130q35 35 86 55t104 20q72 0 125 -34q18 -12 33.5 -29.5t19.5 -22.5q31 -35 49 -49q10 -8 23 -8q25 0 48.5 39t37.5 80q55 6 176 6l49 2q2 -14 2 -41 q0 -106 -59 -198.5t-158 -112.5q-29 -4 -45 -4q-66 0 -120 27.5t-76 80.5q-23 41 -60 41q-29 0 -50 -26.5t-21 -63.5q0 -27 10 -45q-135 4 -174 4zM322 504q0 -90 40.5 -150.5t110.5 -60.5q45 0 65.5 24.5t25.5 65.5t5 123v53q0 88 -3 120t-18.5 43t-53.5 11 q-66 0 -107 -35.5t-53 -87.5q-12 -41 -12 -106z" />
<glyph unicode="&#xe4;" d="M8 545q0 135 49 244.5t135.5 173t190.5 65.5q63 0 118.5 -10t69.5 -25q0 10 -4 26.5t2 24.5q4 4 29 5q37 0 97.5 -5.5t76.5 -7.5l129 -6h27q0 -10 3 -34.5t3 -45.5q-2 -53 -2 -159q0 -143 2 -216v-122l2 -123q0 -121 -6 -248v-21q0 -33 -8.5 -50t-42.5 -23h-261 q-47 14 -47 55v14q-51 -33 -112.5 -52t-118.5 -19q-109 0 -183.5 88t-111.5 218t-37 253zM205 1567l340 -6q0 -56 2 -93q4 -115 4 -178q-25 -33 -109 -33q-25 0 -77 5q-20 2 -70 2q-53 0 -82 -2q0 43 -4 112l-2 33q-4 90 -2 160zM322 504q0 -90 40.5 -150.5t110.5 -60.5 q45 0 65.5 24.5t25.5 65.5t5 123v53q0 88 -3 120t-18.5 43t-53.5 11q-66 0 -107 -35.5t-53 -87.5q-12 -41 -12 -106zM582 1567l340 -6q0 -56 2 -93q4 -115 4 -178q-25 -33 -109 -33q-25 0 -78 5q-20 2 -69 2q-53 0 -82 -2q0 43 -4 112l-2 33q-4 90 -2 160z" />
<glyph unicode="&#xe5;" d="M8 545q0 135 49 244.5t135.5 173t190.5 65.5q63 0 118.5 -10t69.5 -25q0 10 -4 26.5t2 24.5q4 4 29 5q37 0 97.5 -5.5t76.5 -7.5l129 -6h27q0 -10 3 -34.5t3 -45.5q-2 -53 -2 -159q0 -143 2 -216v-122l2 -123q0 -121 -6 -248v-21q0 -33 -8.5 -50t-42.5 -23h-261 q-47 14 -47 55v14q-51 -33 -112.5 -52t-118.5 -19q-109 0 -183.5 88t-111.5 218t-37 253zM295 1356q0 55 12 104l25 39q57 51 168 51q61 0 123.5 -18.5t91.5 -56.5q14 -57 14 -107q0 -88 -33 -162l-2 4q-29 -49 -141 -53q-18 -4 -61 -4t-62 2q-39 4 -73.5 24.5t-49.5 49.5 q-12 74 -12 127zM322 504q0 -90 40.5 -150.5t110.5 -60.5q45 0 65.5 24.5t25.5 65.5t5 123v53q0 88 -3 120t-18.5 43t-53.5 11q-66 0 -107 -35.5t-53 -87.5q-12 -41 -12 -106zM449 1356q0 -63 12 -76h-2q20 -16 30 -16h31q18 2 29.5 6t17.5 18v-2q10 37 11 78 q0 16 -3.5 35.5t-5.5 21.5l2 -8q-27 27 -57 27q-16 0 -43 -10q-8 -8 -18 -37v4l-2 -13q-2 -10 -2 -28z" />
<glyph unicode="&#xe6;" horiz-adv-x="1439" d="M-12 289q0 92 61 194q39 59 125 91t191 32q92 0 176 -26q0 18 -1 56t-5 89q-8 39 -32 59.5t-54 20.5q-39 0 -69 -33t-30 -84q-78 -16 -184 -16q-80 0 -131 26q-2 10 -2 31q0 92 62.5 155.5t160.5 95.5t207 32q80 0 149.5 -16.5t112.5 -47.5q109 82 285 82q68 0 137 -16 q147 -33 217 -142.5t70 -257.5q0 -27 -4 -92q-37 -12 -183.5 -20t-335.5 -8v-39q2 -64 6.5 -90.5t18.5 -51.5q20 -35 49 -55t55 -20q37 0 61.5 43t20.5 129q57 -8 121 -4h43l43 2q53 0 98 -13q-4 -29 -4 -45q-8 -109 -19 -175t-38 -93q-70 -92 -276 -92q-37 0 -107 4 q-31 2 -92 2q-53 8 -102.5 34.5t-81.5 61.5l-84 -57q-104 -61 -238 -62q-104 0 -195.5 40t-146.5 112t-55 164zM268 297q0 -35 19.5 -58.5t62.5 -29.5h-2q41 -6 62 -6q61 0 89.5 32.5t28.5 77.5q0 27 -8 50.5t-18 35.5q-68 31 -107 31q-47 0 -96 -43h2q-12 -12 -22.5 -37.5 t-10.5 -52.5zM915 682q0 -10 11.5 -12t54.5 0h88q55 0 92 -4l-1 2t-1 4q0 47 -14.5 80.5t-40.5 46.5q-41 18 -55 18q-66 0 -94.5 -30.5t-36.5 -86.5q-2 -8 -3 -18z" />
<glyph unicode="&#xe7;" horiz-adv-x="907" d="M18 668q0 162 45 266q29 61 125.5 93t214.5 32q10 -2 74 -2q12 2 51 2q25 0 35 -2q162 -14 242 -88q51 -41 68.5 -118t21.5 -210v-23l2 -30q-63 -12 -106 -13q-49 0 -168 15l-45 6q-10 59 -41 95t-78 36q-12 0 -33 -4h2q-29 -10 -45 -29q-16 -16 -23 -49q-8 -57 -8 -149 l-2 -70q-2 -23 -2 -55q0 -47 32 -71t79 -24q39 0 76 21q10 12 21 46t17 69q61 -8 127 -4h45l46 2q47 0 102 -13q-4 -41 -4 -59q-10 -111 -20.5 -167t-41.5 -108q-33 -49 -86 -70.5t-139 -27.5l-27 -80l-12 -35l-53 -163h-184q-31 0 -60.5 -2t-46.5 -11q47 125 66 189 q12 43 20 57q6 14 10 29.5t9 21.5q-113 20 -191 92q-63 61 -86.5 153.5t-23.5 207.5v63l-3 93q-2 29 -2 88z" />
<glyph unicode="&#xe8;" horiz-adv-x="909" d="M10 547q0 176 49 323q41 92 152 143.5t246 51.5q74 0 143 -16q158 -31 230.5 -149t72.5 -282q0 -27 -4 -92q-39 -10 -178 -19t-260 -9h-111v-43q2 -68 7 -99.5t28 -66.5q16 -31 43 -47.5t55 -16.5q43 0 70 46t22 137q59 -8 127 -5l193 -10q0 -92 -13.5 -186t-50.5 -144 q-41 -57 -117.5 -78.5t-178.5 -21.5q-39 0 -109 4q-33 2 -96 2q-63 8 -127 45q-98 78 -145.5 221.5t-47.5 311.5zM158 1401l168 170q55 -43 120.5 -106.5t120.5 -121.5v3l41 -41l41 -43l56 -56q-31 -8 -91.5 -13t-117.5 -5q-80 0 -123 6q-23 33 -125 125l-15 12h3 q-47 39 -78 70zM354 698q0 -12 12.5 -14t61.5 0h90l62 -2h26q6 -2 8 0t2 8v8q0 43 -15 76t-42 47l-8 2q-30 19 -55 19q-72 0 -103 -33t-37 -92q-2 -8 -2 -19z" />
<glyph unicode="&#xe9;" horiz-adv-x="909" d="M10 547q0 176 49 323q41 92 152 143.5t246 51.5q74 0 143 -16q158 -31 230.5 -149t72.5 -282q0 -27 -4 -92q-39 -10 -178 -19t-260 -9h-111v-43q2 -68 7 -99.5t28 -66.5q16 -31 43 -47.5t55 -16.5q43 0 70 46t22 137q59 -8 127 -5l193 -10q0 -92 -13.5 -186t-50.5 -144 q-41 -57 -117.5 -78.5t-178.5 -21.5q-39 0 -109 4q-33 2 -96 2q-63 8 -127 45q-98 78 -145.5 221.5t-47.5 311.5zM262 1208q49 41 137 135q152 156 240 228l166 -174l-70 -62q-115 -96 -137 -141q-43 -6 -127 -6q-57 0 -117.5 6t-91.5 14zM354 698q0 -12 12.5 -14t61.5 0h90 l62 -2h26q6 -2 8 0t2 8v8q0 43 -15 76t-42 47l-8 2q-30 19 -55 19q-72 0 -103 -33t-37 -92q-2 -8 -2 -19z" />
<glyph unicode="&#xea;" horiz-adv-x="909" d="M10 547q0 176 49 323q41 92 152 143.5t246 51.5q74 0 143 -16q158 -31 230.5 -149t72.5 -282q0 -27 -4 -92q-39 -10 -178 -19t-260 -9h-111v-43q2 -68 7 -99.5t28 -66.5q16 -31 43 -47.5t55 -16.5q43 0 70 46t22 137q59 -8 127 -5l193 -10q0 -92 -13.5 -186t-50.5 -144 q-41 -57 -117.5 -78.5t-178.5 -21.5q-39 0 -109 4q-33 2 -96 2q-63 8 -127 45q-98 78 -145.5 221.5t-47.5 311.5zM115 1204q51 68 106 124t146 138l114 109l340 -354q-22 -23 -60 -27t-108 -4q-55 0 -80 4q-25 2 -43 17.5t-32.5 35t-20.5 27.5q-6 -6 -34.5 -35t-57.5 -43 q-41 -6 -84 -6q-41 0 -78 6zM354 698q0 -12 12.5 -14t61.5 0h90l62 -2h26q6 -2 8 0t2 8v8q0 43 -15 76t-42 47l-8 2q-30 19 -55 19q-72 0 -103 -33t-37 -92q-2 -8 -2 -19z" />
<glyph unicode="&#xeb;" horiz-adv-x="909" d="M10 547q0 176 49 323q41 92 152 143.5t246 51.5q74 0 143 -16q158 -31 230.5 -149t72.5 -282q0 -27 -4 -92q-39 -10 -178 -19t-260 -9h-111v-43q2 -68 7 -99.5t28 -66.5q16 -31 43 -47.5t55 -16.5q43 0 70 46t22 137q59 -8 127 -5l193 -10q0 -92 -13.5 -186t-50.5 -144 q-41 -57 -117.5 -78.5t-178.5 -21.5q-39 0 -109 4q-33 2 -96 2q-63 8 -127 45q-98 78 -145.5 221.5t-47.5 311.5zM96 1567l340 -6q0 -56 2 -93q4 -115 4 -178q-25 -33 -108 -33q-25 0 -78 5q-20 2 -70 2q-53 0 -82 -2q0 43 -4 112l-2 33q-4 90 -2 160zM354 698 q0 -12 12.5 -14t61.5 0h90l62 -2h26q6 -2 8 0t2 8v8q0 43 -15 76t-42 47l-8 2q-30 19 -55 19q-72 0 -103 -33t-37 -92q-2 -8 -2 -19zM473 1567l340 -6q0 -56 2 -93q4 -115 4 -178q-25 -33 -108 -33q-25 0 -78 5q-20 2 -70 2q-53 0 -82 -2q0 43 -4 112l-2 33q-4 90 -2 160z " />
<glyph unicode="&#xec;" horiz-adv-x="423" d="M-145 1401l168 170q55 -43 120.5 -106.5t120.5 -121.5v3l41 -41l41 -43q55 -55 55 -56q-31 -8 -91 -13t-117 -5q-80 0 -123 6q-23 33 -125 125l-15 12h2q-47 39 -77 70zM35 -23q10 137 10 277q0 86 -4 254q-4 139 -4 242q0 152 12 292q29 4 49 5q18 0 29 -3 q127 -6 199 -4l63 -10q0 -106 -4 -311l-2 -115q-4 -188 -4 -282q0 -176 8 -310q-10 -14 -42 -19t-87 -5q-63 0 -88 2q-80 4 -135 -13z" />
<glyph unicode="&#xed;" horiz-adv-x="423" d="M23 1208q49 41 137 135q152 156 239 228l166 -174l-69 -62q-115 -96 -138 -141q-43 -6 -127 -6q-57 0 -117.5 6t-90.5 14zM35 -23q10 137 10 277q0 86 -4 254q-4 139 -4 242q0 152 12 292q29 4 49 5q18 0 29 -3q127 -6 199 -4l63 -10q0 -106 -4 -311l-2 -115 q-4 -188 -4 -282q0 -176 8 -310q-10 -14 -42 -19t-87 -5q-63 0 -88 2q-80 4 -135 -13z" />
<glyph unicode="&#xee;" horiz-adv-x="423" d="M-147 1204q51 68 106 124t145 138l115 109l340 -354q-22 -23 -60 -27t-108 -4q-55 0 -80 4q-25 2 -43 17.5t-32.5 35t-20.5 27.5q-6 -6 -34.5 -35t-57.5 -43q-39 -6 -84 -6q-41 0 -78 6zM35 -23q10 137 10 277q0 86 -4 254q-4 139 -4 242q0 152 12 292q29 4 49 5 q18 0 29 -3q127 -6 199 -4l63 -10q0 -106 -4 -311l-2 -115q-4 -188 -4 -282q0 -176 8 -310q-10 -14 -42 -19t-87 -5q-63 0 -88 2q-80 4 -135 -13z" />
<glyph unicode="&#xef;" horiz-adv-x="423" d="M-143 1567l340 -6q0 -56 2 -93q4 -115 4 -178q-25 -33 -109 -33q-25 0 -78 5q-20 2 -69 2q-53 0 -82 -2q0 43 -4 112l-2 33q-4 90 -2 160zM35 -23q10 137 10 277q0 86 -4 254q-4 139 -4 242q0 152 12 292q29 4 49 5q18 0 29 -3q127 -6 199 -4l63 -10q0 -106 -4 -311 l-2 -115q-4 -188 -4 -282q0 -176 8 -310q-10 -14 -42 -19t-87 -5q-63 0 -88 2q-80 4 -135 -13zM233 1567l340 -6q0 -56 2 -93q4 -115 5 -178q-25 -33 -109 -33q-25 0 -78 5q-20 2 -69 2q-53 0 -82 -2q0 43 -4 112l-2 33q-4 90 -3 160z" />
<glyph unicode="&#xf0;" horiz-adv-x="1087" d="M6 473q0 205 76 317.5t262 135.5q57 6 109 6q113 0 194 -29q-2 18 -4 62.5t-12 89.5q-33 154 -107 225q-260 -176 -329 -219q-8 23 -29 43t-53 43q-23 18 -44.5 37.5t-31.5 40.5l11 11t26 21l194 142q-33 6 -59.5 22.5t-44.5 26.5l-96 49l-37 19q-2 2 70.5 63t144 109.5 t92.5 40.5q45 -18 115 -60q57 -37 112 -57q31 22 41 30q8 6 55.5 40t143.5 92q47 -68 84 -88l6 -3q72 -37 109 -79q-4 -2 -105 -64l-88 -55q35 -33 69.5 -76t55.5 -80q51 -98 74.5 -219t46.5 -313q16 -141 16 -260q0 -528 -428 -590q-45 -6 -104 -6q-129 0 -243 43 t-190.5 127t-95.5 204q-6 43 -6 158zM328 469q0 -12 4 -41l4 -31q24 -63 93 -96t138 -29q70 8 108 43t38 95q0 18 -2 28q-10 90 -97.5 137.5t-177.5 49.5q-53 -12 -80.5 -54.5t-27.5 -101.5z" />
<glyph unicode="&#xf1;" horiz-adv-x="921" d="M20 1196q20 66 58.5 153t77.5 130q35 35 86 55t104 20q72 0 125 -34q18 -12 33.5 -29.5t19.5 -22.5q31 -35 49 -49q10 -8 23 -8q25 0 48.5 39t37.5 80q55 6 176 6l49 2q2 -14 2 -41q0 -106 -59 -198.5t-158 -112.5q-29 -4 -45 -4q-66 0 -120 27.5t-76 80.5q-23 41 -60 41 q-29 0 -50.5 -26.5t-21.5 -63.5q0 -27 11 -45q-135 4 -174 4zM41 750q0 100 4 284q66 -8 102 -8q35 0 68 4l35 4q45 4 69 4q49 0 54 -14q4 -25 4 -72v-2q2 0 1 1t1 1q49 33 113.5 52.5t128.5 19.5q135 0 208 -66q57 -51 58 -337q0 -84 -4 -256q-4 -147 -4 -211q0 -70 4 -156 q-113 -16 -221 -12h-97q-4 61 -4 237v103q0 100 -4 145l-2 12v15q-4 57 -9 90t-26.5 61.5t-66.5 28.5q-33 0 -59.5 -28.5t-28.5 -86.5q-2 -31 -3 -94q0 -51 5 -150q4 -102 4 -153q0 -92 -9 -164q-55 -14 -88.5 -17t-74.5 -1q-18 2 -60 2q-47 0 -92 -4q0 246 -2 364 q-4 266 -4 404z" />
<glyph unicode="&#xf2;" horiz-adv-x="917" d="M18 666q-6 55 13.5 159.5t40.5 118.5q23 57 118 88t213 31q11 -2 74 -2q12 2 51 2q25 0 35 -2q72 -4 136.5 -27.5t103.5 -62.5q59 -47 77.5 -147.5t18.5 -233.5v-68q-6 -174 -20.5 -292.5t-49.5 -159.5q-41 -57 -117.5 -80t-179.5 -23q-39 0 -108 4q-66 4 -100 4 q-109 20 -191 93q-63 61 -88 154t-25 210zM131 1401l168 170q55 -43 120.5 -106.5t121.5 -121.5v3l41 -41l41 -43q55 -55 55 -56q-31 -8 -91.5 -13t-117.5 -5q-80 0 -123 6q-23 33 -125 125l-14 12h2q-47 39 -78 70zM348 385q2 -45 35 -73.5t74 -28.5t82 18q12 6 30 68l2 10 q12 102 13 149q0 49 -9 88q-10 53 -39.5 84t-74.5 31q-8 0 -33 -4q-51 -16 -59 -45l-9 -33q-2 -20 -4 -56t-2 -54l-2 -41q0 -51 -4 -113z" />
<glyph unicode="&#xf3;" horiz-adv-x="917" d="M18 666q-6 55 13.5 159.5t40.5 118.5q23 57 118 88t213 31q11 -2 74 -2q12 2 51 2q25 0 35 -2q72 -4 136.5 -27.5t103.5 -62.5q59 -47 77.5 -147.5t18.5 -233.5v-68q-6 -174 -20.5 -292.5t-49.5 -159.5q-41 -57 -117.5 -80t-179.5 -23q-39 0 -108 4q-66 4 -100 4 q-109 20 -191 93q-63 61 -88 154t-25 210zM262 1208q49 41 137 135q152 156 240 228l166 -174l-70 -62q-115 -96 -137 -141q-43 -6 -127 -6q-57 0 -117.5 6t-91.5 14zM348 385q2 -45 35 -73.5t74 -28.5t82 18q12 6 30 68l2 10q12 102 13 149q0 49 -9 88q-10 53 -39.5 84 t-74.5 31q-8 0 -33 -4q-51 -16 -59 -45l-9 -33q-2 -20 -4 -56t-2 -54l-2 -41q0 -51 -4 -113z" />
<glyph unicode="&#xf4;" horiz-adv-x="917" d="M18 666q-6 55 13.5 159.5t40.5 118.5q23 57 118 88t213 31q11 -2 74 -2q12 2 51 2q25 0 35 -2q72 -4 136.5 -27.5t103.5 -62.5q59 -47 77.5 -147.5t18.5 -233.5v-68q-6 -174 -20.5 -292.5t-49.5 -159.5q-41 -57 -117.5 -80t-179.5 -23q-39 0 -108 4q-66 4 -100 4 q-109 20 -191 93q-63 61 -88 154t-25 210zM115 1204q51 68 106 124t146 138l114 109l340 -354q-22 -23 -60 -27t-108 -4q-55 0 -80 4q-25 2 -43 17.5t-32.5 35t-20.5 27.5q-6 -6 -34.5 -35t-57.5 -43q-41 -6 -84 -6q-41 0 -78 6zM348 385q2 -45 35 -73.5t74 -28.5t82 18 q12 6 30 68l2 10q12 102 13 149q0 49 -9 88q-10 53 -39.5 84t-74.5 31q-8 0 -33 -4q-51 -16 -59 -45l-9 -33q-2 -20 -4 -56t-2 -54l-2 -41q0 -51 -4 -113z" />
<glyph unicode="&#xf5;" horiz-adv-x="917" d="M8 1196q20 66 58 153t77 130q35 35 86.5 55t104.5 20q72 0 125 -34q18 -12 33.5 -29.5t19.5 -22.5q31 -35 49 -49q10 -8 23 -8q25 0 48 39t38 80q55 6 176 6l49 2q2 -14 2 -41q0 -106 -59.5 -198.5t-157.5 -112.5q-29 -4 -45 -4q-66 0 -120 27.5t-77 80.5q-23 41 -59 41 q-29 0 -50.5 -26.5t-21.5 -63.5q0 -27 10 -45q-135 4 -174 4zM18 666q-6 55 13.5 159.5t40.5 118.5q23 57 118 88t213 31q11 -2 74 -2q12 2 51 2q25 0 35 -2q72 -4 136.5 -27.5t103.5 -62.5q59 -47 77.5 -147.5t18.5 -233.5v-68q-6 -174 -20.5 -292.5t-49.5 -159.5 q-41 -57 -117.5 -80t-179.5 -23q-39 0 -108 4q-66 4 -100 4q-109 20 -191 93q-63 61 -88 154t-25 210zM348 385q2 -45 35 -73.5t74 -28.5t82 18q12 6 30 68l2 10q12 102 13 149q0 49 -9 88q-10 53 -39.5 84t-74.5 31q-8 0 -33 -4q-51 -16 -59 -45l-9 -33q-2 -20 -4 -56 t-2 -54l-2 -41q0 -51 -4 -113z" />
<glyph unicode="&#xf6;" horiz-adv-x="917" d="M18 666q-6 55 13.5 159.5t40.5 118.5q23 57 118 88t213 31q11 -2 74 -2q12 2 51 2q25 0 35 -2q72 -4 136.5 -27.5t103.5 -62.5q59 -47 77.5 -147.5t18.5 -233.5v-68q-6 -174 -20.5 -292.5t-49.5 -159.5q-41 -57 -117.5 -80t-179.5 -23q-39 0 -108 4q-66 4 -100 4 q-109 20 -191 93q-63 61 -88 154t-25 210zM88 1567l340 -6q0 -56 2 -93q4 -115 4 -178q-25 -33 -108 -33q-25 0 -78 5q-20 2 -70 2q-53 0 -82 -2q0 43 -4 112l-2 33q-4 90 -2 160zM348 385q2 -45 35 -73.5t74 -28.5t82 18q12 6 30 68l2 10q12 102 13 149q0 49 -9 88 q-10 53 -39.5 84t-74.5 31q-8 0 -33 -4q-51 -16 -59 -45l-9 -33q-2 -20 -4 -56t-2 -54l-2 -41q0 -51 -4 -113zM465 1567l340 -6q0 -56 2 -93q4 -115 4 -178q-25 -33 -109 -33q-25 0 -77 5q-20 2 -70 2q-53 0 -82 -2q0 43 -4 112l-2 33q-4 90 -2 160z" />
<glyph unicode="&#xf7;" horiz-adv-x="954" d="M14 340q0 131 2 190l2 48v20h920q0 -72 -2 -96l-2 -35v-33q0 -49 8 -104l-465 4l-184 2q-135 0 -180 2l-68 2h-31zM307 106l2 50l2 65v21q55 25 170 24q111 0 140 -14q2 -2 4 -12.5t2 -22.5q0 -16 -4 -74l-13 -153l-295 2q-8 48 -8 114zM307 795l2 49q0 35 1 53t1 33 q55 25 170 24q111 0 140 -14q2 -2 4 -12t2 -23q0 -16 -4 -74l-13 -153l-295 2q-8 49 -8 115z" />
<glyph unicode="&#xf8;" horiz-adv-x="718" d="M18 469q0 59 9 186q4 41 4 64q2 47 7 81t23 68h-2q20 47 58 84q86 63 211 64h30q18 0 29 -2q0 29 49 28q29 -4 43 -4l82 2q61 0 96 -20q0 -12 -8 -33v2q-23 -49 -20 -67q72 -88 71 -230q0 -37 -4 -82v-53q0 -131 -4 -217t-18 -174q-20 -80 -86 -133t-154 -62 q-53 -4 -86 -4h-24l-25 -2l-23 -20q-37 -10 -94 -11h-35l-36 3h-80q-6 12 3 49t23 71q4 8 6 23q-45 205 -45 389zM184 307q0 -47 113 395q-51 -39 -84 -118q-19 -115 -27 -254q-2 -8 -2 -23zM369 207q33 16 59.5 44t38.5 58q27 104 27 215q0 37 -7 37q-12 0 -37.5 -87 t-29.5 -101q-6 -18 -39 -133q-2 -8 -5 -14.5t-7 -18.5z" />
<glyph unicode="&#xf9;" horiz-adv-x="921" d="M35 403q0 84 4 256q4 147 4 211q0 70 -4 156q109 16 221 12h96q4 -61 4 -237q0 -115 5 -205q2 -27 2 -70q8 -137 49 -172q16 -8 45 -8q37 0 64.5 26.5t31.5 88.5q4 57 4 84q0 70 -6 143q-2 25 -4 73t-2 85q0 106 10 176q53 14 86 17t74 1q18 -2 63 -2q47 0 92 4 q0 -246 3 -364q4 -266 4 -404q0 -98 -4 -282l-50 2q-43 0 -79 -2q-61 -6 -127 -6q-72 0 -72 14q-4 27 -4 72v2l-4 -2h2q-49 -33 -112.5 -52.5t-129.5 -19.5q-135 0 -209 66q-57 51 -57 337zM129 1401l168 170q55 -43 120.5 -106.5t121.5 -121.5v3l41 -41l41 -43 q55 -55 55 -56q-31 -8 -91.5 -13t-117.5 -5q-80 0 -123 6q-23 33 -125 125l-14 12h2q-47 39 -78 70z" />
<glyph unicode="&#xfa;" horiz-adv-x="919" d="M35 403q0 84 4 256q4 147 4 211q0 70 -4 156q109 16 221 12h96q4 -61 4 -237q0 -115 5 -205q2 -27 2 -70q8 -137 49 -172q16 -8 45 -8q37 0 64.5 26.5t31.5 88.5q4 57 4 84q0 70 -6 143q-2 25 -4 73t-2 85q0 106 10 176q53 14 86 17t74 1q18 -2 63 -2q47 0 92 4 q0 -246 3 -364q4 -266 4 -404q0 -98 -4 -282l-50 2q-43 0 -79 -2q-61 -6 -127 -6q-72 0 -72 14q-4 27 -4 72v2l-4 -2h2q-49 -33 -112.5 -52.5t-129.5 -19.5q-135 0 -209 66q-57 51 -57 337zM260 1208q49 41 137 135q152 156 240 228l166 -174l-70 -62q-115 -96 -137 -141 q-43 -6 -127 -6q-57 0 -117.5 6t-91.5 14z" />
<glyph unicode="&#xfb;" horiz-adv-x="921" d="M35 403q0 84 4 256q4 147 4 211q0 70 -4 156q109 16 221 12h96q4 -61 4 -237q0 -115 5 -205q2 -27 2 -70q8 -137 49 -172q16 -8 45 -8q37 0 64.5 26.5t31.5 88.5q4 57 4 84q0 70 -6 143q-2 25 -4 73t-2 85q0 106 10 176q53 14 86 17t74 1q18 -2 63 -2q47 0 92 4 q0 -246 3 -364q4 -266 4 -404q0 -98 -4 -282l-50 2q-43 0 -79 -2q-61 -6 -127 -6q-72 0 -72 14q-4 27 -4 72v2l-4 -2h2q-49 -33 -112.5 -52.5t-129.5 -19.5q-135 0 -209 66q-57 51 -57 337zM115 1204q51 68 106 124t146 138l114 109l340 -354q-22 -23 -60 -27t-108 -4 q-55 0 -80 4q-25 2 -43 17.5t-32.5 35t-20.5 27.5q-6 -6 -34.5 -35t-57.5 -43q-41 -6 -84 -6q-41 0 -78 6z" />
<glyph unicode="&#xfc;" horiz-adv-x="919" d="M35 403q0 84 4 256q4 147 4 211q0 70 -4 156q109 16 221 12h96q4 -61 4 -237q0 -115 5 -205q2 -27 2 -70q8 -137 49 -172q16 -8 45 -8q37 0 64.5 26.5t31.5 88.5q4 57 4 84q0 70 -6 143q-2 25 -4 73t-2 85q0 106 10 176q53 14 86 17t74 1q18 -2 63 -2q47 0 92 4 q0 -246 3 -364q4 -266 4 -404q0 -98 -4 -282l-50 2q-43 0 -79 -2q-61 -6 -127 -6q-72 0 -72 14q-4 27 -4 72v2l-4 -2h2q-49 -33 -112.5 -52.5t-129.5 -19.5q-135 0 -209 66q-57 51 -57 337zM86 1567l340 -6q0 -56 2 -93q4 -115 4 -178q-25 -33 -108 -33q-25 0 -78 5 q-20 2 -70 2q-53 0 -82 -2q0 43 -4 112l-2 33q-4 90 -2 160zM463 1567l340 -6q0 -56 2 -93q4 -115 4 -178q-25 -33 -109 -33q-25 0 -77 5q-20 2 -70 2q-53 0 -82 -2q0 43 -4 112l-2 33q-4 90 -2 160z" />
<glyph unicode="&#xfd;" horiz-adv-x="919" d="M-66 -203q0 63 13 123q74 0 96 -2q23 -2 63 -2q109 0 109 104l-2 27q-57 317 -207 864v-2q-16 41 -37 131q61 -10 113 -10l141 2q63 0 88 -4h27q20 -73 45 -237q8 -39 20 -117q41 -215 62 -289q10 16 21.5 102t23.5 185q20 180 35.5 273t32.5 87q66 0 100 2l108 2l150 -4 q-25 -96 -66 -276q-25 -111 -45 -189q6 23 -41 -159q-59 -250 -123.5 -406t-209 -266.5t-396.5 -110.5q-47 0 -96 4q-25 76 -25 168zM225 1208q49 41 137 135q152 156 240 228l166 -174l-70 -62q-115 -96 -137 -141q-43 -6 -127 -6q-57 0 -117.5 6t-91.5 14z" />
<glyph unicode="&#xfe;" horiz-adv-x="962" d="M31 -375q10 285 10 967q0 653 12 905l340 -6q0 -250 -2 -426v-31q0 -10 -1 -17t-1 -20q33 20 76 25.5t115 5.5q104 -2 190 -65.5t135 -173t49 -244.5q0 -123 -36.5 -253t-111.5 -218t-183 -88q-55 0 -118 19.5t-114 51.5v-252q0 -71 6 -143q-12 -16 -46 -21.5t-87 -5.5 q-66 0 -94 3q-84 4 -139 -13zM393 506q0 -82 5 -123t25.5 -65.5t65.5 -24.5q70 0 111 60.5t41 150.5q0 66 -12 106q-12 51 -53 87t-107 36q-39 0 -54.5 -11t-18.5 -43t-3 -120v-53z" />
<glyph unicode="&#xff;" horiz-adv-x="919" d="M-66 -203q0 63 13 123q74 0 96 -2q23 -2 63 -2q109 0 109 104l-2 27q-57 317 -207 864v-2q-16 41 -37 131q61 -10 113 -10l141 2q63 0 88 -4h27q20 -73 45 -237q8 -39 20 -117q41 -215 62 -289q10 16 21.5 102t23.5 185q20 180 35.5 273t32.5 87q66 0 100 2l108 2l150 -4 q-25 -96 -66 -276q-25 -111 -45 -189q6 23 -41 -159q-59 -250 -123.5 -406t-209 -266.5t-396.5 -110.5q-47 0 -96 4q-25 76 -25 168zM104 1567l340 -6q0 -56 2 -93q4 -115 5 -178q-25 -33 -109 -33q-25 0 -78 5q-20 2 -69 2q-53 0 -82 -2q0 43 -4 112l-3 33q-4 90 -2 160z M481 1567l340 -6q0 -56 2 -93q4 -115 4 -178q-25 -33 -108 -33q-25 0 -78 5q-20 2 -70 2q-53 0 -82 -2q0 43 -4 112l-2 33q-4 90 -2 160z" />
<glyph unicode="&#x152;" horiz-adv-x="1699" d="M23 532q0 92 12 281q8 127 10 219q2 111 65.5 213.5t163.5 157.5q80 41 177 41q33 0 81 -4q72 -4 109 -2q262 -4 408 -4q344 0 604 6h39v-60l2 -51q0 -123 -8 -207q-53 -10 -123 -13t-228 -3h-194q2 -39 -4 -94q-4 -49 -4 -74q0 -35 10 -72l260 -10q4 -57 4 -102 q0 -8 -1 -42t-5 -165q-102 4 -154 4q-66 0 -98 -2q-4 -18 -4 -158q0 -35 12 -104l223 10l72 2q102 0 242 -8v-15q4 -65 4 -100q0 -104 -29 -180q-102 -2 -321 -2h-127q-213 0 -330 -8q-94 -2 -182 -13h-13q-123 -12 -188 -12q-76 0 -133 8q-115 18 -201 89t-123 171 q-29 117 -28 303zM352 567q0 -51 6 -100q6 -51 24.5 -103.5t47.5 -78.5q25 -23 47 -23q35 0 80 35q37 33 56.5 91t35.5 142q23 195 23 324q0 47 -2 72q-4 57 -17 94l-12 27h2q-23 49 -53 69q-45 29 -96 29q-29 0 -82 -25q-18 -16 -34 -52t-22 -77q-4 -39 -4 -121v-24 q4 -27 4 -90q0 -70 -2 -105l-2 -43v-41z" />
<glyph unicode="&#x153;" horiz-adv-x="1439" d="M-4 545q0 137 49 246.5t135 174t191 66.5l69 2q53 4 82 4q76 0 132.5 -18.5t88.5 -69.5q68 53 155 68.5t187 13.5h74q139 -23 206 -143.5t67 -292.5q0 -51 -2 -74q-39 -10 -186.5 -19t-299.5 -9h-63v-43q2 -68 7 -100t27 -66q16 -31 43 -47.5t56 -16.5q43 0 69.5 46 t22.5 136q59 -8 127 -4h63q39 0 71 -2t58 -8q0 -90 -13 -189.5t-50 -140.5q-27 -29 -103.5 -53t-173.5 -24q-51 0 -100 6l-31 4q-151 25 -227 119q-55 -84 -153.5 -104.5t-227.5 -20.5h-18q-109 0 -183.5 88t-111.5 218t-37 253zM270 578q0 -109 5.5 -177.5t33 -131 t88.5 -64.5q92 -6 122 77t30 224v106q0 92 -10.5 137.5t-34 60.5t-70.5 15q-117 0 -141 -112q-8 -27 -15.5 -69t-7.5 -66zM885 694q0 -8 6 -11t29 -3q121 0 151.5 -1t38.5 -1h27q6 -2 8 0t2 8v8q0 43 -15.5 76t-41.5 47l-9 2q-30 19 -55 19q-72 0 -102.5 -33t-36.5 -92 q-2 -8 -2 -19z" />
<glyph unicode="&#x178;" horiz-adv-x="888" d="M-12 -14q25 86 194 524l76 197q-23 92 -60.5 186t-45.5 115l-21 47q-100 231 -133 364l90 4q14 0 29.5 2t34.5 2q45 4 77 5q88 0 146 -23q43 -178 94 -301q35 70 100 221l35 82q133 14 236 14q68 0 108 -10q-43 -139 -110.5 -303t-241.5 -555q-233 -528 -252 -571 q-49 4 -72 4l-96 -2q-123 -4 -188 -2zM147 1645l3 43v34l2 23v20q27 8 70.5 14.5t84.5 6.5q86 0 129 -21q0 -20 -2 -32l-4 -62l-10 -129l-264 2q-9 42 -9 101zM504 1645l2 43v34l2 23v20q27 8 71 14.5t85 6.5q86 0 129 -21q0 -20 -2 -32l-5 -62l-10 -129l-264 2 q-8 42 -8 101z" />
<glyph unicode="&#x2c6;" horiz-adv-x="710" d="M-12 1073q45 61 97 115.5t128 124.5l43 39l47 45l51 47l340 -354l-16 -15l-6 -2l-10 -2l-11 -2h2q-72 -10 -127 -10t-80 4q-18 2 -34.5 14.5t-36.5 36.5v-2q-4 4 -4 6l-21 25l-10 -8l-18 -17q-47 -47 -64 -53q-37 -6 -57 -6q-8 0 -54 4q-41 0 -51 2z" />
<glyph unicode="&#x2dc;" horiz-adv-x="919" d="M0 1012q14 55 54 145t77 135q37 37 89 57.5t110 20.5q76 0 125 -35q29 -20 51 -43q14 -20 30.5 -37.5t32.5 -25.5q23 -23 50.5 20t46.5 94q61 6 163 7q27 0 64 -7q4 -12 4 -40q0 -53 -24.5 -116t-61.5 -110q-18 -25 -36.5 -39t-47.5 -24q-49 -16 -98 -17q-68 0 -121 28 t-76 81l2 -2q-20 25 -32.5 35t-26.5 8q-14 0 -51 -19h2q-14 -10 -25 -34h2q-4 -8 -4 -27q0 -25 8 -57h-39q-27 6 -133 6z" />
<glyph unicode="&#x2000;" horiz-adv-x="962" />
<glyph unicode="&#x2001;" horiz-adv-x="1925" />
<glyph unicode="&#x2002;" horiz-adv-x="962" />
<glyph unicode="&#x2003;" horiz-adv-x="1925" />
<glyph unicode="&#x2004;" horiz-adv-x="641" />
<glyph unicode="&#x2005;" horiz-adv-x="481" />
<glyph unicode="&#x2006;" horiz-adv-x="320" />
<glyph unicode="&#x2007;" horiz-adv-x="320" />
<glyph unicode="&#x2008;" horiz-adv-x="240" />
<glyph unicode="&#x2009;" horiz-adv-x="385" />
<glyph unicode="&#x200a;" horiz-adv-x="106" />
<glyph unicode="&#x2010;" horiz-adv-x="1067" d="M43 403l4 259l2 67v23h969q0 -86 -2 -125l-2 -45v-41q0 -80 10 -152q-164 0 -492 6l-458 8h-31z" />
<glyph unicode="&#x2011;" horiz-adv-x="1067" d="M43 403l4 259l2 67v23h969q0 -86 -2 -125l-2 -45v-41q0 -80 10 -152q-164 0 -492 6l-458 8h-31z" />
<glyph unicode="&#x2012;" horiz-adv-x="1067" d="M43 403l4 259l2 67v23h969q0 -86 -2 -125l-2 -45v-41q0 -80 10 -152q-164 0 -492 6l-458 8h-31z" />
<glyph unicode="&#x2013;" horiz-adv-x="931" d="M45 330l4 299l2 88v22h830q0 -184 4 -424q-147 0 -420 7l-389 8h-31z" />
<glyph unicode="&#x2014;" horiz-adv-x="1417" d="M47 317l4 301l2 93v28h1315v-53l-2 -57v-62l-2 -65q0 -117 10 -199q-207 0 -665 6h-72l-559 8h-31z" />
<glyph unicode="&#x2018;" horiz-adv-x="423" d="M6 946q31 113 72 271.5t61 242.5h107l90 2q24 0 50 -2t46 -4l-24 -96l-27 -105q-37 -156 -94 -315h-27l-41 -4l-26 -2q-78 -8 -123 -8q-61 0 -64 20z" />
<glyph unicode="&#x2019;" horiz-adv-x="423" d="M6 946q31 113 72 271.5t61 242.5h107l90 2q24 0 50 -2t46 -4l-24 -96l-27 -105q-37 -156 -94 -315h-27l-41 -4l-26 -2q-78 -8 -123 -8q-61 0 -64 20z" />
<glyph unicode="&#x201a;" horiz-adv-x="401" d="M-39 -193q31 113 72 272t61 243l197 2q25 0 50.5 -2.5t45.5 -4.5q-35 -131 -41 -163q-29 -113 -48 -180.5t-56 -172.5l-95 -6q-98 -8 -118 -8q-66 0 -68 20z" />
<glyph unicode="&#x201c;" horiz-adv-x="751" d="M2 932l25 96l26 105q37 156 94 315h27l41 4l27 2q78 8 123 8q61 0 63 -20q-27 -113 -69 -271.5t-64 -242.5h-107q-25 -2 -90 -2q-66 0 -96 6zM330 932l24 96l13 47q61 238 108 373h27l41 4l26 2q78 8 123 8q61 0 64 -20q-27 -113 -69 -271.5t-64 -242.5h-107 q-25 -2 -90 -2q-66 0 -96 6z" />
<glyph unicode="&#x201d;" horiz-adv-x="751" d="M6 946q31 113 72 271.5t61 242.5h107l90 2q25 0 50.5 -2t45.5 -4l-24 -96l-27 -105q-37 -156 -94 -315h-27l-41 -4l-26 -2q-78 -8 -123 -8q-61 0 -64 20zM334 946q31 113 71.5 271.5t61.5 242.5h106l91 2q24 0 49.5 -2t46.5 -4l-25 -96l-26 -105q-37 -156 -95 -315h-26 l-41 -4l-27 -2q-78 -8 -123 -8q-61 0 -63 20z" />
<glyph unicode="&#x201e;" horiz-adv-x="722" d="M-45 -207l25 96l26 105q37 156 94 315h27q106 4 133 4q70 0 121 -10q-27 -113 -69 -271.5t-64 -242.5h-107q-25 -2 -90 -2q-66 0 -96 6zM283 -207l24 96l27 105q37 156 94 315h27q71 6 116 6q70 0 138 -12q-27 -113 -69 -271.5t-65 -242.5h-106q-25 -2 -90 -2 q-66 0 -96 6z" />
<glyph unicode="&#x2022;" horiz-adv-x="591" d="M76 571q0 76 10 119l4 12q31 61 131 62h111q66 0 119 -26.5t67 -82.5q6 -39 6 -59q0 -23 -6 -72l-6 -53q-14 -63 -82 -98q-16 -8 -31.5 -11.5t-72.5 -5.5h-21q-47 0 -74 -4q-8 -2 -24 -2q-31 0 -57.5 13.5t-45.5 35.5q-18 27 -22 47q-10 59 -6 125z" />
<glyph unicode="&#x2026;" horiz-adv-x="1064" d="M33 106l2 50v41l2 24v21q55 25 170 24q111 0 139 -14q2 -2 4 -12.5t2 -22.5q0 -16 -4 -74l-12 -153l-295 2q-8 48 -8 114zM371 106l2 48v41l2 24v23q55 25 170 24q111 0 139 -14q2 -2 4 -12.5t2 -22.5q0 -16 -4 -74l-12 -153l-295 2q-8 48 -8 114zM711 106l2 50v41l2 24 v21q55 25 170 24q111 0 139 -14q2 -2 4 -12.5t2 -22.5q0 -16 -4 -74l-12 -153l-295 2q-8 48 -8 114z" />
<glyph unicode="&#x202f;" horiz-adv-x="385" />
<glyph unicode="&#x2039;" horiz-adv-x="741" d="M-2 537q43 55 167 184t353 364q66 -37 127 -98q33 -35 68 -63q-35 -41 -178 -195q-113 -113 -183 -197q84 -76 240 -225l141 -133l-194 -176q-57 60 -215 205q-121 111 -191 180.5t-135 153.5z" />
<glyph unicode="&#x203a;" horiz-adv-x="741" d="M8 174q78 65 379 358q-43 53 -109.5 123t-82.5 88q-106 111 -166 181q18 14 37.5 32.5t29.5 28.5q31 33 57.5 54.5t69.5 45.5q47 -47 158 -165l362 -383q-51 -80 -456 -463l-86 -80z" />
<glyph unicode="&#x205f;" horiz-adv-x="481" />
<glyph unicode="&#x20ac;" horiz-adv-x="1003" d="M29 721q0 121 2 180q0 35 1 47.5t1 16.5q6 88 25.5 160.5t66.5 148.5q59 88 159.5 128t207 49t278.5 9h188q10 -88 11 -190q0 -78 -6 -131q-2 0 -5.5 -1t-7.5 -5q-43 0 -71 4h2q-63 6 -138 6q-170 0 -239 -94q31 -12 58.5 -15.5t68.5 -3.5q33 0 49 -2q6 -45 6 -100 q0 -61 -6 -111q-49 -16 -135 -16q-25 0 -127 4q0 -37 4 -55h29q152 0 227 -5q12 -51 12 -108q0 -53 -8 -111q-82 -14 -170 -14q-14 0 -26.5 -2t-22.5 -2q-14 0 -21 10q14 -76 64.5 -110.5t106 -42t171.5 -11.5q115 -4 191 -20q-2 -41 2 -125q4 -53 4 -92q0 -61 -12 -109 q-131 -23 -271 -22q-39 0 -129 4l-73 2l-39 4q-109 19 -203 74q-63 39 -84 67q-141 180 -141 584z" />
<glyph unicode="&#x2122;" horiz-adv-x="1155" d="M50 1171.5q1 14.5 1 28.5v49v86h203l309 -10l2 -70q0 -55 -8 -112q-14 2 -41 2q-31 0 -96 -4l4 -156l4 -117l8 -311q-29 -4 -69 -4l-56 2q-37 4 -61 4q-35 0 -57 -2v51l2 135q0 190 -11 398q-18 2 -35.5 2h-27.5q-45 0 -70 4q-2 10 -1 24.5zM592 791q0 170 2 296l2 224 q41 10 133 10h64q37 -39 49 -76q2 4 7 15.5t44 62.5q37 -2 90 2l59 2q35 0 60 -2q-2 -33 -2 -104v-306l-2 -354q-67 10 -133 6l-35 -2h-35q-4 94 -4 152q0 129 -10 205q-8 -14 -20.5 -38t-16.5 -34q-12 18 -19.5 37.5t-15.5 36.5q0 -2 -1 -23.5t-3 -130.5q0 -92 6 -197 q-47 -8 -80 -8h-39h-26l-62 4q-8 14 -10 59.5t-2 162.5z" />
<glyph unicode="&#x25fc;" horiz-adv-x="1044" d="M0 0v1044h1044v-1044h-1044z" />
<glyph unicode="&#xfb01;" horiz-adv-x="1136" d="M-14 1016h153q-4 135 51.5 259t190.5 171q127 43 328 43l114 -4q16 -51 17 -125q0 -47 -7.5 -108.5t-9.5 -77.5q-18 2 -53 2q-80 0 -235 -25q-25 -4 -36.5 -27.5t-11.5 -58.5q0 -25 7 -55h256v82q4 0 26.5 2t65.5 2q63 0 198 -6l62 -11q0 -104 -2 -184t-4 -133 q-2 -68 -4 -167t-2 -233q0 -205 10 -348q-27 -27 -121 -26q-35 0 -92 4q-94 4 -154 -19q16 223 17 537l-2 238q-93 6 -261 6v-756q-45 4 -65 4q-35 0 -105 -4q-55 -6 -114 -6q-35 0 -51 2q-12 78 -13 354q0 92 4 359v45q-104 0 -151 -2z" />
<glyph unicode="&#xfb02;" horiz-adv-x="1150" d="M-14 1032h155q-8 131 51.5 260t194.5 176q129 43 332 43q57 0 334 -8h67q0 -143 -2 -263t-4 -210q-8 -422 -8 -612q0 -229 10 -404q-27 -27 -127 -26q-37 0 -98 4q-88 4 -143 -10q12 186 12 495l2 283q-92 6 -207 6h-61v-770q-37 6 -78 6q-29 0 -78 -4l-25 -2 q-49 -4 -82 -4q-35 0 -79 4q-8 59 -9 301l2 178v154l2 135q-109 0 -155 -2zM494 1085q0 -29 6 -59h260l-4 168v2l-217 -4q-20 -6 -32.5 -36t-12.5 -71z" />
<glyph unicode="&#xfb03;" horiz-adv-x="1953" d="M-12 1034h69q16 0 37 1t47 -1q-4 133 51.5 251t190.5 165q127 43 330 43l114 -4q16 -51 17 -125q0 -47 -7.5 -108.5t-9.5 -77.5l-43 2q-57 0 -127.5 -8.5t-121.5 -18.5q-43 -8 -43 -76q0 -31 4 -49l456 2q-4 131 53.5 255t192.5 165h-2q127 43 328 43q59 0 116 -4 q16 -51 17 -125q0 -47 -7.5 -108.5t-9.5 -77.5l-43 2q-57 0 -127.5 -8.5t-121.5 -18.5q-23 -4 -33 -27.5t-10 -58.5q0 -33 4 -53h256v82q4 0 26.5 2t65.5 2q61 0 194 -6h68v-19q0 -104 -4 -321l-2 -125q-4 -197 -4 -291q0 -182 8 -324q-27 -27 -121 -26q-35 0 -92 4 q-92 4 -152 -19q12 195 13 516l2 261q-92 6 -203 6h-61v-760q-45 6 -103 6q-80 0 -237 -8q0 369 -15 688l-4 66q-256 8 -455 8v-760q-10 6 -51 6q-39 0 -74.5 -2t-62.5 -4q-63 -6 -117 -6q-27 0 -34 4q-4 53 -5 368v392q-104 0 -151 -2z" />
<glyph unicode="&#xfb04;" horiz-adv-x="2068" d="M-12 1036h71q16 0 36 1t46 -1q-4 72 22.5 156t84 155.5t139.5 106.5q121 43 328 43l114 -4q18 -53 19 -123q0 -70 -12 -164l-2 -26l-46 2q-57 0 -127.5 -8.5t-121.5 -18.5q-45 -8 -45 -74q0 -23 6 -51l458 2q-4 133 53.5 257t192.5 165h-2q72 25 137.5 34t155.5 9 q55 0 113 -4q10 -31 13 -60.5t3 -74.5q0 -121 -14 -180q-37 4 -56 4q-80 0 -198 -27q-23 -4 -35 -27.5t-12 -58.5q0 -25 6 -55h299q4 -37 4 -117q0 -27 -4 -149q-123 8 -244 8h-61v-766q-37 6 -78 6q-29 0 -78 -4l-25 -2q-49 -4 -81 -4q-33 0 -78 4q0 365 -15 690l-4 68 q-254 8 -456 8v-766q-41 6 -82 6q-29 0 -82 -4l-19 -2q-49 -4 -82 -4t-77 4q-8 59 -9 301l2 178v152l2 98v35q-106 0 -153 -2zM1657 1130q0 195 14 365l357 -6l10 -1481q-27 -27 -125 -26q-37 0 -98 4q-90 4 -146 -11q12 145 12 318q0 141 -12 420q-12 274 -12 417z" />
</font>
</defs>
</svg>
