<?xml version="1.0" standalone="no"?>
<!DOCTYPE svg PUBLIC "-//W3C//DTD SVG 1.1//EN" "http://www.w3.org/Graphics/SVG/1.1/DTD/svg11.dtd" >
<svg xmlns="http://www.w3.org/2000/svg" xmlns:xlink="http://www.w3.org/1999/xlink" version="1.1">
<metadata></metadata>
<defs>
<font id="londrina_solid_thinregular" horiz-adv-x="974" >
<font-face units-per-em="2048" ascent="1638" descent="-410" />
<missing-glyph horiz-adv-x="409" />
<glyph horiz-adv-x="0" />
<glyph unicode="&#xd;" horiz-adv-x="409" />
<glyph horiz-adv-x="0" />
<glyph horiz-adv-x="0" />
<glyph unicode=" "  horiz-adv-x="409" />
<glyph unicode="&#x09;" horiz-adv-x="409" />
<glyph unicode="&#xa0;" horiz-adv-x="409" />
<glyph unicode="!" horiz-adv-x="444" d="M168 28.5q0 -26.5 6 -26.5h88h14q0 59 2.5 123.5t4.5 122.5q-31 0 -54.5 3t-48.5 -7v-2q0 -29 -4 -70t-6 -79t-2 -64.5zM179 1161q-1 -137 1 -272t3 -270.5t-1 -270.5h2l52.5 3t54.5 7q-12 262 -9 542t7 542q-37 4 -51.5 2t-42.5 -6h-7q-8 -140 -9 -277z" />
<glyph unicode="&#x22;" horiz-adv-x="774" d="M123 1211.5q0 -52.5 2 -115t2 -154.5v-2h29.5t23 1t36.5 1h22v82t-1 150.5t-2.5 159.5t-1.5 112q-4 8 -20 9t-29.5 -2t-28 -7t-22.5 -4h-2v-4q-4 -72 -6 -123t-2 -103.5zM539 1211.5q0 -52.5 2 -115t2 -154.5v-2h35.5t25.5 1t28 1h19v82t-1 150.5t-2 159.5t-1 112 q-4 8 -24.5 9t-32.5 -2t-22.5 -7t-18.5 -4h-2v-4q-4 -72 -6 -123t-2 -103.5z" />
<glyph unicode="#" horiz-adv-x="1370" d="M51 469q2 -35 2 -62.5t4 -52.5q31 -2 209 4q-29 -78 -43 -130t-71 -228q51 4 100 0q16 0 19 27.5t37 137t73 197.5q96 2 206.5 2.5t137.5 0.5t38 -1l11 -2h2q-20 -76 -51 -173t-53 -187q84 -4 84 -2t4 2h4l2 2q14 37 32.5 87t35 117.5t27.5 104.5t16 43h4h2q150 2 202 2 h88.5t65.5 1t61 6v4q-4 18 -6 45.5t-8 44.5q-104 8 -228 7t-147 1q23 66 53.5 189.5t53.5 195.5l305 6l-14 80v8q-160 0 -192 1t-64 1q29 98 46 178t26.5 111t11.5 44t0 26l-93 2h-2h-2q-29 -123 -55.5 -225.5t-42.5 -129.5q-117 2 -221.5 0t-159.5 0q27 88 45.5 165 t28.5 111t13 48t3 18q-66 2 -79 4.5t-12 2.5t4 1t-15 3v-2q-6 -29 -19.5 -75t-29 -114.5t-28.5 -107.5t-19 -52q0 -2 -1 -2t-1 -2q-12 -2 -31 -1t-33 1q-244 0 -271.5 3t-34.5 5l-7 3l4 -113q100 0 184 1t111.5 1h34.5h6q-25 -78 -50.5 -180.5t-38 -150.5t-18.5 -54 q-186 0 -209.5 -2t-34 0t-12.5 4zM416 467q79 317 108 389v2h4q106 0 210 -1t177 -1q-23 -78 -55.5 -192.5t-50.5 -188.5q0 -2 -1 -3t-1 -3z" />
<glyph unicode="$" horiz-adv-x="911" d="M41 391q0 -68 6 -125t27.5 -103t65.5 -81t204 -68q47 -2 59.5 -22.5t15.5 -45t0 -50t2 -54t18.5 -35t19.5 -6.5q27 2 47 3t14 55v8v27.5v45t1 45t1 27.5q4 0 54.5 10.5t86 23.5t55 25.5t25.5 18.5q66 53 93.5 112.5t27.5 125.5q0 43 -8 94t-28.5 103.5t-55.5 82t-76 58.5 q-55 26 -131 41.5t-90 17.5q-121 12 -178 25.5t-119 177.5q0 6 -15.5 64.5t2 106.5t64.5 93t183.5 75.5t248 -36t111.5 -195.5t32 -130t51 0t17 52q0 55 -3 99.5t-25 91.5q-12 25 -31.5 52.5t-47.5 52t-60.5 43t-155.5 51.5q-27 2 -27 28l-4 144q-6 12 -22.5 16t-41 0 t-35.5 -11t-11 -22q0 -4 2 -14t3 -37t3 -49.5t2 -26.5q0 -10 2 -17t-8 -11q-80 -14 -163 -52.5t-118 -72.5q-39 -39 -56.5 -86t-17.5 -99q0 -74 32 -147.5t79 -126.5q45 -49 132 -83t282.5 -73t181.5 -266q-2 -76 -26.5 -125t-114.5 -100q-133 -49 -312.5 2t-156.5 241 q0 16 -1 32t-1 32q0 31 -5.5 49.5t-26 20.5t-40 -3.5t-28.5 -16.5t-10 -31.5t-1 -51.5z" />
<glyph unicode="%" horiz-adv-x="1236" d="M39 1087.5q0 -38.5 4 -75.5q0 -49 4 -91t15.5 -81t40 -71t77.5 -52q33 -8 72 -12q41 -4 78 12t64.5 42.5t46 64.5t30.5 79t16.5 83t4.5 83q0 29 -2.5 56.5t-6.5 60.5q-8 41 -26.5 80t-46 68.5t-68.5 48t-90 14.5q-47 0 -86 -20.5t-64 -57.5q-8 -4 -12 -10 q-20 -33 -31.5 -70t-15.5 -75t-4 -76.5zM115 1029.5v92.5q0 25 4 39.5t8 31.5t31.5 66.5t117.5 45.5q80 -12 110 -70.5t32 -105t2 -74t-4 -47.5v-40.5t-6.5 -44t-42 -81t-105.5 -58.5q-123 1 -139 134q-8 68 -8 111.5zM301 0q6 12 12 31.5t17.5 52.5t24 62.5t14.5 37.5 q72 203 99.5 277t62 172t96.5 264q23 59 77 223t70.5 219.5t30.5 112.5q68 -4 92 -16q-4 -10 -6 -17.5t-6 -19.5q-8 -29 -28.5 -95.5t-65.5 -201.5q-20 -57 -39 -113.5t-37 -111.5q-39 -113 -77 -223.5t-81 -221.5q-10 -31 -21.5 -61.5t-23.5 -61.5l-111 -295q-4 -8 -6 -10 q-12 -2 -94 -4zM745 436q0 -39 5 -76q0 -49 4 -91t15 -80.5t40 -70.5t78 -52q33 -8 71 -13q41 -4 78 12.5t64.5 43t46 64.5t31 79t16.5 83t4 83q0 29 -2 56.5t-6 60.5q-8 41 -26.5 79.5t-46 68.5t-68.5 48.5t-91 13.5q-47 0 -85.5 -20t-63.5 -57q-8 -4 -12 -11 q-21 -32 -32 -69t-15.5 -75t-4.5 -77zM821 378v93q0 25 4 39t8.5 31.5t32 66.5t117.5 45q80 -12 109.5 -70.5t31.5 -104.5t2 -73.5t-4 -48.5v-40t-6 -43.5t-42 -81t-105 -58.5q-124 0 -140 133q-8 68 -8 112z" />
<glyph unicode="&#x26;" horiz-adv-x="1157" d="M37 451q0 -82 26.5 -163t78 -145.5t128 -104.5t179.5 -40q203 6 279.5 28.5t189.5 157.5q96 -127 110 -157.5t105 -22.5l22 55q-33 82 -64.5 125t-60.5 80v-2q-18 25 -35.5 44.5t-17.5 31.5q0 10 47 112.5t65.5 152.5t24.5 110q20 68 2 74l-54 18t-42 -8.5t-27 -69.5 q-12 -55 -39.5 -114.5t-84 29.5t-115 128t-43 73t28 46t24.5 31q37 61 52 125.5t15 140.5q0 61 -25.5 117.5t-71.5 99.5t-111.5 68.5t-143.5 25.5q-74 0 -144.5 -23.5t-126.5 -65.5t-90 -98.5t-34 -121.5q0 -47 15.5 -95.5t39 -93.5t51 -86t52.5 -73q-39 -37 -76 -82 t-65.5 -95.5t-46 -103.5t-17.5 -108zM131 418q0 156 56.5 247t226.5 111q20 4 29.5 5t29.5 1q201 0 296 -92t95 -293q0 -72 -13 -109.5t-73 -105.5q-45 -41 -131 -71q-53 -17 -87 -21t-75 -4q-88 0 -146 24.5t-92 61.5t-89 125q-18 35 -22.5 56.5t-4.5 64.5zM160 1192 q6 98 112.5 177t270.5 54q124 -20 194 -137q55 -135 -19.5 -278.5t-275.5 -147.5q-133 20 -183 87t-75.5 130.5t-23.5 114.5z" />
<glyph unicode="'" horiz-adv-x="378" d="M133 1211.5q0 -52.5 2 -115t2 -154.5v-2h35.5t26 1t29.5 1h18v82t-1 150.5t-2 159.5t-1 112q-4 8 -24.5 9t-33 -2t-22.5 -7t-19 -4h-2v-4q-4 -72 -6 -123t-2 -103.5z" />
<glyph unicode="(" horiz-adv-x="643" d="M66 416q4 -53 17 -110.5t52 -127.5q6 -12 8 -14q33 -45 78 -80q54 -41 113 -61q68 -20 133 -23h35q23 0 48 1t38 17l4 99q-190 -33 -280.5 25.5t-131.5 197.5q-31 84 15 805q2 14 10 50t27.5 63.5t81 60.5t151.5 33t119 8q10 18 2 82l-2 2q-35 4 -75 7t-75 5 q-92 -2 -174 -44t-133 -140q-25 -41 -34 -86t-12 -91t-2 -93.5t-1 -92.5v-49q2 -104 -3 -220t-9 -224z" />
<glyph unicode=")" horiz-adv-x="641" d="M53 117q190 -33 280.5 25.5t131.5 197.5q31 84 -14 805q-2 14 -10.5 50t-28 63.5t-81 60.5t-151.5 33t-119 8q-10 18 -2 82l2 2q35 4 75 7t75 5q92 -2 174 -44t133 -140q25 -41 34 -86t12 -91t2 -93.5t1 -92.5v-49q-2 -104 3 -220t10 -224q-4 -53 -17.5 -110.5 t-52.5 -127.5q-6 -12 -8 -14q-33 -45 -78 -80q-54 -41 -113 -61q-68 -20 -133 -23h-35q-23 0 -48 1t-38 17z" />
<glyph unicode="*" horiz-adv-x="751" d="M92 868l51 -45q4 0 7.5 2t7.5 6q14 10 34.5 29t80 74t76 71.5t24.5 20.5q4 -2 18.5 -14.5t68.5 -65.5t70.5 -68.5t24.5 -23.5q4 -2 19.5 -17.5t19.5 -21.5q2 -4 6 0q57 43 55 51q-4 2 -25.5 28t-46 55.5t-84 90t-61.5 60.5q6 16 56.5 65t74 72t42 45.5t20.5 40.5 q-6 6 -24.5 23.5t-22.5 23.5q2 2 -20.5 -18.5t-51.5 -47t-85 -78.5t-58 -55q-8 6 -58.5 55.5t-77 74t-49 45t-28.5 22.5l-2 -2q-14 -10 -25.5 -24.5t-19.5 -16.5q4 -10 24.5 -32.5t44 -50.5t45 -53.5t70.5 -74.5q12 -16 10 -18q-16 -18 -73.5 -76.5t-78 -81.5t-37 -41 t-22.5 -29z" />
<glyph unicode="+" horiz-adv-x="911" d="M43 694q0 -6 3 -38.5t2 -40t1 -9.5q8 -4 41 -8t125 -6t125 -4t45 -2h4q2 -2 3 -13.5t1 -27.5q2 -74 2 -103.5t-1 -77t-1 -71t4 -53.5q0 -4 1 -4t1 -3q4 3 20.5 0.5t52.5 -2.5t36 7v4q0 14 3 49t6 103.5t5 121.5t0 72q10 6 51 7t125 1t119 1t41 5q8 51 8 105q-23 4 -83 5 t-109 1h-86t-62 2q-4 10 -4 130v158.5v61.5q-16 2 -41.5 1t-42 -1t-18.5 8q-2 -10 -3 -17t-3 -20q-2 -20 -1 -45.5t0 -139.5t-1 -136q-6 -2 -45 -6t-139.5 -7.5t-139.5 -6.5t-45 -1z" />
<glyph unicode="," horiz-adv-x="385" d="M145 8q2 -2 7 -2l38 -8q-4 -29 -11 -61.5t-15 -62.5t-13.5 -50.5t-0.5 -24.5q66 0 75 -4q4 20 8.5 40t8.5 40l16 82q2 10 5 23.5t3 21.5q0 2 1 3t1 3h4l9 236h-2q-66 4 -123 2h-2v-2q-4 -84 -5.5 -130t-2.5 -68.5t-1 -29v-8.5z" />
<glyph unicode="-" horiz-adv-x="1067" d="M74 557q10 0 79.5 -2t168 -3t211 -3t211 -4t168 -2h79.5h2q-4 61 -6 119h-100.5h-175h-210h-203.5h-154.5h-63.5q0 -6 -1 -35t-3 -37t-2 -33z" />
<glyph unicode="." horiz-adv-x="387" d="M146 59.5q1 -34.5 6 -57.5h6l82 -2h4v2v2q0 14 2 53t4 80t4 73t2 34q-14 6 -27.5 9t-36 -1t-42.5 -12q0 -14 -1.5 -45t-2.5 -66t0 -69.5z" />
<glyph unicode="/" horiz-adv-x="843" d="M121 0q6 12 12 31.5t17.5 52.5t23.5 62.5t14 37.5q72 203 99.5 277t62.5 172t96 264q23 59 77.5 223t70.5 219.5t31 112.5q68 -4 92 -16q-4 -10 -6 -17.5t-6 -19.5q-8 -29 -29 -95.5t-66 -201.5q-20 -57 -38.5 -113.5t-36.5 -111.5q-39 -113 -77 -223.5t-81 -221.5 q-10 -31 -21.5 -61.5t-23.5 -61.5l-111 -295q-4 -8 -6 -10q-12 -2 -94 -4z" />
<glyph unicode="0" horiz-adv-x="1050" d="M59 804q2 -81 7 -159q2 -92 9 -184t34.5 -175t85 -149.5t161.5 -105.5q61 -23 144 -27q96 -6 172 25.5t132 90t96 135.5t63.5 164t32 176t3.5 169q4 59 -1 119.5t-15 126.5q-16 86 -53 168t-96.5 144t-141.5 99t-186 33t-180 -48t-138 -114q-12 -12 -20 -26 q-45 -70 -68.5 -146t-33 -155.5t-7.5 -160.5zM158 918q6 61 13 97t19.5 78t80 159.5t290.5 113.5q188 -31 263 -177.5t80 -259t4 -177t-3 -117.5q-4 -53 -6 -100.5t-16.5 -114t-102.5 -197.5t-254 -141q-305 0 -346 328q-20 170 -20 274t-2 234z" />
<glyph unicode="1" horiz-adv-x="628" d="M47 965q0 -10 45 -24.5t55 -14.5q16 0 128 177t120 194.5t19 15.5q2 -10 2 -18.5v-18.5q-2 -442 -9.5 -651t-9.5 -414v-199v-2q41 -4 71 -2t50 2q2 62 2 98.5v71.5q0 236 11.5 465t3.5 465q0 86 2 171t-5 173q-135 2 -182 0q-4 -4 -23.5 -33.5t-56.5 -89t-100.5 -160 t-122.5 -206.5z" />
<glyph unicode="2" horiz-adv-x="1019" d="M61 4q0 -4 2 -6h93l778 10q8 0 8 2q-6 23 -3 43.5t-9 75.5q-137 -14 -352.5 -13t-352.5 5q-8 4 -7 19.5t6 41t24 56.5q270 233 358 286.5t144.5 82t102.5 67.5t78 91t38 128q2 41 0 91t-4 93q-10 111 -59.5 203t-141.5 139q-55 23 -138 32t-169 1t-162 -37t-117 -82 q-76 -84 -101.5 -208t-0.5 -265v-4h2q70 -8 112 8h3v4q2 37 -6.5 146.5t38.5 205t147.5 121t149.5 25.5q145 4 229.5 -50t107 -206t13.5 -223q-10 -115 -185 -201t-346 -223t-237 -242q-33 -53 -39 -107.5t-4 -109.5z" />
<glyph unicode="3" horiz-adv-x="1007" d="M53.5 1094.5q3.5 -52.5 3.5 -93.5v-4q4 0 25.5 2t85.5 2q-14 197 48.5 260.5t166.5 91t266 -3t175.5 -212t-4 -258t-82 -74.5t-215 8t-185.5 -6v-2q4 18 1 -28t9 -72q51 -2 190.5 3t204 -20.5t78 -135.5t-20.5 -275.5t-312.5 -182t-305 164.5t-20.5 190l-2 2h-2 q-35 -6 -97 -2h-2q-2 0 -2 -3q2 -63 6.5 -113t12.5 -97q4 -41 21.5 -79t45.5 -67q4 -4 29 -22.5t68 -30.5q29 -8 56.5 -16.5t55.5 -12.5q78 -10 168 -9t166 24q76 25 126 73.5t79 116.5q27 55 29 116.5t6 121.5q6 166 7 334.5t-3 342.5q2 39 -3 77t-26 71q-35 61 -103.5 102 t-153.5 59.5t-176 13.5t-172 -36t-143.5 -86t-86.5 -137q-16 -45 -12.5 -97.5z" />
<glyph unicode="4" horiz-adv-x="960" d="M35 543q2 -4 32.5 -5t76.5 -1t100.5 1t184.5 2t172 -1t50 -4q0 -4 -5 -150.5t-8 -196t-5 -91.5t-4 -70.5t0 -30.5q129 -2 141 12q2 8 4 39t0 72t1 129t6 159.5t5 95t2 21.5q92 -4 125 6l13 121q-25 0 -125 4l-13 -2q-2 15 -2 53.5t1 156.5t4.5 213t5.5 176t4 134.5 t2 55.5h-4q-16 2 -24.5 2t-68 -1t-67.5 -1q-2 0 -2 -2q-158 -199 -600 -795q-12 -39 -2 -102zM178 655q2 4 125 164t233.5 306.5t130 174t21.5 15.5l-22 -656q-15 -2 -125.5 -5t-157.5 -2t-126 2z" />
<glyph unicode="5" horiz-adv-x="1030" d="M74 1425q0 -96 1 -180t2 -167t1 -170t8 -105q0 -2 4 -2q43 -4 98.5 -2t215 9t260 -6.5t149.5 -78t62.5 -213t-55 -282.5t-281.5 -144t-296 88t-36 260q0 2 -1 4t-1 4v2h-117v-4q-12 -66 -12 -119q-2 -115 57.5 -189.5t150.5 -111t201.5 -36.5t210 32.5t173 99t94.5 160.5 q16 121 11 248t-53.5 239.5t-220.5 137.5t-485 -2h-2l-2 2l-2 2q-8 12 -10 203.5t-6 208.5q0 2 -1.5 3t-1.5 3v2v4h3q12 0 153 2t198.5 3t122 3t123 3t102.5 3t58 4v21v46t-2 28q-14 2 -81.5 2t-162 -1t-202 -3t-200.5 -4t-156.5 -4.5t-69.5 -2.5h-2z" />
<glyph unicode="6" horiz-adv-x="1030" d="M67.5 791.5q-4.5 -109.5 1 -216t24 -204t57 -175t100 -130t153.5 -68.5q113 -12 222.5 6.5t193.5 68.5t131 135t35 208l-4 49q-6 47 -22.5 95t-47.5 77q-53 59 -141 88q-182 45 -360 -18q-195 -63 -232 -201v2q2 57 -3 131t0 200t12.5 256t202 218t368.5 -10 q82 -80 81 -176.5t1 -131.5v-2h4q39 -10 98 0q23 82 7.5 164t-62.5 148.5t-123 106.5t-172 38q-74 0 -148.5 -16.5t-141 -48t-119 -78.5t-79.5 -109q-4 -8 -6 -14t-9 -31t-7 -67t-4 -85q-6 -100 -10.5 -209.5zM239.5 353.5q14.5 111.5 61.5 166.5t131 93t182.5 39 t180.5 -59.5t92 -143.5v-9v-18q0 -143 -38 -197.5t-129 -98.5t-206 -50t-202 80t-72.5 197.5z" />
<glyph unicode="7" d="M55 1333h4q52 2 118.5 5t244.5 3h252t133 -4q-2 -16 -222 -521t-374 -804q31 -8 59.5 -3t73.5 5q129 256 235.5 486.5t366.5 824.5v117v2q-100 10 -211.5 13t-227.5 2t-230.5 -5t-221.5 -6v-2q-2 -61 0 -113z" />
<glyph unicode="8" horiz-adv-x="1003" d="M50 419q-3 -83 20.5 -162t72.5 -140q33 -45 86.5 -76t119 -47.5t136 -18.5t136 10.5t121 39t89.5 67.5q55 61 85 144t27 169.5t-40 166t-112 135.5v2q66 53 99.5 110.5t49.5 130.5q4 14 6 30.5t2 33.5v37v12v8q0 10 -1 18.5t-3 18.5q-4 29 -8 50.5t-12 53.5 q-4 18 -14.5 43t-16.5 35q-18 29 -32.5 46.5t-26 28.5t-23.5 19.5t-27 18.5q-35 20 -69.5 30.5t-78.5 14.5t-99.5 4t-126.5 -2q-84 -4 -148.5 -44t-108.5 -103.5t-65.5 -141.5t-19.5 -157.5t29.5 -153.5t80.5 -129q-63 -61 -94 -140t-34 -162zM148.5 308 q-25.5 95 29.5 224.5t326 137.5q150 -10 204 -41t97 -90.5t50 -119t-13 -136.5q-13 -64 -31 -80q-27 -82 -172 -119q-72 -12 -152.5 -15t-156.5 23q-98 39 -127 80t-54.5 136zM169 1069q15 96 74.5 179t143.5 116q102 23 211 13.5t172 -70.5q45 -31 70.5 -93.5t22.5 -126 t-3 -75.5q0 -16 -4 -24.5t-4 -14.5q-12 -62 -50 -119t-138 -96q-78 -12 -171.5 -12.5t-170.5 30.5q-102 45 -135 121t-18 172z" />
<glyph unicode="9" horiz-adv-x="1050" d="M58 998.5q3 -62.5 18.5 -122t44.5 -102.5q39 -59 95 -101t123 -64.5t219.5 -23.5t301.5 128l2 -2q-4 -59 -4 -108.5t1 -244t-161 -243.5q-147 -61 -349 4t-150 336q-66 2 -138 0v-11q-20 -158 50 -262q35 -51 93 -90t128.5 -63.5t148.5 -33.5t151 1t136 40t106 81 q43 59 68 129.5t35 146.5q8 68 4 134.5t-6 134.5l-4 303q-2 104 -12.5 202.5t-57.5 169.5q-31 47 -74 71t-93 33t-104.5 9t-105.5 2q-113 -4 -217 -41t-172 -117q-14 -16 -24.5 -33.5t-20.5 -35.5q-18 -45 -26.5 -104.5t-5.5 -122zM156 1096q0 92 52 146t128 89 q88 43 186.5 40t189.5 -32.5t123.5 -119t28.5 -183.5q0 -49 -6 -80q-10 -118 -58 -171.5t-132 -92.5t-174.5 -31.5t-174 55.5t-124.5 138q-20 55 -26.5 117.5t-12.5 124.5z" />
<glyph unicode=":" horiz-adv-x="419" d="M159 59.5q1 -34.5 5 -57.5h6l82 -2h4v2v2q0 14 2 53t4 80t4 73t2 34q-14 6 -27.5 9t-36 -1t-42.5 -12q0 -14 -1 -45t-2 -66t0 -69.5zM161 747.5q1 -34.5 5 -57.5h6l82 -2h4v2v2q0 14 2 53t4 80t4 73t2 34q-14 6 -27.5 9t-36 -1t-42.5 -12q0 -14 -1 -45t-2 -66t0 -69.5z " />
<glyph unicode=";" horiz-adv-x="419" d="M145 8q2 -2 7 -2l38 -8q-4 -29 -11 -61.5t-15 -62.5t-13.5 -50.5t-0.5 -24.5q66 0 75 -4q4 20 8.5 40t8.5 40l16 82q2 10 5 23.5t3 21.5q0 2 1 3t1 3h4l9 236h-2q-66 4 -123 2h-2v-2q-4 -84 -5.5 -130t-2.5 -68.5t-1 -29v-8.5zM157 747.5q1 -34.5 5 -57.5h6l94 -2h4v2v2 q0 14 2 53t4 80t4.5 73t2.5 34q-14 6 -28.5 9t-42.5 -1t-48 -12q0 -14 -1 -45t-2 -66t0 -69.5z" />
<glyph unicode="&#x3c;" horiz-adv-x="743" d="M27 553q57 -78 125.5 -143.5t131 -127t129 -120t128.5 -121.5l2 -2l30 27l37 43q-98 79 -225 202t-229 236q39 49 89 102t137 144.5t132 138.5t76 86q-6 14 -24.5 33.5t-37.5 29.5q-29 -29 -57.5 -58.5t-58.5 -61.5q-47 -49 -98.5 -101.5t-102.5 -105t-98 -102.5t-86 -99 z" />
<glyph unicode="=" horiz-adv-x="954" d="M74 326q10 0 79.5 -2t168 -3.5t211 -3.5t211 -4t112.5 -2t10 0h2q-4 61 -6 119h-30.5h-120h-210h-203.5h-154.5h-63.5q0 -6 -1 -34.5t-3 -37t-2 -32.5zM74 756q10 0 79.5 -2t168 -3t211 -3.5t211 -4.5t112.5 -2t10 0h2q-4 61 -6 119h-30.5h-120h-210h-203.5h-154.5h-63.5 q0 -6 -1 -34.5t-3 -37t-2 -32.5z" />
<glyph unicode="&#x3e;" horiz-adv-x="743" d="M131 109q98 79 225 202t230 236q-39 49 -89.5 102t-137.5 144.5t-132 138.5t-75 86q6 14 24.5 33.5t36.5 29.5q29 -29 57.5 -58.5t59.5 -61.5q47 -49 98 -101.5t102.5 -105t98.5 -102.5t86 -99q-57 -78 -126 -143.5t-131.5 -127t-129 -120t-127.5 -121.5l-2 -2l-31 27z " />
<glyph unicode="?" horiz-adv-x="923" d="M33 1020q61 -2 104 -2q-4 82 50.5 193.5t196.5 143t227 0t139.5 -112.5t46 -165t-46 -150.5t-114.5 -150.5t-115 -146.5t-52 -154.5l-6 -55v-58h2l88 5v2q-4 16 3 86.5t34.5 122t71.5 110.5q31 41 60.5 68.5t61.5 72.5q35 45 61.5 98.5t35.5 119.5q10 90 -23 167.5 t-95.5 133t-147.5 82t-179 18.5q-88 -4 -159.5 -42t-125 -97.5t-84 -134t-34.5 -152.5v-2zM456 57.5q1 -34.5 5 -57.5h6h63h5v2v2q0 14 2 53t4 80t4 73t2 34q-14 6 -31.5 4t-27 -2t-29.5 -8q0 -14 -1 -45t-2 -66t0 -69.5z" />
<glyph unicode="@" horiz-adv-x="1155" d="M68 770q0 -98 4 -182t10 -189q2 -29 11 -68.5t22.5 -79.5t32 -78t36.5 -64q49 -66 121 -103t154 -47q68 -6 141 -6q53 0 104.5 3t98.5 13q29 4 66.5 16.5t76.5 29t76 35t65 36.5l-34 68q-37 -18 -83 -37t-93.5 -34t-93.5 -26.5t-83 -13.5h2q-12 0 -28.5 -1t-32.5 -1 q-51 0 -123 2t-168 57q-55 35 -112.5 118t-67.5 237q-12 113 -12 161v111v46.5t2 45.5q2 43 5 90t15.5 114t44 110t60.5 73q41 41 125 60.5t178 12.5t150.5 -17.5t97.5 -37t98 -101t67.5 -167t12.5 -135.5v-57q2 -29 3 -58.5t-1 -64.5q0 -16 -2 -43t-6 -53.5t-27 -102.5 q-141 -63 -150.5 -9t-5.5 103.5t2 86t-2 102.5t2 92q4 104 -18 129l-6 4q-27 17 -57.5 24t-63.5 7q-39 0 -79 -9t-74.5 -24.5t-62.5 -35t-44 -40.5q-82 -94 -86 -227q-2 -57 8 -126.5t51 -117.5q68 -74 174 -73q98 0 166 55q10 -14 21.5 -25.5l15.5 -15.5q18 -10 40 -18.5 t44 -8.5q88 2 148.5 46.5t74.5 121.5q8 47 10.5 85t2.5 100v110q0 57 -3.5 118.5t-15.5 122t-37.5 116t-72.5 98.5q-47 45 -103.5 69.5t-116.5 32.5q-41 6 -84 10.5t-86 4.5q-25 0 -53 -1t-51 -6q-86 -10 -164 -36.5t-135 -98.5q-66 -84 -83 -181t-19 -196v-61zM430 526v6 q0 66 8 138.5t49 135t110 77t146 14.5q-2 0 -3 -35t1 -122t2 -105q0 -76 -8 -136.5t-121 -80.5q-72 -16 -121 10.5t-63 97.5z" />
<glyph unicode="A" horiz-adv-x="888" d="M8 4q82 0 89 1t9 1q23 125 32 173t32 173l543 -6q35 -129 46 -176t22.5 -92t23.5 -78h2q-3 -6 19 -6t69 6v2l-154 717q-8 35 -22 94t-30.5 131t-34 149.5t-33 146.5t-28.5 123t-20 81q-68 -6 -109.5 -7t-59 -1h-34t-30.5 -2q-68 -164 -109 -330t-75.5 -319.5t-60 -290 t-44 -240.5t-29 -170t-14.5 -80zM180 436q98 487 146.5 699.5t68 213.5t57 1h55t204.5 -914q-203 -4 -320 -4h-69q-118 2 -142 4z" />
<glyph unicode="B" horiz-adv-x="976" d="M84 712q-2 -116 -2 -234q0 -234 8 -470q10 -4 21.5 -4h23.5q74 -2 159 -8q73 -5 146 -5h24q85 1 165 12t145.5 44t111.5 93.5t62 156.5q7 40 7 75q0 23 -3 44q-8 53 -29.5 97t-51 84t-62.5 81q-10 12 -14 20.5t4 22.5q41 70 70.5 151.5t29.5 167.5q0 115 -37 194 t-100.5 129t-146.5 72.5t-173 26.5q-22 1 -45 1q-68 0 -137 -9q-92 -12 -174 -35l-2 -2q3 -178 3 -354t-3 -351zM166 472q-5 47 -5 78q0 58 17 60q230 14 275 14h3q40 0 172 -2t181 -146q30 -89 30 -150q0 -39 -12 -68q-55 -123 -103 -148.5t-160 -37.5q-61 -7 -124 -7 q-52 1 -104 5q-115 10 -146 14q-10 254 -24 388zM168 1054q4 155 4 234q0 53 -2 72q31 16 118 19t175 4h4q87 0 203 -47q118 -48 132 -221q3 -39 3 -73q0 -121 -37 -194q-43 -100 -68 -112q-24 -14 -136 -26q-61 -7 -125 -6q-53 0 -108 4q-120 10 -151 15q-14 54 -14 213 q0 53 2 118z" />
<glyph unicode="C" horiz-adv-x="999" d="M64 582q-1 50 -0.5 106.5t0.5 119.5q2 126 4 292q10 106 22 137q18 53 46 98t67 80q23 16 49.5 27.5t54.5 19.5q79 26 156 26q15 0 31 -1q92 -6 173 -42t146.5 -95.5t104.5 -135.5q38 -78 46 -168q4 -47 5 -94q0 -45 -4 -92q-61 -8 -82 -8q-12 0 -12 2q0 1 1 2q2 12 2 35 q0 34 -4 93q-6 97 -17 149.5t-89 152.5t-330 107h-5q-274 0 -275 -559q0 -47 2 -97q-1 -108 -1 -191.5t1 -142.5q4 -221 124 -291q100 -58 222 -57q24 0 49 2q143 17 241 143q76 97 77 271q0 51 -7 109q47 2 90 8q11 -67 12 -130q0 -50 -8 -96q-16 -106 -71.5 -190 t-144.5 -138t-201 -57q-38 -5 -77 -5q-37 0 -75 4q-78 10 -145.5 41.5t-113.5 89t-54 143.5q-4 74 -6 153t-4 179z" />
<glyph unicode="D" horiz-adv-x="987" d="M80 688q0 -178 6 -351t29 -335l2 2q129 0 266 1t272 5q78 96 148.5 205t91 170t22 61t1.5 3q18 94 21 191t7 194q-2 33 -5 64.5t-13 64.5q-18 82 -49 156.5t-74 144.5q-37 59 -97.5 107t-125.5 65q-30 -1 -60 -1t-62 1q-62 2 -126 3h-22q-52 0 -104 -4q-62 -5 -120 -20 q-2 -2 -3 -4t-3 -4q2 -102 2 -205q0 -76 -1 -154q-3 -182 -3 -360zM164 1346h2h14q218 11 270 11h7q41 -1 102.5 -3t152.5 -108.5t142 -342.5q9 -78 9 -158q0 -69 -7 -139q-55 -276 -122.5 -357t-139.5 -147h-64q-37 -4 -176 -8q-40 -1 -70 -1q-75 0 -91 7q-5 62 -17 312 q-8 161 -8 246q0 48 3 72q7 68 7 310t-14 306z" />
<glyph unicode="E" horiz-adv-x="985" d="M82 713q2 -174 6 -349.5t4 -353.5q138 -11 285 -11q64 0 130 2q168 5 332 5h93l4 74v4q-51 -1 -100 -1q-87 0 -170 4q-102 5 -340 6q-68 0 -148 -1l-2 2q6 177 6 294q0 44 -1 78q-1 30 -1 55q0 86 8 132q10 7 150 11q89 2 135 3q27 0 40 -1q36 -2 48 1t96 7 q-2 -6 -2 13.5t-2 57.5v3q-63 2 -126.5 2t-346.5 2l-2 2q-8 30 -8 111q0 69 6 177q10 200 10 273v20l2 2h7q289 9 356 9h34q50 0 101 -2h40q46 0 88 2q28 2 57 2q33 0 69 -2l2 77q0 2 -41 4.5t-108.5 2.5t-155.5 -2.5t-182.5 -4.5t-187.5 -5t-173 -7q-10 -176 -12 -350 q-1 -87 -1 -174t1 -174z" />
<glyph unicode="F" horiz-adv-x="1011" d="M84 4l2 -2q8 -4 57.5 -6t13.5 0t19 6q2 117 4 245q1 43 1 101q0 116 -3 295h2q342 10 394.5 10t144.5 -2h4q2 4 3 15.5t1 35t-4 31.5q-23 -2 -48.5 -2t-66.5 1t-142 1h-282q-2 0 -4 2q-8 44 -8 121v32q2 100 2 429q229 12 302 16q74 4 146 7q31 1 61 1q41 0 82 -2 q71 -4 236 -12q2 43 3 70q-57 14 -138 22q-80 7 -170 9q-27 0 -54 1q-64 -1 -129 -3q-93 -4 -176 -9.5t-148.5 -11.5t-100.5 -12v-2v-290t-1 -243t-1 -214t-1 -201.5t-1 -208v-230.5z" />
<glyph unicode="G" horiz-adv-x="985" d="M56 718q1 -59 4 -111t7.5 -105t10.5 -119q4 -41 11 -81t13 -62q25 -88 68 -147.5t125 -94.5q49 -20 103 -26q31 -4 63 -4q24 0 49 2q57 5 112.5 16.5t106.5 25.5q78 29 131 84.5t64 159.5q17 92 17 192q0 20 -1 40q-4 122 -16 231l-2 2h-4q-20 0 -79 5t-127 7 q-26 1 -52 1q-39 0 -76 -2q-60 -3 -86 -19l-4 -2q-2 0 -2 -2v-2q4 -37 10 -58q10 -4 29.5 -5t42.5 0h44h84q103 -1 115 -3q6 -2 7 -18.5t7.5 -37t13.5 -109.5q3 -37 3 -81q0 -63 -6 -141q-49 -135 -86 -151.5t-82 -37t-121 -24.5h-15q-73 0 -184 33q-45 29 -63 41 q-39 31 -81 90t-65 313q-4 51 -4 104q0 27 1 55q3 83 8.5 151.5t8.5 149.5t17 130q4 16 18.5 77.5t72 106.5t143.5 64q35 7 77 7q62 0 142 -17q133 -27 167 -128q29 -83 29 -133q0 -12 -2 -22q-5 -30 -5 -50q0 -15 3 -24q65 -23 79 -23h1q14 1 19 7l2 12q4 34 4 66 q0 84 -27 150q-37 91 -110.5 146.5t-176.5 76.5q-62 14 -128 14q-42 0 -87 -6q-55 -8 -106 -24.5t-92 -51.5q-59 -41 -85 -104.5t-36 -131.5q-10 -66 -14.5 -134t-6.5 -134q-1 -51 -1 -94v-40z" />
<glyph unicode="H" horiz-adv-x="1021" d="M79 1196v-89q0 -89 1 -183q2 -140 5 -279t7 -263t9 -223.5t10 -156.5q29 0 79 2q-3 53 -3 106v26v45q0 45 -1 91q-2 70 -2 377q176 12 319 12q79 0 148 -4l187 2q8 -291 9 -362.5t17 -284.5h2q30 -3 53.5 -3t41.5 3l-56 1434q-10 1 -23 1q-25 0 -59 -3v-131 q0 -320 8 -572h-2q-51 -4 -217 -8q-111 -3 -266 -2h-166h-2q-20 276 -28 696l-62 5h-4h-2v-2q-2 -104 -3 -234z" />
<glyph unicode="I" horiz-adv-x="532" d="M196 1094q1 -180 3 -516q1 -112 1 -214q0 -205 -3 -372q20 6 47.5 6t39 1t31.5 3q-8 140 -8 278q0 40 1 82q2 107 2 215q0 72 -1 143q-1 51 -1 102q0 128 4 255q5 178 5 355v8q-39 4 -55 6q-4 0 -10 3t-39 1v-4q-17 -163 -17 -333v-19z" />
<glyph unicode="J" horiz-adv-x="948" d="M8 590q-1 -28 -1 -59q0 -53 4 -112q7 -93 34 -178t78 -150.5t135 -90.5q74 -16 154 -16q20 0 40 1q103 5 189 48q94 35 142 108.5t67.5 163.5t21.5 187.5t7 181.5q1 64 1 127q0 135 -5.5 268.5t-5.5 265.5q0 62 1 123l-94 -4v-14q-6 -177 -6 -354q0 -66 1 -132 q3 -241 3 -442q-2 -31 -7 -122t-44 -184t-251 -127q-51 -8 -94 -8q-135 0 -188 81q-69 108 -79.5 209.5t-15.5 141.5t-7 70v11v2q-28 4 -59 4h-21z" />
<glyph unicode="K" horiz-adv-x="940" d="M83 718q-4 -145 -4 -289q0 -210 9 -419q27 -6 56.5 -7t58.5 7q-1 57 -7 208q-3 70 -3 132q1 72 5 134q5 75 4 126q0 28 -1 49q80 -70 187.5 -189.5t436.5 -465.5l123 4l-676 733q217 199 272.5 260.5t173.5 177t228 238.5h-131q-53 -66 -122.5 -133t-197.5 -188 t-211 -199q-81 -76 -83 -76q-3 0 -3 263q0 54 1 97.5t0 84.5q0 83 -2 161l-105 5v-110q0 -303 -9 -604z" />
<glyph unicode="L" horiz-adv-x="944" d="M74 -2q248 -4 396 -4t233 2t121 4t59 0q23 0 47 2q4 63 4 86q-16 -2 -58 -1t-96.5 3t-115 5t-113.5 5q-21 1 -57 1q-54 0 -140 -2q-144 -3 -159 -7v2q7 315 7 461v33q-1 140 -3 282t-3 282v56q0 111 3 217q-29 12 -64 17.5t-55 -2.5q2 -143 4 -261t4 -222.5t2 -205 t-1 -208t-5 -231.5t-10 -277v-37z" />
<glyph unicode="M" horiz-adv-x="1026" d="M84 303.5q0 -102.5 1 -165t3 -93.5t4 -39q2 -6 6 -6l113 6q-12 190 -15 387t-14 862l102 -203q101 -202 141 -291t83 -138q8 0 24.5 38.5t136 280.5t135 277.5t30.5 58.5q-2 -250 -2 -409q0 -199 3 -257q3 -54 3 -109q0 -49 -2 -99q-3 -80 -4 -158v-52q2 -102 6 -190 q25 0 45 -1t51 -5l6 653q6 109 6 217q0 86 -4 172q-4 96 -4 192.5t4 194.5q-33 0 -74 -3t-55 -1q-18 -25 -125.5 -232.5t-127 -262t-60.5 -127.5q-51 111 -149.5 310.5t-117 241.5t-36.5 62h-2q-78 -2 -105 -10q-2 -279 -3 -487.5t-2 -360t-1 -254z" />
<glyph unicode="N" horiz-adv-x="1019" d="M80 885q0 -193 3 -369t3 -371v-143q47 0 73.5 -4t49.5 2q-2 35 -2 79v91q-1 86 -9 432q-7 267 -6 374v48q1 20 1 39q0 54 -5 102q6 37 13.5 17.5t42.5 -90.5q403 -737 467.5 -834.5t132.5 -249.5q73 -8 88 -8h4v41q-7 51 -7 95q0 37 5 69q0 57 1 112.5t1 114.5v176 t-2 174v660q-44 9 -89 9q-15 0 -30 -1q0 -51 4 -95t15 -644q0 -74 3 -144.5t3 -177.5v-135q-16 23 -46 80t-255.5 452.5t-229.5 405.5q-18 43 -45.5 93t-40 74.5t-26.5 61.5q0 4 -39 10.5t-60 2.5q-10 -131 -14 -269.5t-4 -279.5z" />
<glyph unicode="O" horiz-adv-x="989" d="M60 664q8 -160 14 -320q2 -59 11 -117.5t38 -109.5q18 -41 47 -66.5t64.5 -42t75.5 -24t83 -11.5q30 -2 59 -2q28 0 58 2q58 4 117 21q63 16 119.5 46t91.5 79q37 59 55 132t22 144l7 68q6 85 6 167v42v51q0 78 4 160q1 34 1 68v33q-1 50 -5 101q-4 33 -11.5 65t-21.5 62 q-25 72 -84 125q-59 45 -134 69t-154 28q-16 1 -32 1q-63 -1 -125 -13q-78 -16 -147 -48q-27 -16 -47 -37q-63 -72 -84.5 -165t-24.5 -185q-6 -93 -6 -185q0 -69 3 -138zM150 637q-1 73 -1 132q0 163 8 226q11 86 27 164q25 86 97 141q129 59 226 59q16 0 30 -2 q106 -11 147 -28q47 -23 87 -70t44 -104q2 -35 5 -75t3 -42l13 -139v-285q0 -4 -5.5 -121.5t-7.5 -158.5q-4 -43 -8 -70.5t-13 -44t-17.5 -32t-26.5 -40.5q-31 -35 -76 -63q-46 -27 -188 -39q-33 -3 -61 -3q-97 0 -145 31q-64 40 -83 81q-20 68 -34.5 142.5t-20.5 340.5z " />
<glyph unicode="P" horiz-adv-x="1017" d="M76 1423q6 -170 7 -356t1 -370.5v-359.5t6 -325q35 -4 49.5 -3t42.5 9q2 0 3 1t3 1v3q-4 150 -5 237.5t-1 140v80t-2 56.5q60 -1 113 -1q265 0 337 17q88 20 165 77.5t130.5 141.5t65.5 182v52q-6 116 -53 198t-120 136.5t-167 81.5q-93 28 -193 36q-44 4 -89 4 q-55 0 -110 -6q-99 -10 -183 -33zM168 1366q64 18 214 22h41q120 0 187 -18q90 -24 167 -74q77 -48 117 -206q14 -57 14 -107q0 -89 -46 -161q-72 -110 -152.5 -154.5t-284.5 -47t-247 -4.5q-4 106 -7 368q-2 197 -2 270v34v27q0 26 -1 51z" />
<glyph unicode="Q" horiz-adv-x="1013" d="M61 481.5q0 -71.5 10.5 -138.5t36 -125t76.5 -107q31 -29 60.5 -49.5t63.5 -36t74 -24.5t91 -13q10 -1 21 -1q22 0 44 3q35 4 66 12t55.5 20.5t36.5 26.5q12 -16 38 -40.5t38 -24.5q64 39 64 54q0 3 -2 5q-17 12 -29 27.5t-27 31.5q133 133 146 183q8 29 10 53 q12 49 13 100t5 103q4 61 5 105t1 108q0 123 -12 245.5t-47 233.5q-35 82 -71.5 128t-82 68.5t-100.5 27.5t-127 5q-80 0 -147.5 -14t-121.5 -41t-91 -62.5t-52 -78.5q-20 -74 -29 -156t-12.5 -165t-3.5 -164v-152v-147.5zM143 606q2 37 2 66q0 43 1 78.5t1 79.5t3.5 80 t7.5 79q4 51 10 139.5t50 148.5t152 81q77 14 179 14q40 0 84 -2q74 -10 118 -47t64 -106q41 -154 57 -320q11 -110 11 -231q0 -63 -3 -128q-8 -194 -58 -264.5t-85 -111.5l-25.5 25.5t-19.5 20.5t-39 40l-59 -49q6 -13 32.5 -42.5t29.5 -40t-25 -30.5q-42 -20 -103 -20 q-60 0 -138 19q-159 38 -216 220q-16 66 -20 114t-8 99q-4 35 -4 64q0 13 1 24z" />
<glyph unicode="R" horiz-adv-x="1060" d="M68 1432q4 -27 7 -102t5 -180.5t5 -231t4 -253.5t1 -248v-212t-2 -148.5t-6 -56.5q10 2 41 -2q8 -1 17 -1q28 0 71 9q-2 39 -6 104.5t-7 138.5q-2 44 -2 103q0 40 1 86q2 116 2 178l391 -305l340 -309q27 4 129 4h-2q-314 301 -403 372t-310 261q50 -1 95 -1 q369 0 427 44q64 49 103 123q60 101 60 210v10q-3 114 -56 208t-149.5 157.5t-217.5 69.5q-80 9 -156 8q-67 0 -131 -6q-137 -14 -251 -30zM164 1372q183 18 303 18q56 0 98 -4q133 -12 208 -51t133 -125q42 -61 42 -159q0 -39 -6 -85q-24 -158 -131 -200q-73 -32 -267 -32 q-145 0 -356 18h-2q-4 23 -5 122t-1 133.5t-7 186.5t-9 178z" />
<glyph unicode="S" horiz-adv-x="993" d="M25 422q-1 -14 -1 -28q0 -94 36 -160q40 -76 110 -129.5t159 -83t179 -31.5h17q55 0 107 11q60 13 112.5 42t93.5 74t65 108q25 53 36 111.5t12 129.5v7q-1 66 -19 112q-20 48 -76.5 89t-168.5 59.5t-251 19.5t-214 63t-84 170q-1 15 -1 30q1 91 49 172q56 94 206 139 q58 17 118 17q97 0 202 -44q136 -58 136 -237q0 -43 -8 -94q18 -3 41 -3q29 0 65 5h2q10 54 10 101q0 86 -34 152q-54 100 -152 152q-49 23 -108 37q-58 13 -118 17q-19 1 -39 1q-41 -1 -81 -5q-59 -8 -109 -27q-98 -41 -166.5 -125t-92.5 -186q-12 -48 -12 -98 q0 -56 14 -110q28 -104 136 -166q93 -54 221 -54q21 0 43 2q33 2 65 2q115 0 204 -31q113 -39 127 -187q1 -13 1 -25q0 -153 -115 -255q-88 -78 -205 -77q-47 0 -98 12q-179 44 -247 129q-63 78 -64 175q0 8 1 17q-24 2 -50 2t-54 -2z" />
<glyph unicode="T" horiz-adv-x="907" d="M20 1442q0 -2 1.5 -2t1.5 -2q-2 -22 -2 -39q0 -21 3 -35q5 -25 9 -33q12 -4 42.5 -4t98.5 -1t125 -4t84 -3v-14q10 -502 13 -705q2 -152 2 -263v-70q-1 -129 -3 -195q-1 -33 -1 -51.5t1 -22.5q41 9 63 9h4q22 -1 64 5v2v2q-4 223 -6 388t-4 283q-2 119 -3 193v94v134 q1 154 2 175.5t-3 41.5q172 0 250 2h30q56 0 87 -6q6 42 6 82v20q-202 22 -415 22h-18q-222 -1 -432 -3z" />
<glyph unicode="U" horiz-adv-x="1034" d="M82 846q-2 -82 -2 -161q0 -182 10 -341q4 -94 47 -182t118 -128t167 -56q61 -10 119 -10q30 0 59 3q147 14 233.5 108.5t102.5 229.5q29 263 33 531q1 67 1 134q0 200 -9 396q-15 8 -47 8q-23 0 -54 -4q-3 -130 -3 -260q0 -108 2 -216q1 -60 1 -118q0 -174 -11 -332 q-15 -210 -131 -312q-79 -70 -192 -71q-52 0 -112 16q-188 47 -214 273q-15 129 -15 452q0 240 8 587h-109h-2l2 -2q2 -108 2 -217q0 -163 -4 -328z" />
<glyph unicode="V" horiz-adv-x="901" d="M33 1395q88 -430 153.5 -701.5t200.5 -687.5q25 -8 55 -8q9 0 18 1q40 3 56 3q111 328 201 645.5t194 753.5q-34 6 -69 7t-35 -3q-213 -823 -348 -1276q-94 281 -167 548t-107.5 481t-43.5 255q-16 4 -56 1t-52 -17v-2z" />
<glyph unicode="W" horiz-adv-x="952" d="M47 1423q6 -354 53 -708.5t97 -704.5h2q45 -6 77 -6q29 0 51.5 3t49.5 7q16 27 28.5 76t37 180t44.5 275h2q29 -188 52.5 -305t68.5 -234h25h74h37.5t31.5 4q29 356 67 708.5t68 706.5l-2 2q-67 7 -77.5 7t-45.5 -9v-2q-8 -90 -16 -226t-17.5 -263t-38 -434t-36.5 -389 q-12 31 -27.5 91t-73 344.5t-65.5 307.5q-53 0 -53 -2t-2 -6q-98 -483 -120 -566t-46 -169q-25 82 -64 417.5t-49 574t-18 329.5q-20 2 -52 0t-63 -7v-2z" />
<glyph unicode="X" horiz-adv-x="892" d="M-2 1411q242 -446 377 -659q-221 -492 -281.5 -583t-81.5 -167q18 -3 34 -3q22 0 41 5q34 8 30 0q57 106 120.5 216t235.5 474q92 -133 303 -696q47 2 92 6q-20 84 -46.5 171t-93 245t-157.5 330q223 428 261 508.5t67 171.5q0 2 1 2t1 2h-2q-20 1 -38 1q-35 0 -58 -3v-2 q-125 -270 -326 -607q-129 188 -229.5 362.5t-112.5 217.5q-6 10 -28.5 10t-108.5 -2z" />
<glyph unicode="Y" horiz-adv-x="890" d="M33 1417q20 -86 78.5 -200.5t111.5 -205.5t97.5 -166t136.5 -235q-82 -211 -250 -610h4q12 -2 54 0t54 0q88 209 155 369.5t151 336t161.5 351.5t135.5 360v2q-13 2 -33.5 3t-27.5 0t-34 -5q-18 -45 -91.5 -223t-213.5 -483q-86 125 -190.5 297t-206.5 411q-10 4 -30.5 1 t-61.5 -3z" />
<glyph unicode="Z" horiz-adv-x="970" d="M27 1413q3 -34 3 -56q0 -11 -1 -18q37 -1 101 3q32 2 66 2t70 -2q56 -3 205 -2h92h60q170 0 202 -5q-49 -84 -184 -318.5t-278.5 -464.5t-290.5 -454q2 -25 2 -46q0 -32 -4 -54q188 10 370 10h61q212 -2 406 -12v4q5 56 5 85q0 10 -1 17q-186 1 -275 1h-64 q-60 -1 -114.5 -2t-112.5 -5q-39 -3 -95 -3q-28 0 -60 1q342 526 740 1237q1 3 1 11q0 21 -7 79q-236 1 -461 7q-47 1 -93 2q-176 0 -343 -17z" />
<glyph unicode="[" horiz-adv-x="657" d="M88 4v-8q23 2 65 3t89 1h91h70l199 2q4 65 -4 100q-51 4 -109.5 6.5t-283.5 16.5v2q0 205 -5 351.5t-6 265t11 479.5l6 125q55 -4 191.5 1t191.5 1h4h2l8 96q-59 -6 -120.5 -4t-124 5t-126 4t-128.5 -7v-2q-12 -176 -16.5 -357.5t-4.5 -363.5t1 -363.5t-1 -353.5z" />
<glyph unicode="\" horiz-adv-x="843" d="M139 1436q4 -10 6 -17.5t7 -19.5q8 -29 28.5 -95.5t65.5 -201.5q20 -57 38.5 -113.5t37.5 -111.5q39 -113 76.5 -223.5t80.5 -221.5q10 -31 21.5 -61.5t23.5 -61.5l111 -295q4 -8 6 -10q12 -2 94 -4q-6 12 -12 31.5t-17.5 52.5t-23.5 62.5t-14 37.5q-72 203 -99.5 277 t-62.5 172t-96 264q-23 59 -77 223t-70.5 219.5t-31.5 112.5q-68 -4 -92 -16z" />
<glyph unicode="]" horiz-adv-x="657" d="M49 1446q59 -6 120.5 -4t124 5t126 4t129.5 -7v-2q12 -176 16 -357.5t4 -363.5t-1 -363.5t1 -353.5v-8q-23 2 -64.5 3t-88.5 1h-91h-71l-199 2q-4 65 4 100q51 4 109.5 6.5t284.5 16.5v2q0 205 5 351.5t6 265t-11 479.5l-7 125q-55 -4 -191 1t-192 1h-4h-2z" />
<glyph unicode="^" horiz-adv-x="901" d="M23 979q84 -4 107.5 -3t47.5 3q10 2 94 92t104.5 111.5t43 46t35.5 28.5q12 -6 31.5 -26.5t39 -43t122 -120.5t112.5 -98q51 6 84 10t37 2l-430 430q-117 -108 -209 -197.5t-219 -234.5z" />
<glyph unicode="_" horiz-adv-x="1331" d="M84 -190q0 -25 1 -40.5t2 -41t1 -31.5h82t201 -1t263 -2t270 -1h221.5h117.5q0 43 1 64.5t7 62.5h-2h-61h-134t-181.5 -1t-206 -2t-206 -2t-181 -2t-134 -2t-61.5 -1z" />
<glyph unicode="`" horiz-adv-x="522" d="M78 1339q6 -10 60.5 -66t89 -92t62 -62.5t38.5 -43.5q57 -6 87.5 -3t45.5 7q-35 33 -81 83t-89 90t-80 78t-61 65z" />
<glyph unicode="a" d="M39 545q0 -82 17.5 -178.5t54 -178.5t93 -137t136.5 -55q72 0 232.5 4t228.5 113v-46t1 -46.5t15 -24.5q-2 2 55 2q25 4 26 30.5t1 53.5q9 139 9 277q0 78 -3 156q-5 122 -5 247q0 93 3 188v21q0 12 -1 24.5t-3 24.5q-65 4 -70.5 5t-18.5 0t-13 -3q0 -53 -9 -104 q-20 37 -39.5 52t-50 30.5t-147.5 17.5q-58 1 -100.5 1t-67.5 -1q-72 -2 -135.5 -38t-109.5 -98.5t-72.5 -148.5t-26.5 -188zM131 489q0 51 3 104.5t18 104.5q22 96 114 174q85 72 212 72h20q133 -8 174 -33.5t72.5 -55.5t43 -115t11.5 -222q0 -111 -1 -199t-47 -144 q-47 -57 -109 -77q-57 -19 -142 -18h-17q-25 -2 -47 -2q-158 0 -222 96q-74 110 -83 315z" />
<glyph unicode="b" horiz-adv-x="950" d="M69 308v-62q0 -125 3 -244q82 0 114 -4q2 4 2 14q0 20 2 72q0 8 1 17q0 47 -11 116q33 -104 95.5 -156.5t146.5 -57.5q32 -2 61 -2q45 0 80 5q117 8 184.5 60.5t101.5 133.5t44 181t14 203q0 72 -9 139.5t-28.5 123.5t-51.5 96t-77 56q-55 20 -121.5 25.5t-182 5.5 t-176 -69.5t-64.5 -88.5q2 199 2 258.5v95.5t-1 55t-2 36.5t-2 39t-4 62.5v23q0 2 -36 4h-19q-27 0 -51 -4v-135q0 -170 -4 -340t-7 -335.5t-4 -323.5zM193 494q0 117 16 210t96 157.5t154 64.5q147 0 242.5 -43t99.5 -168q4 -109 7 -154t3 -86q0 -76 -19.5 -170t-59.5 -136 t-105.5 -61.5t-143.5 -19.5q-94 0 -165.5 78t-98 155.5t-26.5 172.5z" />
<glyph unicode="c" horiz-adv-x="905" d="M47 662q0 -135 1 -183.5t5 -129.5t24.5 -154.5t76.5 -122.5q72 -72 176 -90q56 0 126 -6q35 -3 69 -2q35 0 67 2q66 6 122 26.5t91 69.5q14 14 23.5 46t15.5 76t10 95t8 104q-22 6 -39.5 4t-46.5 9q1 -14 1 -38q0 -36 -2 -96q-3 -100 -75 -168q-59 -55 -208 -54 q-34 0 -73 2q-208 16 -243 151q-31 121 -31 171v11q-5 122 -5 210q0 107 8 161q14 100 37.5 142t88.5 54q87 6 159 6q139 0 227 -20q127 -29 126 -315v-31q27 -4 40.5 -5t39.5 5q-2 68 -3 126t-9 105t-23.5 82t-44.5 56q-43 41 -102 61t-125 25q-23 2 -44 2q-19 1 -37 -1 l-32 -2q-23 0 -47 3q-49 0 -97 -6.5t-90 -21.5t-74 -37.5t-46 -53.5q-6 -20 -18.5 -59.5t-14.5 -61.5q-12 -74 -12 -147z" />
<glyph unicode="d" horiz-adv-x="948" d="M43 584q2 -102 13.5 -202.5t45 -181.5t101 -133.5t184.5 -60.5q29 -4 65 -4q60 0 140 10q129 16 172 142q6 -35 8 -77t2 -63q0 -10 2 -14q27 -4 50 -4q29 0 53 6q3 128 3 262q0 177 -6 367q-10 334 -10 676v135q-31 3 -52 3q-42 0 -44 -11v-23q-1 -16 -1 -38q0 -33 2 -79 q2 -57 2 -82v-12v-20q0 -64 3 -326q-4 18 -66 95q-64 77 -182 85q-33 2 -66 2q-85 0 -169 -14q-117 -20 -155 -69.5t-57.5 -105.5t-28.5 -124t-9 -139zM137 514v154q11 280 229 296q37 3 70 3q160 0 220 -66q72 -80 88 -167t20 -202q0 -100 -5 -181t-52.5 -147.5t-100.5 -87 t-147 -20.5q-80 0 -142.5 14.5t-93 52.5t-54.5 110.5t-32 240.5z" />
<glyph unicode="e" horiz-adv-x="909" d="M43 582q-1 -28 -1 -56q0 -56 5 -112q8 -84 30.5 -159t59.5 -137.5t92 -101.5q49 -29 107 -36q58 0 126 -4q34 -2 68 -2q33 0 66 2q66 4 121 24t90 70q14 12 23.5 43.5t15.5 75.5t10 95.5t8 104.5q-23 6 -49.5 2t-46.5 -2q1 -14 1 -29q1 -77 -17 -185q-20 -130 -232 -136 h-26q-190 0 -256 84q-70 90 -83.5 156.5t-16.5 105.5t-5 100v37q21 -4 66 -6t195 -6q100 -3 160 -3q30 0 50 1q62 2 116 6t94 8t54 8q3 43 3 85.5t-3 84.5q-6 84 -35.5 154t-87 119t-151.5 65q-68 17 -140 17q-6 -1 -12 -1q-78 -2 -147.5 -23t-124.5 -63t-82 -102 q-25 -68 -32 -138.5t-13 -145.5zM142 620q-1 6 -1 16q0 20 4 52q8 59 28 115.5t60.5 93.5t102 60.5t160.5 23.5q47 0 75.5 -4t73.5 -21q82 -55 117 -143t39 -166v-36t-22.5 -14t-70.5 -6q-21 -1 -54 -1q-43 0 -107 2q-101 -4 -168 -4q-33 0 -59 1q-74 3 -124.5 7t-53.5 24z " />
<glyph unicode="f" horiz-adv-x="776" d="M23 903l6 -102q16 1 39 1q34 0 82 -2q34 -1 59 -1q34 0 53 2q0 -31 -1 -121t-2 -163t-1 -150.5t1 -148.5t2 -127t5 -81q27 -4 49.5 -3t11 1t23.5 -4v275v522q63 -2 180 -4q29 -1 58 -1q87 0 170 5q2 74 6 96l-406 -4q-1 78 -1 140q0 194 9 232q13 50 115.5 50h184.5 t106 -2q4 29 4 47t-10 49q-48 2 -130 2t-198 -2q-176 0 -180 -189q-2 -94 -2 -174t2 -147q-33 2 -112.5 3t-122.5 1z" />
<glyph unicode="g" horiz-adv-x="956" d="M45 365q4 -63 16.5 -124t40.5 -116q18 -39 47 -63.5t65 -39t76 -20.5t79 -6q29 2 150.5 7t160.5 9t66.5 14.5t48.5 32.5q-2 -19 -2 -36.5t2 -34.5q2 -16 0 -38t-2 -142.5t-265 -131.5q-27 -1 -50 -1q-220 0 -259 87q-43 97 -43 150q-35 6 -57 6q-18 0 -27 -4 q-2 -16 -1 -38.5t6 -47.5t12.5 -48.5t15.5 -37.5q47 -70 123 -111t172 -41q84 0 137 -2q18 -1 32 -1q28 0 42 3q24 2 53 8.5t57.5 21.5t58 42t58.5 72q18 30 18 72v9q-1 19 -1 39q0 29 2 58q11 272 11 531v43q-1 280 -9 536h-97q-6 -10 -5 -27.5l2 -35t0 -28.5t-9 -7 q-25 57 -81 78q-44 17 -204 17q-44 0 -98 -1q-131 -8 -200.5 -74.5t-101.5 -164t-36 -208t-4 -206.5zM135 459v30v64t8 68q18 156 40 195.5t86.5 81.5t134.5 46q48 3 92 3q23 0 44 -1q66 -2 115.5 -19.5t108.5 -105.5q26 -52 26 -207v-17q-2 -169 -3 -276.5t-12 -139 t-39.5 -51t-63.5 -30.5q-104 -29 -280 -33h-9q-168 0 -229 146q-22 113 -22 194q0 28 3 52z" />
<glyph unicode="h" horiz-adv-x="917" d="M70 728q0 -144 1 -279.5t2 -253t1 -201.5q49 4 49 2t47 6v8q1 97 1 179q0 203 -4 311q-1 21 -1 41q0 125 28 221q32 110 132 166q66 37 159 38q49 0 106 -10q163 -29 163 -170l-2 -260q-2 -238 -3 -301t-1 -122.5t4 -106.5h10q27 0 86 8q-3 47 -3 103q0 28 1 59 q2 92 4 191.5t3 196.5v48q0 70 -2 131q-3 82 -14.5 140.5t-31.5 76.5q-43 36 -117 64q-71 27 -209 27h-10q-145 -1 -202.5 -42t-92.5 -81v83.5t-1 78t-1 99v129v104.5t-2 54q0 6 -16.5 7.5t-36 3.5t-43.5 4q-2 -90 -3 -212t-1 -259.5v-281.5z" />
<glyph unicode="i" horiz-adv-x="423" d="M168 781q2 -128 2 -235.5v-216v-333.5q14 4 36 6q8 1 19 1q22 0 60 -3q-11 181 -11 361q0 79 2 157q7 258 9 506v6q-66 3 -92 3q-13 0 -15 -1v-2q-10 -104 -10 -213v-36zM170 1473q-1 -27 -1 -52q0 -61 4 -107q5 -64 5 -124q31 0 105 4q-2 49 -2 87t-1 76t-2.5 69.5 t-1.5 43.5z" />
<glyph unicode="j" horiz-adv-x="417" d="M-246 -285q-2 -15 -2 -39t2 -59q36 -2 74 -2q47 0 96 3q88 5 166 23.5t138.5 55.5t86.5 100q29 119 30 200t2 170q1 45 1 90t-1 90q-1 91 -1 192q-3 25 -3 60q0 18 1 39q2 62 3 131t1 137.5t-6 117.5q-14 2 -35 2t-51 -2l4 -285q-4 -122 -4 -248q0 -83 2 -168 q1 -53 1 -102q0 -149 -9 -264q-12 -154 -81 -188.5t-178.5 -43t-155.5 -10.5q-23 -1 -43 -1t-38 1zM236 1473q-1 -34 -1 -63q0 -55 3 -96q6 -65 6 -116q29 -4 51 -4h15q26 2 34 14q0 31 -1 71t-2 78t-2 69.5t-1 43.5z" />
<glyph unicode="k" horiz-adv-x="890" d="M72 748q-3 -133 -4 -268q0 -237 10 -480q45 0 94 4q-6 68 -6 111v96t-2 163.5t-2 155.5q322 -266 426 -356t203 -182q15 -1 26 -1q29 0 43 4q18 5 47 5q-164 145 -268 235.5t-408 348.5q262 180 327 228t331 237q-29 2 -121 4q-84 -55 -213 -143.5t-393 -274.5 q-4 31 -4 107q0 38 1 86q3 146 3 214v449q-53 -4 -84 -4v-142q1 -300 -6 -597z" />
<glyph unicode="l" horiz-adv-x="421" d="M155 1116q1 -186 7 -372q6 -188 9 -374q1 -33 1 -65q0 -153 -12 -305q14 4 30.5 1t39 -2t32.5 13q-4 82 -6 200t-2 253t1 280.5t3 280.5t4 254t2 203l-92 6q-17 -176 -17 -353v-20z" />
<glyph unicode="m" horiz-adv-x="1400" d="M71 498q5 -252 5 -504q24 2 48 2t48 -2v8v162q0 62 1 120v40q0 40 -1 86q-1 23 -1 47q0 46 3 94q3 37 3 83l-1 53q0 75 66 154q68 81 212 90q19 1 37 1q115 0 151 -52q37 -52 37 -163q0 -16 -1 -33q-6 -137 -9 -266t-4 -192.5t-1 -123t4 -106.5q61 0 104 6q-3 49 -3 112 v33q1 84 3 171.5t4 176.5q1 30 1 56q0 53 -3 92v37q0 73 6 130q8 70 88 108q62 29 152 29q26 0 55 -2q127 -11 152 -89q19 -58 19 -142v-8v-53q0 -45 1 -61q-2 -174 -5 -238.5t-4 -128t-1 -123t4 -106.5h14q35 0 76 8q-3 47 -3 103q0 28 1 59q2 92 4 191.5t3 196.5 q0 24 1 48q0 70 -3 131q-3 82 -14 140.5t-32 76.5q-43 37 -96 52q-52 14 -186 17h-29q-112 1 -163 -21q-58 -24 -74.5 -43t-26.5 -25q-10 25 -21 35q-42 37 -114 47q-45 6 -96 6q-30 0 -62 -2q-86 -6 -142.5 -37t-91.5 -78q-2 29 -1 51.5t-3 57.5q0 6 -16 7t-42 1t-50 2 q-5 -166 -5 -325q0 -100 2 -197z" />
<glyph unicode="n" horiz-adv-x="921" d="M73 498q5 -252 5 -504q49 4 112 4v8q2 68 2 136q0 8 1 16q1 60 -3 120q-4 68 -6 204q-1 45 -1 84q0 76 3 124q4 55 32 102.5t92 81.5q65 34 249 50q18 2 34 2q151 0 157 -128q6 -142 6 -224t-5.5 -181.5t-6.5 -163t-1 -123t5 -106.5q80 0 104 4q-3 47 -3 103q0 28 1 59 q2 92 4 191.5t3 196.5v48q0 70 -2 131q-3 82 -14.5 140.5t-31.5 76.5q-43 38 -97 52q-47 13 -95 12h-14q-56 -2 -183 -24.5t-170 -53.5q-10 -8 -25.5 -16.5t-25.5 -14.5q-2 29 -1 51.5t-3 57.5q0 6 -16.5 7t-47.5 -1t-55 0q-5 -166 -5 -325q0 -100 2 -197z" />
<glyph unicode="o" horiz-adv-x="917" d="M49 666q4 -45 4 -97q0 -26 -1 -53q-1 -35 -1 -70q0 -47 2 -93q4 -81 24.5 -154.5t76.5 -122.5q72 -72 176 -90q56 0 126 -6q35 -3 69 -2q35 0 67 2q66 6 122 26.5t91 69.5q20 20 31.5 75.5t18.5 125t10 145.5t5 135q-2 68 -4 132.5t-10 118.5t-24.5 95t-45.5 60 q-43 41 -102 62.5t-125 25.5q-25 2 -48 2q-17 0 -33 -1t-33 -1q-22 0 -46 2q-49 0 -97 -6.5t-90 -21.5t-74 -37.5t-46 -53.5q-16 -45 -23.5 -71.5t-9.5 -49.5q-6 -39 -8 -75t-2 -72zM131 586v39q0 77 6 131q8 68 47 129q53 67 213 90q35 3 69 3q97 0 186 -26 q120 -34 120 -178q10 -121 10 -210q0 -32 -1 -60q-5 -106 -5 -182q0 -201 -108 -238q-72 -25 -155 -30q-29 -2 -55 -1q-50 -1 -94 5q-66 10 -129 46.5t-79 167.5q-23 212 -25 314z" />
<glyph unicode="p" horiz-adv-x="950" d="M69 716q1 -159 4 -324t7 -335t4 -340v-135q33 -6 62.5 -5t29.5 11v23q2 41 3 62.5t2 39t2 37t1 55v95t-2 155.5q4 -18 45 -32.5t183 -21.5q84 -4 141 -4q41 0 69 2q66 5 121 26q45 16 77 56t51.5 96t28.5 124t9 139q0 127 -12 215t-46 169t-101.5 133.5t-184.5 60.5 q-22 3 -54 3q-49 0 -121 -7q-118 -13 -181 -80q-23 -33 -20 -17.5t-1 25.5q-2 47 -2 68q0 10 -2 14q-47 -2 -110 -2q-3 -118 -3 -243v-63zM168 463v182t28.5 144.5t97 102.5t157.5 52q31 3 60 3q81 0 147 -25q90 -33 120.5 -133.5t38.5 -169t13 -143.5q2 -14 2 -32 q0 -71 -19 -190q-57 -158 -140 -168t-249 -10q-86 0 -141.5 24.5t-80 60.5t-29.5 105.5t-5 196.5z" />
<glyph unicode="q" horiz-adv-x="948" d="M41 440q0 127 12.5 215t46 169t101 133.5t184.5 60.5q22 3 54 3q49 0 121 -7q118 -13 181 -80q23 -33 20 -17.5t1 25.5q2 47 2 68q0 10 2 14q47 -2 111 -2q3 -118 3 -243v-63q-1 -159 -4.5 -324t-7.5 -335t-4 -340v-135q-33 -6 -62.5 -5t-29.5 11v23q-2 41 -3 62.5t-2 39 t-2 37t-1 55v95t2 155.5q-4 -18 -45 -32.5t-183 -21.5q-84 -4 -141 -4q-41 0 -69 2q-66 5 -121 26q-45 16 -77 56t-51.5 96t-28.5 124t-9 139zM118 476q-1 -14 -1 -30q0 -72 18 -192q58 -158 140.5 -168t248.5 -10q86 0 141.5 24.5t80 60.5t29.5 105.5t5 196.5v182 t-28.5 144.5t-97 102.5t-156.5 52q-31 3 -60 3q-81 0 -147 -25q-90 -33 -121 -133.5t-39 -169t-13 -143.5z" />
<glyph unicode="r" horiz-adv-x="606" d="M73 498q5 -252 5 -504q16 -1 30 -1q35 0 60 7v8v248v236.5t-2 128t-4 122.5q-1 16 -1 29q-1 71 17 93q20 26 75.5 41.5t95.5 21.5q39 6 91 7h6q48 0 80 -15l23 -13v105q0 2 -30 3h-21q-23 0 -52 -1q-43 -2 -92 -9.5t-88 -19.5q-29 -10 -58.5 -22.5t-37.5 -16.5 q0 15 -1 21t-1 11v13v25q0 4 -17.5 5t-34 -1t-40.5 0q-5 -166 -5 -325q0 -100 2 -197z" />
<glyph unicode="s" horiz-adv-x="921" d="M23 311q0 -82 33.5 -147.5t94 -110.5t144.5 -67q71 -19 157 -20q15 0 31 1h11q112 0 208 41q100 43 148 144q31 89 31 155q-1 19 -3 35q-10 76 -82 146q-68 66 -231 65h-19h-41q-147 -1 -212 25q-74 30 -111 74t-42 106q-1 9 -1 17q0 55 27 113q30 68 182 99 q63 13 125 13q85 0 165 -25q138 -43 152 -141q9 -68 9 -101q0 -14 -2 -22q27 -7 53 -7q22 0 43 5q0 110 -41 197t-109.5 117t-138 36t-133 6t-120 -6t-95.5 -17q-100 -27 -154.5 -102.5t-57.5 -164.5v-9q0 -84 54 -152q58 -72 172 -112q57 -25 126 -30q34 -2 80 -2 q44 0 100 2h20q98 0 150 -45q59 -51 58 -135q0 -82 -83 -174q-72 -79 -230 -80q-27 0 -57 3q-202 15 -266 109q-54 80 -55 150q0 12 2 24q-11 3 -29 3q-25 0 -63 -5v-5v-6z" />
<glyph unicode="t" horiz-adv-x="792" d="M29 852q43 0 149 -2q53 -1 87 -1t50 1q-1 -57 -1 -112q0 -124 4 -238q4 -166 10 -295t66.5 -169t174 -40t195.5 4q5 16 5 36t-5 46q-18 -1 -38 -1t-43 1q-46 2 -150.5 3t-112.5 110q-6 68 -6 302v365l350 -4q6 39 4 57.5t-8 34.5q-113 -6 -200 -8t-150 -4q0 31 -1 59.5 t-1 55.5v352q-54 0 -57 1t-29 -3q-4 -39 -5.5 -88t-1.5 -112.5t2 -144.5t2 -126q-33 0 -138 2t-146 4z" />
<glyph unicode="u" horiz-adv-x="921" d="M64 470v-57q0 -65 2 -122q4 -82 12 -134.5t43 -88t88 -50t146.5 -14.5t198.5 19.5t147 49t53 36.5q2 -29 4 -109q0 -6 11 -7t21.5 1t55.5 10q5 166 4 325q0 100 -1 197q-5 252 -5 504q-51 -4 -88 -14v-8q2 -68 3 -135.5t4 -213t5 -215.5v-36q0 -56 -4 -124 q-6 -91 -152 -156q-114 -51 -235 -51q-33 1 -69 5q-156 18 -156 236v6q2 224 2 313.5t1 153t1 123t-4 106.5h-82q3 -47 3 -103q0 -28 -1 -59q-2 -92 -4 -191.5t-4 -196.5z" />
<glyph unicode="v" horiz-adv-x="878" d="M23 1024q66 -242 90 -309.5t268 -710.5q51 0 67.5 -1t49.5 5q137 350 185 469t99.5 273.5t94.5 271.5h-22q-33 0 -67 -4q-92 -270 -166.5 -467t-112.5 -293t-67 -154q-49 109 -108.5 255.5t-220.5 662.5q-12 -3 -30 -3q-24 0 -60 5z" />
<glyph unicode="w" horiz-adv-x="1398" d="M23 1024q123 -577 213 -1030h129q170 444 352 952q217 -616 321 -950q39 0 50.5 -2t52.5 4q102 385 129.5 500.5t126.5 523.5q-62 4 -98 4h-21q-63 -307 -188 -909q-156 514 -208.5 672.5t-66.5 232.5q-27 5 -87 5h-20q-74 -1 -75 -2q0 -5 -80 -239q-82 -238 -244 -698 q-53 279 -71.5 368t-34 187t-29.5 193.5t-29 183.5z" />
<glyph unicode="x" horiz-adv-x="845" d="M4 1018q129 -156 163 -204t210 -282q-106 -172 -166.5 -252.5t-192.5 -277.5h99l313 453q104 -139 289 -451h2q20 -2 55 -2t45 -2q-102 168 -129.5 212t-206.5 318q131 195 210 304.5t149 189.5q2 0 2 2h-2q-27 0 -58.5 -1t-50.5 -3q-197 -266 -303 -418 q-131 160 -321 410q-2 2 -19 2z" />
<glyph unicode="y" horiz-adv-x="919" d="M-14 -264q-9 -23 -9 -46q0 -26 11 -52q37 -2 72 -2q128 0 222 28q119 37 200 107.5t130.5 167t81 203t53 217t47 214t51 215t58.5 234.5l-102 -6q-25 -61 -138.5 -568t-191.5 -516q-57 41 -358 1088q-29 5 -67 5q-19 0 -40 -1q63 -231 125 -420.5t234 -712.5q4 -14 4 -27 q0 -61 -92 -102q-76 -33 -183 -33q-50 0 -108 7z" />
<glyph unicode="z" horiz-adv-x="933" d="M47 96q3 -31 3 -63q0 -16 -1 -31q98 0 204.5 1t215.5 3t214 4t200 4l-2 97q-83 -12 -240 -12q-55 -1 -117 1q-100 2 -176 3q-111 0 -172 -5q324 391 493 562t220 268v90q-8 4 -44 3t-218 -1q-111 0 -257.5 -1t-312.5 -1q1 -22 1 -47t-1 -51q45 6 278.5 6t295 2t151.5 6 q-88 -106 -258 -284.5t-299 -334t-178 -219.5z" />
<glyph unicode="{" horiz-adv-x="651" d="M27 662q4 -2 16 -3q80 4 126 -33.5t67.5 -96t22.5 -154.5t-7 -154q-2 -47 20.5 -90t66.5 -74.5t108.5 -48t150.5 -6.5q4 47 0 70q-201 29 -225.5 52t-35.5 55t-13 70t0 73q4 86 -12.5 189t-129.5 198q127 88 143.5 182t12.5 155.5t-6 121t18 100.5q25 70 119 60.5 t127 0.5q4 4 -4 60q-49 4 -94 3t-105 -8q-39 -6 -67.5 -27.5t-47 -53t-23.5 -71.5t3 -81q6 -129 2 -193.5t-28.5 -115.5t-72.5 -81t-128 -22q-8 -18 -4 -77z" />
<glyph unicode="|" horiz-adv-x="411" d="M168 3v-54q6 0 30.5 -1t55.5 -5h18v77.5v177v242.5v276.5t-1 276.5t-1 242.5t-1 177.5t-1 78v2l-100 -6v-256v-82v-157v-205.5v-228.5v-225.5v-193.5v-136z" />
<glyph unicode="}" horiz-adv-x="651" d="M51 2q-4 47 0 70q201 29 225.5 52t36 55t13.5 70t0 73q-4 86 12 189t129 198q-127 88 -143.5 182t-12.5 155.5t6 121t-18 100.5q-25 70 -119 60.5t-127 0.5q-4 4 4 60q49 4 94.5 3t104.5 -8q39 -6 67.5 -27.5t47 -53t23.5 -71.5t-3 -81q-6 -129 -2 -193.5t28.5 -115.5 t73 -81t127.5 -22q8 -18 5 -77q-4 -2 -17 -3q-80 4 -126 -33.5t-67.5 -96t-22.5 -154.5t7 -154q2 -47 -20.5 -90t-66.5 -74.5t-108.5 -48t-150.5 -6.5z" />
<glyph unicode="~" horiz-adv-x="1167" d="M35 283q39 4 62.5 4t54.5 -4v4q26 131 74 223t147 117q57 10 102 -13.5t88 -138.5q53 -174 130 -197.5t161 -11.5q68 12 120 56.5t84 104.5t44 131t2 136v4l-98 -4q14 -104 -13.5 -208.5t-154.5 -129t-163 96t-58.5 157.5t-63.5 66q-43 31 -90 40t-95.5 1t-93.5 -31.5 t-79 -58.5q-27 -31 -50.5 -76t-45 -95t-39 -96.5t-25.5 -76.5z" />
<glyph unicode="&#xa1;" horiz-adv-x="442" d="M152 1265.5q0 26.5 6 26.5h88h14q0 -59 2 -123.5t4 -121.5q-31 0 -54.5 -3.5t-47.5 7.5v2q0 29 -4 69.5t-6 78.5t-2 64.5zM163 133q-1 137 1 272.5t3 270.5t-1 270h2l52.5 -3t53.5 -7q-12 -262 -9 -541.5t7 -541.5q-37 -4 -51 -2t-43 6h-6q-8 139 -9 276z" />
<glyph unicode="&#xa2;" horiz-adv-x="716" d="M64.5 599q1.5 -67 2.5 -121t3 -103q6 -59 36.5 -98t76.5 -60.5t98 -28.5q25 -4 47 -4v-133q45 0 65 6h4q2 59 2 131q66 6 119 39q61 37 99 93.5t48.5 128t-1.5 151.5q-29 -2 -62 -4q20 -172 -47 -256q-63 -80 -154 -96v139q2 162 1 320.5t-3 318.5v125q98 -27 136 -74 q53 -68 61 -103.5t12 -101t0 -86.5q-6 -6 64 4q4 63 -1 125t-31 113t-70 91t-99 65q-35 18 -72 26l2 135h-2q-25 -2 -36 -4t-37 -8q2 -59 2 -121q-49 0 -101 -16q-18 -6 -36.5 -13.5t-32.5 -19.5q-27 -23 -45.5 -53.5t-30.5 -65.5q-8 -20 -14 -94q-2 -111 -3.5 -195.5 t0 -151.5zM127 477q-2 78 0 225q-18 446 201 443q4 -224 4 -455q-2 -225 -4 -448q-63 6 -119 39q-82 47 -82 196z" />
<glyph unicode="&#xa3;" horiz-adv-x="995" d="M38 655.5q1 -12.5 5 -92.5q4 -2 15.5 -2h40h102t151.5 -2q4 -182 8.5 -307t-4.5 -229q10 -8 51.5 -12.5t93.5 -5.5t167.5 -1h273.5q2 8 4 21.5t12 85.5q-6 0 -32.5 2t-65.5 4t-84 5t-120.5 5t-106.5 3t-41 3q-2 2 -7 20.5t-10.5 184.5t-7.5 186.5t2 26.5q16 0 33 1 t44.5 2t109.5 1t155 -2q-6 6 1.5 45t0.5 86h-2q-12 -4 -27.5 -6t-43 -1t-109.5 3t-160 6q4 164 4.5 346t-4.5 348v2q-27 -6 -28.5 -9t-14 -4t-41 0t-34.5 1q-4 -12 -7.5 -75.5t-4.5 -152.5t-1 -223.5t4 -224.5h-2h-10h-6q-31 -4 -63.5 -2t-89 4t-87 -1t-61.5 -15 q-2 -2 -2 -6q-2 -6 -1 -18.5z" />
<glyph unicode="&#xa4;" horiz-adv-x="1243" d="M37 135q84 -98 100 -96q51 70 85 115t57 75q252 -41 425 -27.5t267 31.5q82 -150 121 -192q14 -2 112 84q-31 45 -62.5 79t-90.5 115q41 113 44 165.5t3 127.5q-12 219 -21 260q-12 68 -41 119q45 51 89 100.5t81 92.5l-82 88q-47 -51 -75.5 -78t-79.5 -74 q-59 10 -187.5 26.5t-214.5 8.5q-147 -8 -211.5 -23.5t-81.5 -17.5q-59 64 -81.5 86.5t-67.5 71.5l-88 -88q27 -37 40 -51.5t25.5 -26.5t31 -31.5t54.5 -68.5q-12 -47 -19 -111t-9 -131.5t0 -132t6 -203.5q4 -27 8 -52.5t14 -56.5v-2q-10 -12 -20 -26.5t-27.5 -34.5t-42 -49 t-61.5 -72zM268 512q-10 258 4 346q27 133 148 170q98 21 207.5 22t220.5 -34q51 -16 86 -66q43 -59 47 -180t6 -265.5t-153 -189.5q-78 -12 -200 -15t-200 5q-84 14 -125 72.5t-41 134.5z" />
<glyph unicode="&#xa5;" horiz-adv-x="1085" d="M45 246q12 0 91 -2t190 -4q53 0 108 -2q-47 -109 -100 -238h4q12 -2 54 0t54 0q53 127 99 238h20q129 -2 241 -4.5t128 -2.5h14q-4 63 -8 123h-346q4 8 6 15q29 70 59 141q76 -2 146 -2q113 -2 129 -2h14q-4 63 -8 123h-225q18 37 37 76q84 176 161.5 352t135.5 360v2 q-12 2 -33 3t-28 0t-34 -5q-18 -45 -92 -223t-213 -483q-86 125 -190.5 297t-206.5 411q-10 4 -30.5 1t-61.5 -3q20 -86 78.5 -200.5t111.5 -205.5t96 -167q41 -70 127 -215h-522q0 -6 -1 -36t-3 -38t-2 -35q12 0 91 -2t190 -4q102 0 219 -2q-29 -70 -64 -158h-430 q0 -6 -1 -35.5t-3 -38t-2 -34.5z" />
<glyph unicode="&#xa6;" horiz-adv-x="301" />
<glyph unicode="&#xa7;" horiz-adv-x="1775" />
<glyph unicode="&#xa8;" horiz-adv-x="714" d="M144 1119.5q1 -29.5 6 -50.5h6l80 -2h4v2v2q0 14 2 47t4 69t4 62.5t2 28.5q-14 6 -50 5t-55 -7q0 -12 -1 -39t-2 -57.5t0 -60zM468 1119.5q1 -29.5 5 -50.5h6l80 -2h4v2v2q0 14 2 47t4 69t4 62.5t2 28.5q-14 6 -50 5t-54 -7q0 -12 -1 -39t-2 -57.5t0 -60z" />
<glyph unicode="&#xa9;" horiz-adv-x="1132" d="M75 707.5q1 -101.5 17 -201.5q10 -86 64.5 -145.5t144.5 -100.5q53 -16 108.5 -22.5t112.5 -6.5q53 4 109.5 7.5t112 12.5t104.5 30.5t90 62.5q74 70 98 166q8 84 19.5 173t7.5 172t-31.5 155.5t-97.5 122.5q-6 4 -12.5 8t-12.5 8q-41 27 -84 42t-86 23q-82 16 -166 13.5 t-167 -6.5q-72 -10 -137.5 -42t-110.5 -89q-68 -80 -76 -177q-8 -104 -7 -205.5zM153.5 710.5q-6.5 112.5 8.5 225.5q8 72 61 130t139 73q6 0 7.5 1t5.5 1q186 23 373 0q63 -12 120.5 -40t83.5 -63q37 -41 40 -91t5 -99q2 -66 -1 -135.5t-7 -132.5q-8 -43 -20.5 -88.5 t-38 -80t-62.5 -60t-84 -34.5q-90 -18 -187 -19t-179 -7q-47 2 -93 16.5t-80 42t-56.5 61t-22.5 76.5q-6 111 -12.5 223.5zM365 684q0 31 4 166q2 33 8 57q16 45 51 76q23 16 47 23h-4q27 8 68 8q84 0 143 -61.5t59 -147.5q0 -33 -8 -60q-20 -4 -33 -4q-8 0 -32 4 q2 20 0 58.5t-6 54.5q-2 16 -31 51q-20 31 -109 31q-90 0 -80 -225l-2 -70l2 -53q0 -64 35 -89.5t90 -19.5q43 6 71 44t28 110q0 27 -2 41q35 0 69 6q4 -18 4 -55q0 -88 -46 -149.5t-126 -65.5q-8 -2 -26 -2q-61 0 -111.5 30.5t-56.5 89.5q-6 66 -6 152z" />
<glyph unicode="&#xaa;" horiz-adv-x="565" d="M63 1233q0 -41 9.5 -90t27 -90t44 -69t65.5 -28q35 0 112.5 2.5t110.5 57.5v-23.5v-24t6 -12.5q0 2 27 2q12 2 13 15.5t1 25.5q6 111 2 218.5t0 218.5v10q0 6 -1 12t-1 12q-33 3 -35 4t-8 0l-6 -1q0 -27 -4 -54q-10 18 -19.5 26.5t-24.5 15.5t-71.5 8t-81.5 1 q-35 -2 -64.5 -19t-52 -49t-36 -75t-13.5 -94zM109 1204q0 27 2 53.5t8 53.5q10 47 55 86t111 37q66 -4 85 -17.5t34.5 -28t20.5 -57.5t5 -112v-99.5t-22.5 -73t-52 -39t-76.5 -8.5q-94 -8 -129 47.5t-41 157.5z" />
<glyph unicode="&#xab;" horiz-adv-x="1193" d="M113 553q57 -78 125.5 -143.5t131 -127t129 -120t128.5 -121.5l2 -2l30 27l37 43q-98 79 -225 202t-229 236q39 49 89 102t137 144.5t132 138.5t76 86q-6 14 -24.5 33.5t-37.5 29.5q-29 -29 -57.5 -58.5t-58.5 -61.5q-47 -49 -98.5 -101.5t-102.5 -105t-98 -102.5 t-86 -99zM571 553q57 -78 126 -143.5t131.5 -127t129 -120t127.5 -121.5l2 -2l31 27l37 43q-98 79 -225 202t-230 236q39 49 89.5 102t137.5 144.5t132 138.5t76 86q-6 14 -24.5 33.5t-37.5 29.5q-29 -29 -57.5 -58.5t-59.5 -61.5q-47 -49 -98 -101.5l-102 -105 t-98.5 -102.5t-86.5 -99z" />
<glyph unicode="&#xac;" horiz-adv-x="964" d="M41 936.5q0 -18.5 1 -36t1 -31v-15.5l38 -1t100.5 -2t140 -2t157.5 -2t156 -2t133 -1v-100.5t1 -104.5t1 -84v-41h113l1 31q1 31 1 76t1 98t2 102t1 86v49h-2q0 2 1 3.5t1 3.5q-6 0 -69.5 1t-156 1t-199 1t-198.5 1h-155.5h-69.5v-30.5z" />
<glyph unicode="&#xad;" horiz-adv-x="755" d="M74 591.5q0 -18.5 1 -35.5t1 -30.5v-15.5h42t104.5 -1t137 -1h141h116h61.5v33.5v26v24.5t4 35h-52h-111.5t-141.5 -1t-141.5 -2t-110.5 -1h-51v-31.5z" />
<glyph unicode="&#xae;" horiz-adv-x="1132" d="M75 707.5q1 -101.5 17 -201.5q10 -86 64.5 -145.5t144.5 -100.5q53 -16 108.5 -22.5t112.5 -6.5q53 4 109.5 7.5t112 12.5t104.5 30.5t90 62.5q74 70 98 166q8 84 19.5 173t7.5 172t-31.5 155.5t-97.5 122.5q-6 4 -12.5 8t-12.5 8q-41 27 -84 42t-86 23q-82 16 -166 13.5 t-167 -6.5q-72 -10 -137.5 -42t-110.5 -89q-68 -80 -76 -177q-8 -104 -7 -205.5zM153.5 710.5q-6.5 112.5 8.5 225.5q8 72 61 130t139 73q6 0 7.5 1t5.5 1q186 23 373 0q63 -12 120.5 -40t83.5 -63q37 -41 40 -91t5 -99q2 -66 -1 -135.5t-7 -132.5q-8 -43 -20.5 -88.5 t-38 -80t-62.5 -60t-84 -34.5q-90 -18 -187 -19t-179 -7q-47 2 -93 16.5t-80 42t-56.5 61t-22.5 76.5q-6 111 -12.5 223.5zM352 1028q6 -35 10.5 -171t4.5 -259q0 -82 10 -180l22 -2q20 0 54 8q0 45 -2 65q-4 29 -5 48l3 77v31l40 -33q45 -37 84 -65l142 -131q8 2 23.5 0 t35.5 -2q29 0 45 4q-176 168 -196 184l-37 31q-14 14 -45 39q135 4 166 22q29 20 47 58l-2 -2q31 47 30 96q0 72 -56 128t-134 66q-16 2 -51 2q-68 0 -150 -12zM434 950v17q66 6 105 6q68 0 108 -19q31 -12 43 -41q16 -23 17 -59q0 -37 -11.5 -61.5t-29.5 -32.5 q-25 -8 -101 -8q-74 0 -125 2q-2 2 -2 6l1 5t1 21v54l-2 26l-2 47z" />
<glyph unicode="&#xb0;" horiz-adv-x="610" d="M53.5 1094.5q1.5 -58.5 5.5 -111.5q2 -14 4.5 -28.5t8.5 -30.5q23 -51 90 -84q55 -17 113.5 -18t117.5 9q10 2 20.5 4.5t20.5 6.5q39 14 62.5 39.5t38 59.5t19.5 71t5 73v45.5t-4 45.5q-4 29 -15.5 53t-33.5 43q-25 23 -57 35q-10 4 -18.5 7t-18.5 7q-20 6 -41 8t-43 2 h-39t-41 -2q-6 0 -13.5 -1t-13.5 -1q-55 -10 -97 -41t-58 -82q-14 -51 -12.5 -109.5zM114 1081q-1 45 3 93q16 66 78 90q53 8 114.5 9t118.5 -16q27 -8 47 -36q27 -29 29 -62t-2 -67q-4 -25 -6 -46.5t-7 -44.5q-8 -43 -26.5 -74.5t-71.5 -35.5h-2q-6 0 -11 -3t-11 -3 q-43 -4 -82 -5t-80 1q-41 4 -65.5 36.5t-24.5 73.5q0 45 -1 90z" />
<glyph unicode="&#xb1;" horiz-adv-x="1026" d="M51 129q10 0 80 -2t168 -3t211 -3t211 -4t167.5 -2h80.5h2q-4 61 -6 118h-101h-175h-209.5h-204h-155h-63.5q0 -6 -1 -34.5t-3 -36.5t-2 -33zM96 983q0 -6 3 -39t2 -40t1 -9q8 -4 41 -8t125 -6t125 -4.5t45 -2.5h4q2 -2 3 -13t1 -27q2 -74 2.5 -104t-1 -77t-1.5 -70.5 t5 -54.5q0 -4 1 -4t1 -2q4 2 20 0t52 -2t36 6v4q0 14 3 49t6 104t5.5 122t-0.5 72q10 6 51.5 7t125.5 1t118.5 1t40.5 5q8 51 9 104q-23 4 -83.5 5t-109.5 1h-86t-61 3q-4 10 -4.5 129.5t-0.5 158.5v62q-16 2 -41.5 1t-42 -1t-18.5 8q-2 -10 -3 -17.5t-3 -19.5 q-2 -20 -1 -46t0 -139.5t-1 -135.5q-6 -2 -45 -6.5t-139.5 -7.5t-139.5 -6t-45 -1z" />
<glyph unicode="&#xb2;" horiz-adv-x="540" d="M68 686h41l350 6h2q-2 10 -1 19.5t-3 33.5q-63 -6 -159.5 -6t-158.5 2q-2 2 -2 9.5t2 18.5t11 26q123 104 161.5 127.5t64 37t46 31t35 41t16.5 55.5q0 20 -1 43t-1 41q-4 51 -25.5 91.5t-64.5 62.5q-25 10 -61.5 14t-75.5 1t-73 -16t-52 -38q-35 -37 -46.5 -92 t-0.5 -121h2q31 -4 51 2v2q0 18 -3 66.5t17.5 91.5t66.5 55.5t68 12.5q63 0 101.5 -24t48.5 -92.5t6 -101.5q-6 -51 -84 -90t-154.5 -100t-105.5 -109q-16 -25 -18 -48t0 -48v-4z" />
<glyph unicode="&#xb3;" horiz-adv-x="520" d="M51 1174q2 -25 2 -44v-2q2 0 12.5 1t36.5 1q-4 90 24 119t76 42.5t122.5 -1t81 -97.5t-2 -118t-37 -35t-99 3.5t-85.5 -3.5q2 8 1 -13t3 -34q23 0 87.5 2t94 -9t36 -61.5t-9 -126t-143.5 -83.5t-140.5 74.5t-8.5 87.5h-2q-18 -2 -45 0q-2 0 -2 -3q2 -29 3 -51t5 -43 q2 -20 9.5 -37.5t21.5 -31.5q2 0 13.5 -9.5t31.5 -13.5q12 -4 24.5 -8t26.5 -4q35 -6 77 -5t77 9q35 12 57.5 34.5t36.5 55.5q12 23 13.5 52.5t3.5 54.5q2 78 2 155.5v157.5q0 16 -2 33.5t-13 33.5q-16 29 -48 46.5t-70.5 26.5t-80.5 6t-79 -16t-65.5 -39t-41.5 -64 q-6 -18 -4 -43z" />
<glyph unicode="&#xb4;" horiz-adv-x="522" d="M70 1075q35 33 81 83t89 90t79.5 78t61.5 65l70 -74q-5 8 -59 -48.5t-89 -92t-62.5 -62.5t-37.5 -43q-57 -6 -88 -3t-45 7z" />
<glyph unicode="&#xb5;" horiz-adv-x="937" d="M55 -338q14 4 30.5 1t39 -2t33.5 13q-4 82 -6 201q-2 80 -2 168q25 -16 59 -25q53 -14 146.5 -14t198.5 19.5t147 49t53 36.5q2 -29 4 -109q0 -6 11 -7t21.5 1t55.5 10q8 270 3 522t-5 504q-51 -4 -88 -14v-8q2 -68 3 -135.5t4 -213t5 -215t-4 -160.5t-152.5 -156 t-304 -46.5t-155.5 242t2 313.5v51q2 188 4 254l4 78h-92q4 -70 2 -162t-13 -328q10 -684 -4 -868z" />
<glyph unicode="&#xb6;" horiz-adv-x="1376" d="M37 985q0 -80 133 -90q-2 -383 -1 -531.5t-1 -292t-5 -271.5t-11 -224q14 4 80.5 2t76.5 10q-4 68 -5 178.5t-1 249t1 293t3 311t4 387t4 353.5l691 4q-6 -193 -7.5 -493t-1.5 -515t-3 -415.5t-15 -358.5q14 4 75.5 2t71.5 10q-4 66 -5 176.5t0 247t2 291t4 311t5.5 388 t4.5 354.5q35 -2 68.5 -4t61 -1t48 5t26.5 14q0 31 -3 67t-3 48l-194 4l-332 -4l-360 -2q-39 -2 -80 -2t-79 -3t-72 -9.5t-60 -18.5q-76 -35 -101 -135q-16 -129 -18 -192.5t-2 -143.5z" />
<glyph unicode="&#xb7;" horiz-adv-x="335" d="M117 805q-2 -94 3 -158.5t5 -124.5q39 2 47 0t24.5 2t24.5 17q0 31 -1 70.5t-2 77.5t-2 70t-1 44z" />
<glyph unicode="&#xb8;" horiz-adv-x="389" d="M88 -301q0 -2 28.5 -2h39h26.5v2q6 18 20.5 60t30 88.5t28.5 85t18 55.5h2q-78 10 -88 12q-16 -45 -22.5 -65.5t-13.5 -44t-22.5 -64.5t-46.5 -127z" />
<glyph unicode="&#xb9;" horiz-adv-x="382" d="M53 1102q0 -4 19.5 -10.5t23.5 -6.5q6 0 54.5 76t52.5 83t8 7v-8v-8q0 -188 -3 -278.5t-5 -176.5v-84q16 -2 29.5 -1t21.5 1v41.5v30.5q0 98 5 196.5t1 198.5q0 37 1 73t-1 73q-57 2 -78 0q-2 -2 -10 -14.5t-23.5 -37t-42 -66.5t-53.5 -89z" />
<glyph unicode="&#xba;" horiz-adv-x="520" d="M56 1036q1 -35 3 -69q0 -39 4.5 -80t14.5 -76t35.5 -64.5t70.5 -46.5q29 -10 66 -12q39 -2 71.5 11.5t57 39t43 59t28 71.5t13.5 76t2 75q2 25 0 51.5t-8 52.5q-6 39 -21.5 75t-42 62.5t-61.5 43t-82 14.5q-45 -2 -78 -21.5t-59 -48.5q-4 -6 -9 -12q-20 -29 -30.5 -62.5 t-14.5 -68.5t-3 -70zM98 1085q4 29 7.5 44.5t8.5 33t33.5 68.5t126.5 49q80 -14 114 -76.5t36 -113t2 -78t-2 -49.5q-2 -25 -3 -45.5t-7 -48t-44 -85t-112 -63.5q-133 0 -149 143q-10 74 -10.5 120t-0.5 101z" />
<glyph unicode="&#xbb;" horiz-adv-x="1193" d="M35 109q98 79 225 202t229 236q-39 49 -89 102t-137 144.5t-132 138.5t-76 86q6 14 24.5 33.5t37.5 29.5q29 -29 57.5 -58.5t58.5 -61.5q47 -49 98.5 -101.5t102.5 -105t98.5 -102.5t85.5 -99q-57 -78 -125.5 -143.5t-131 -127t-129 -120t-128.5 -121.5l-2 -2l-30 27z M494 109q98 79 225 202t229 236q-39 49 -89 102t-137 144.5t-132 138.5t-76 86q6 14 24.5 33.5t36.5 29.5q29 -29 58 -58.5t59 -61.5q47 -49 98.5 -101.5t102.5 -105t98 -102.5t86 -99q-57 -78 -125.5 -143.5t-131 -127t-129 -120t-128.5 -121.5l-2 -2l-31 27z" />
<glyph unicode="&#xbc;" horiz-adv-x="1218" d="M70 1102q0 -4 34.5 -16.5t38.5 -12.5q8 0 54.5 77t50.5 86t8 9v-10v-10q-4 -186 -7 -291t-5 -207v-96q20 -2 34.5 -1t53.5 1v48v34q0 117 5 230.5t1 230.5q0 43 1 84.5t-1 84.5q-94 2 -117 0q-2 -2 -12 -16t-28.5 -43t-49.5 -78t-61 -104zM293 0q6 12 12 31.5t17.5 52.5 t23.5 62.5t14 37.5q72 203 99.5 277t62.5 172t96 264q23 59 77.5 223t70.5 219.5t31 112.5q68 -4 92 -16q-4 -10 -6 -17.5t-6 -19.5q-8 -29 -29 -95.5t-66 -201.5q-20 -57 -38.5 -113.5t-36.5 -111.5q-39 -113 -77 -223.5t-81 -221.5q-10 -31 -21.5 -61.5t-23.5 -61.5 l-111 -295q-4 -8 -6 -10q-12 -2 -94 -4zM721 270q0 -2 15.5 -2h39h51t81 1t73.5 0t25 -3q0 -2 -2.5 -75.5t-4.5 -98t-3 -46t-2 -36t1 -14.5q90 -2 97 6q0 4 1 19.5t0 36t1 64.5t3 81t2 48l1 11q47 -2 63 2l6 84q-12 0 -63 2l-6 -2v16.5v68t2 107.5t3 89t2 67.5t1 28.5h-2 h-12h-35h-35v-2q-80 -100 -303 -401q-6 -18 0 -52zM844 352q0 2 38 50.5t72.5 101.5t45 66.5t10.5 7.5l-4 -226q-9 -2 -47.5 -3t-34.5 0t-38 2z" />
<glyph unicode="&#xbd;" horiz-adv-x="1232" d="M70 1102q0 -4 34.5 -16.5t38.5 -12.5q8 0 54.5 77t50.5 86t8 9v-10v-10q-4 -186 -7 -291t-5 -207v-96q20 -2 34.5 -1t53.5 1v48v34q0 117 5 230.5t1 230.5q0 43 1 84.5t-1 84.5q-94 2 -117 0q-2 -2 -12 -16t-28.5 -43t-49.5 -78t-61 -104zM293 0q6 12 12 31.5t17.5 52.5 t23.5 62.5t14 37.5q72 203 99.5 277t62.5 172t96 264q23 59 77.5 223t70.5 219.5t31 112.5q68 -4 92 -16q-4 -10 -6 -17.5t-6 -19.5q-8 -29 -29 -95.5t-66 -201.5q-20 -57 -38.5 -113.5t-36.5 -111.5q-39 -113 -77 -223.5t-81 -221.5q-10 -31 -21.5 -61.5t-23.5 -61.5 l-111 -295q-4 -8 -6 -10q-12 -2 -94 -4zM723 87.5q-2 -26.5 4 -83.5v-4h45l385 6h2q-2 12 -1 33.5t-3 48.5q-70 -6 -166 -6t-164 2q-2 2 -2 10t2 20.5t13 26.5q63 59 129.5 105.5t96.5 62t52.5 39t38.5 51t19 64.5q0 2 -1.5 26.5t-1.5 45.5q-4 57 -27.5 101t-72.5 69 q-27 10 -67.5 15t-82.5 2t-80 -18.5t-59 -41.5q-37 -41 -50 -101.5t-1 -134.5h2q35 -4 68 2v4v68.5t22.5 90.5t57 48t59.5 8q70 0 107.5 -16.5t46 -70.5t-10.5 -120q-18 -39 -102 -95t-141.5 -106.5t-96.5 -97.5q-18 -27 -20 -53.5z" />
<glyph unicode="&#xbe;" horiz-adv-x="1282" d="M51 1166q2 -25 2 -46v-2q2 0 12.5 1t84.5 1q-16 61 5 90t59 39.5t110.5 2t82 -81t1 -102.5t-40 -29t-99 2t-86.5 -5q2 8 -6 -12t-2 -66q25 0 93.5 2.5t101 -10t39 -59.5t-11 -116.5t-121 -69.5t-119 58t-9.5 85h-2q-59 -2 -90 0q-2 0 -2 -2q2 -31 3 -55.5t5 -47.5 q4 -20 12.5 -39.5t20.5 -33.5q2 0 14.5 -9.5t34.5 -15.5q14 -4 27.5 -9t28.5 -5q39 -6 83 -5t80 11q37 12 63 35.5t38 58.5q14 29 15 58.5t3 58.5q4 82 4 165t-2 171q2 18 -1 36.5t-13 34.5q-18 31 -51 51.5t-75 28.5t-87 6t-85 -17t-70.5 -43t-43.5 -67q-8 -23 -6 -48z M354 0q6 12 12.5 31.5l17.5 52.5t23.5 62.5t14.5 37.5q72 203 99.5 277t62 172t96.5 264q23 59 77 223t70.5 219.5t30.5 112.5q68 -4 92 -16q-4 -10 -6 -17.5t-6 -19.5q-8 -29 -28.5 -95.5t-65.5 -201.5q-20 -57 -39 -113.5t-37 -111.5q-39 -113 -77 -223.5t-81 -221.5 q-10 -31 -21 -61.5t-24 -61.5l-110 -295q-4 -8 -6 -10q-12 -2 -95 -4zM786 270q0 -2 15.5 -2h39h51.5t81 1t73.5 0t24.5 -3q0 -2 -2 -75.5t-4 -98t-3 -46t-2 -36t1 -14.5q90 -2 96 6q0 4 1 19.5t0 36t1 64.5t3 81t2 48l1 11q47 -2 64 2l6 84q-12 0 -64 2l-6 -2v16.5v68 t2 107.5t3 89t2.5 67.5t1.5 28.5h-3h-12h-34.5h-34.5v-2q-80 -100 -304 -401q-6 -18 0 -52zM909 352q0 2 38 50.5t73 101.5t45 66.5t10 7.5l-4 -226q-8 -2 -47 -3t-35 0t-38 2z" />
<glyph unicode="&#xbf;" horiz-adv-x="921" d="M39 217q-10 -90 22.5 -168t95 -133t147.5 -82t179 -18q88 4 160 42t125 97t84 134t35 153v2q-61 2 -105 2q4 -82 -50 -193.5t-196.5 -143.5t-227.5 0t-139 112.5t-46 164.5t46 150.5t114.5 150.5t114.5 146.5t53 154.5l6 56v57h-2l-88 -4v-2q4 -16 -3.5 -87t-35 -122 t-70.5 -111q-31 -41 -60.5 -68.5t-62.5 -72.5q-35 -45 -61.5 -98t-34.5 -119zM373 1020q14 -6 31.5 -4t26.5 2t30 8q0 14 1 45t2 65.5t0 69.5t-5 58h-6h-64h-4v-2v-2q0 -14 -2 -53.5t-4 -80.5t-4 -72.5t-2 -33.5z" />
<glyph unicode="&#xc0;" horiz-adv-x="888" d="M8 4q82 0 89 1t9 1q23 125 32 173t32 173l543 -6q35 -129 46 -176t22.5 -92t23.5 -78h2q-6 -12 88 0v2l-154 717q-8 35 -22 94t-30.5 131t-34 149.5t-33 146.5t-28.5 123t-20 81q-68 -6 -109.5 -7t-59 -1h-34t-30.5 -2q-68 -164 -109 -330t-75.5 -319.5t-60 -290 t-44 -240.5t-29 -170t-14.5 -80zM150 1778q4 8 58 -48.5t89 -92t62.5 -62.5t37.5 -43q57 -6 88 -3t45 7q-35 33 -81 83t-89 90t-79.5 78t-61.5 64zM180 436q98 487 146.5 699.5t68 213.5t57 1h55t204.5 -914q-271 -6 -388.5 -4t-142.5 4z" />
<glyph unicode="&#xc1;" horiz-adv-x="888" d="M8 4q82 0 89 1t9 1q23 125 32 173t32 173l543 -6q35 -129 46 -176t22.5 -92t23.5 -78h2q-6 -12 88 0v2l-154 717q-8 35 -22 94t-30.5 131t-34 149.5t-33 146.5t-28.5 123t-20 81q-68 -6 -109.5 -7t-59 -1h-34t-30.5 -2q-68 -164 -109 -330t-75.5 -319.5t-60 -290 t-44 -240.5t-29 -170t-14.5 -80zM180 436q98 487 146.5 699.5t68 213.5t57 1h55t204.5 -914q-271 -6 -388.5 -4t-142.5 4zM367 1540q35 33 81 83t89 90t79.5 78t61.5 64l70 -73q-5 8 -59 -48.5t-89 -92t-62.5 -62.5t-37.5 -43q-57 -6 -88 -3t-45 7z" />
<glyph unicode="&#xc2;" horiz-adv-x="888" d="M8 4q82 0 89 1t9 1q23 125 32 173t32 173l543 -6q35 -129 46 -176t22.5 -92t23.5 -78h2q-6 -12 88 0v2l-154 717q-8 35 -22 94t-30.5 131t-34 149.5t-33 146.5t-28.5 123t-20 81q-68 -6 -109.5 -7t-59 -1h-34t-30.5 -2q-68 -164 -109 -330t-75.5 -319.5t-60 -290 t-44 -240.5t-29 -170t-14.5 -80zM123 1542q63 -2 81.5 -2t37.5 2q8 2 72.5 70.5t80 86t32.5 36t28 20.5q8 -4 23.5 -19.5t29.5 -32.5t93 -93t87 -76q39 6 63.5 9t28.5 1l-329 330q-91 -84 -161.5 -151.5t-166.5 -180.5zM180 436q98 487 146.5 699.5t68 213.5t57 1h55 t204.5 -914q-271 -6 -388.5 -4t-142.5 4z" />
<glyph unicode="&#xc3;" horiz-adv-x="888" d="M8 4q82 0 89 1t9 1q23 125 32 173t32 173l543 -6q35 -129 46 -176t22.5 -92t23.5 -78h2q-6 -12 88 0v2l-154 717q-8 35 -22 94t-30.5 131t-34 149.5t-33 146.5t-28.5 123t-20 81q-68 -6 -109.5 -7t-59 -1h-34t-30.5 -2q-68 -164 -109 -330t-75.5 -319.5t-60 -290 t-44 -240.5t-29 -170t-14.5 -80zM35 1550q31 2 48 2t42 -2v2q20 103 57 173.5t113 89.5q45 8 80 -10.5t67 -106.5q41 -133 100.5 -151.5t123.5 -8.5q53 8 93 42t64.5 81t33.5 101.5t1 105.5v2l-76 -2q12 -82 -9 -162t-119.5 -99.5t-126 74t-45 122t-48.5 50.5 q-33 23 -69.5 30t-73.5 1t-72 -24.5t-61 -44.5q-20 -23 -39 -58t-35 -73.5t-29.5 -74.5t-19.5 -59zM180 436q98 487 146.5 699.5t68 213.5t57 1h55t204.5 -914q-271 -6 -388.5 -4t-142.5 4z" />
<glyph unicode="&#xc4;" horiz-adv-x="888" d="M8 4q82 0 89 1t9 1q23 125 32 173t32 173l543 -6q35 -129 46 -176t22.5 -92t23.5 -78h2q-6 -12 88 0v2l-154 717q-8 35 -22 94t-30.5 131t-34 149.5t-33 146.5t-28.5 123t-20 81q-68 -6 -109.5 -7t-59 -1h-34t-30.5 -2q-68 -164 -109 -330t-75.5 -319.5t-60 -290 t-44 -240.5t-29 -170t-14.5 -80zM180 436q98 487 146.5 699.5t68 213.5t57 1h55t204.5 -914q-271 -6 -388.5 -4t-142.5 4zM234.5 1606.5q1.5 -29.5 5.5 -50.5h6l80 -2h4v2v3q0 14 2 46.5t4 68.5t4 62.5t2 28.5q-14 6 -50 5t-54 -7q0 -12 -1 -38.5t-2.5 -57.5t0 -60.5z M558 1606.5q1 -29.5 5 -50.5h6l80 -2h4v2v3q0 14 2 46.5t4.5 68.5t4.5 62.5t2 28.5q-14 6 -50 5t-55 -7q0 -12 -1 -38.5t-2 -57.5t0 -60.5z" />
<glyph unicode="&#xc5;" horiz-adv-x="888" d="M8 4q82 0 89 1t9 1q23 125 32 173t32 173l543 -6q35 -129 46 -176t22.5 -92t23.5 -78h2q-6 -12 88 0v2l-154 717q-8 35 -22 94t-30.5 131t-34 149.5t-33 146.5t-28.5 123t-20 81q-68 -6 -109.5 -7t-59 -1h-34t-30.5 -2q-68 -164 -109 -330t-75.5 -319.5t-60 -290 t-44 -240.5t-29 -170t-14.5 -80zM180 436q98 487 146.5 699.5t68 213.5t57 1h55t204.5 -914q-271 -6 -388.5 -4t-142.5 4zM255 1717.5q3 -60.5 13 -118.5q10 -27 37 -42t55 -17q29 -2 57.5 -2t57.5 4q35 2 70 11.5t53 37.5q25 62 28 131.5t-16 132.5q-23 33 -70.5 45.5 t-90.5 14.5q-47 4 -89.5 -5t-70.5 -36q-16 -20 -23 -41q-14 -55 -11 -115.5zM346 1737q0 14 4 35q6 27 31 40q26 13 61 13q23 0 43.5 -6.5t36.5 -22.5q10 -16 15 -45q2 -23 -2.5 -47.5t-8.5 -44.5q-10 -23 -37.5 -26t-50.5 -5h-20q-31 0 -51 19q-16 16 -18.5 41.5t-2.5 48.5 z" />
<glyph unicode="&#xc6;" horiz-adv-x="1466" d="M18 4q82 0 89.5 1t9.5 1q23 125 32 173t31 173l543 -6q35 -129 46 -176t22.5 -92t23.5 -78h2q-6 -12 194.5 -2t409.5 8l4 74v4q-139 -4 -270 3t-244 5l-2 2q8 244 5 372t8 202q117 -4 129 -1t94 7v12q0 20 -2 59v3q-63 2 -127 2t-103 2l-2 2q-2 190 4.5 356t4.5 225l2 2 h6q45 8 112.5 8.5t135 -1t128 2t126.5 -0.5l2 77q0 2 -41 4.5t-109 2.5t-459 3t-409 3q-49 0 -64 -2q-68 -164 -108.5 -330t-75.5 -319.5t-60.5 -290t-44 -240.5t-28.5 -170t-15 -80zM190 436q98 487 146.5 699.5t68 213.5t56.5 1h55q18 0 205 -914q-270 -6 -388 -4t-143 4z M1145 674h2q-2 -4 -2 0z" />
<glyph unicode="&#xc7;" d="M64.5 582.5q1.5 -99.5 3.5 -179t6 -153.5q8 -86 54 -143.5t113.5 -89t176.5 -35.5q-2 -11 -6 -23q-14 -66 -39 -158v-2h61h41q4 14 21 82q12 47 22 101q133 -2 222 52t144.5 138t72 189.5t-4.5 226.5q-43 -6 -90 -8q29 -254 -69.5 -379t-241.5 -144q-150 -14 -270.5 55.5 t-124.5 290.5q-2 117 0 334q-25 662 278 656q252 -6 330 -106.5t89 -153t17.5 -149.5t1.5 -128q-12 -10 93 4q8 96 -0.5 186.5t-47 167t-104 136t-146.5 95.5t-173.5 42t-186.5 -25q-29 -8 -55.5 -19t-48.5 -28q-39 -35 -66.5 -80t-46.5 -98q-12 -31 -22 -137 q-2 -166 -3.5 -292t0 -225.5z" />
<glyph unicode="&#xc8;" horiz-adv-x="985" d="M82 713q2 -174 6 -349.5t4 -353.5q199 -16 415 -9t425 5l4 74v4q-139 -4 -270 3t-488 5l-2 2q8 244 5 372t7 187q10 8 149.5 11.5t175.5 1.5t48 1t96 7q-2 -6 -2 13.5t-2 57.5v3q-63 2 -126.5 2t-346.5 2l-2 2q-14 55 -2 288.5t10 292.5l2 2h7q289 8 356 8.5t135 -1 t128 2t126 -0.5l2 77q0 2 -41 4.5t-108.5 2.5t-155.5 -2.5t-182.5 -4.5t-187.5 -5t-173 -7q-10 -176 -12 -350t0 -348zM266 1778q4 8 58.5 -48.5t89.5 -92t62.5 -62.5t37.5 -43q57 -6 88 -3t45 7q-35 33 -81 83t-89 90t-80 78t-61 64z" />
<glyph unicode="&#xc9;" horiz-adv-x="985" d="M82 713q2 -174 6 -349.5t4 -353.5q199 -16 415 -9t425 5l4 74v4q-139 -4 -270 3t-488 5l-2 2q8 244 5 372t7 187q10 8 149.5 11.5t175.5 1.5t48 1t96 7q-2 -6 -2 13.5t-2 57.5v3q-63 2 -126.5 2t-346.5 2l-2 2q-14 55 -2 288.5t10 292.5l2 2h7q289 8 356 8.5t135 -1 t128 2t126 -0.5l2 77q0 2 -41 4.5t-108.5 2.5t-155.5 -2.5t-182.5 -4.5t-187.5 -5t-173 -7q-10 -176 -12 -350t0 -348zM397 1542q35 33 81 83t89 90t80 78t62 65l69 -74q-4 8 -58 -48.5t-89 -92t-62.5 -62.5t-38.5 -43q-57 -6 -87.5 -3t-45.5 7z" />
<glyph unicode="&#xca;" horiz-adv-x="985" d="M82 713q2 -174 6 -349.5t4 -353.5q199 -16 415 -9t425 5l4 74v4q-139 -4 -270 3t-488 5l-2 2q8 244 5 372t7 187q10 8 149.5 11.5t175.5 1.5t48 1t96 7q-2 -6 -2 13.5t-2 57.5v3q-63 2 -126.5 2t-346.5 2l-2 2q-14 55 -2 288.5t10 292.5l2 2h7q289 8 356 8.5t135 -1 t128 2t126 -0.5l2 77q0 2 -41 4.5t-108.5 2.5t-155.5 -2.5t-182.5 -4.5t-187.5 -5t-173 -7q-10 -176 -12 -350t0 -348zM186 1542q63 -2 82 -2t37 2q8 2 72.5 70.5t80 86t33 36t27.5 20.5q8 -4 23.5 -19.5t30 -32.5t93 -93t87.5 -76q39 6 63.5 9t28.5 1l-330 330 q-90 -84 -160.5 -151.5t-167.5 -180.5z" />
<glyph unicode="&#xcb;" horiz-adv-x="985" d="M82 713q2 -174 6 -349.5t4 -353.5q199 -16 415 -9t425 5l4 74v4q-139 -4 -270 3t-488 5l-2 2q8 244 5 372t7 187q10 8 149.5 11.5t175.5 1.5t48 1t96 7q-2 -6 -2 13.5t-2 57.5v3q-63 2 -126.5 2t-346.5 2l-2 2q-14 55 -2 288.5t10 292.5l2 2h7q289 8 356 8.5t135 -1 t128 2t126 -0.5l2 77q0 2 -41 4.5t-108.5 2.5t-155.5 -2.5t-182.5 -4.5t-187.5 -5t-173 -7q-10 -176 -12 -350t0 -348zM263 1606.5q1 -29.5 5 -50.5h6l80 -2h4v2v3q0 14 2 46.5t4.5 68.5t4.5 62.5t2 28.5q-14 6 -50 5t-55 -7q0 -12 -1 -38.5t-2 -57.5t0 -60.5zM587 1606.5 q1 -29.5 5 -50.5h6l80 -2h4v2v3q0 14 2 46.5t4 68.5t4 62.5t2 28.5q-14 6 -50 5t-54 -7q0 -12 -1 -38.5t-2 -57.5t0 -60.5z" />
<glyph unicode="&#xcc;" horiz-adv-x="532" d="M-31 1778q4 8 58.5 -48.5t89.5 -92t62.5 -62.5t37.5 -43q57 -6 88 -3t45 7q-35 33 -81 83t-89 90t-80 78t-61 64zM196 1094.5q1 -179.5 3 -516t-2 -586.5q20 6 47.5 6t39 1t31.5 3q-10 182 -7 360.5t1 357.5t3 357t5 355v8q-39 4 -55 6q-4 0 -10 3t-39 1v-4 q-18 -172 -17 -351.5z" />
<glyph unicode="&#xcd;" horiz-adv-x="530" d="M196 1094.5q1 -179.5 3 -516t-2 -586.5q20 6 47.5 6t39 1t31.5 3q-10 182 -7 360.5t1 357.5t3 357t5 355v8q-39 4 -55 6q-4 0 -10 3t-39 1v-4q-18 -172 -17 -351.5zM217 1536q35 33 81 83t89 90t80 78t61 64l70 -73q-4 8 -58.5 -48.5t-89 -92t-62.5 -62.5t-38 -43 q-57 -6 -88 -3t-45 7z" />
<glyph unicode="&#xce;" horiz-adv-x="532" d="M-39 1542q63 -2 81.5 -2t37.5 2q8 2 72.5 70.5t80 86t33 36t27.5 20.5q8 -4 23.5 -19.5t29.5 -32.5t93 -93t87 -76q39 6 63.5 9t28.5 1l-329 330q-90 -84 -161 -151.5t-167 -180.5zM196 1094.5q1 -179.5 3 -516t-2 -586.5q20 6 47.5 6t39 1t31.5 3q-10 182 -7 360.5 t1 357.5t3 357t5 355v8q-39 4 -55 6q-4 0 -10 3t-39 1v-4q-18 -172 -17 -351.5z" />
<glyph unicode="&#xcf;" horiz-adv-x="532" d="M60 1606.5q1 -29.5 6 -50.5h6l80 -2h4v2v3q0 14 2 46.5t4 68.5t4 62.5t2 28.5q-14 6 -50 5t-55 -7q0 -12 -1 -38.5t-2 -57.5t0 -60.5zM196 1094.5q1 -179.5 3 -516t-2 -586.5q20 6 47.5 6t39 1t31.5 3q-10 182 -7 360.5t1 357.5t3 357t5 355v8q-39 4 -55 6q-4 0 -10 3 t-39 1v-4q-18 -172 -17 -351.5zM384 1606.5q1 -29.5 5 -50.5h6l80 -2h4v2v3q0 14 2 46.5t4 68.5t4.5 62.5t2.5 28.5q-14 6 -50 5t-55 -7q0 -12 -1 -38.5t-2 -57.5t0 -60.5z" />
<glyph unicode="&#xd0;" horiz-adv-x="987" d="M-8 659q10 0 67 -4h21q0 -162 6 -319q6 -172 29 -334l2 2q129 0 266 1t272 5q78 96 148.5 205t90.5 170l21 61l3 3q18 94 21 191t7 194q-2 33 -5 64.5t-13 64.5q-18 82 -49 156.5t-74 144.5q-37 59 -97.5 107t-125.5 65q-59 -2 -122 0t-126.5 3t-126 -4t-119.5 -20 q-2 -2 -3 -4t-3 -4q4 -178 0 -360q-2 -141 -2 -281h-37q-43 -2 -45 -2q0 -6 -1 -35t-3 -37t-2 -33zM164 1346h16q236 12 277 11t102.5 -3t152.5 -108.5t142 -342.5q16 -147 2 -297q-55 -276 -122.5 -357t-139.5 -147h-64q-37 -4 -176 -8t-161 6q-4 61 -17 312q-8 156 -8 239 h49q98 -2 168 -2h82q-4 61 -6 119h-277h-10q4 84 4 272q0 242 -14 306z" />
<glyph unicode="&#xd1;" horiz-adv-x="1056" d="M80 885q0 -193 3 -369t3 -371v-143q47 0 73.5 -4t49.5 2q-2 35 -2 79v91q0 86 -8.5 432t-6 422t-4.5 141q6 37 13.5 17.5t42.5 -90.5q403 -737 467.5 -834.5t132.5 -249.5q88 -10 92 -8v41q-12 94 -2 164q0 57 1 112.5t1 114.5v176t-2 174v660q-59 12 -119 8q0 -51 4 -95 t15 -644q0 -74 3 -144.5t3 -177.5v-135q-16 23 -46 80t-255.5 452.5t-229.5 405.5q-18 43 -45.5 93t-40 74.5t-26.5 61.5q0 4 -39 10.5t-60 2.5q-10 -131 -14 -269.5t-4 -279.5zM125 1550q31 2 48 2t42 -2v2q21 103 57.5 173.5t112.5 89.5q45 8 80 -10.5t67 -106.5 q41 -133 100.5 -151.5t123.5 -8.5q53 8 93 42t64.5 81t33.5 101.5t1 105.5v2l-76 -2q12 -82 -9 -162t-119.5 -99.5t-126 74t-45 122t-48.5 50.5q-33 23 -69.5 30t-73.5 1t-72 -24.5t-61 -44.5q-20 -23 -39 -58t-35 -73.5t-29.5 -74.5t-19.5 -59z" />
<glyph unicode="&#xd2;" horiz-adv-x="993" d="M60.5 664.5q7.5 -160.5 13.5 -320.5q2 -59 11 -117.5t38 -109.5q18 -41 47 -66.5t64.5 -42t75.5 -24t83 -11.5q59 -4 117.5 0t116.5 21q63 16 119.5 46t91.5 79q37 59 55 132t22 144l7 68q8 106 6 208.5t4 211.5q2 51 1 101t-5 101q-4 33 -11.5 65t-21.5 62 q-25 72 -84 125q-59 45 -134 69t-154 28t-157.5 -11.5t-146.5 -48.5q-27 -16 -47 -37q-63 -72 -84.5 -165t-24.5 -185q-10 -162 -2.5 -322.5zM150 637q-4 272 7 358t27 164q25 86 97 141q150 68 256 57t147 -28q47 -23 87 -70t44 -104q2 -35 5 -75t3 -42l13 -139v-285 q0 -4 -5.5 -121.5t-7.5 -158.5q-4 -43 -8 -70.5t-13 -44t-17.5 -32t-26.5 -40.5q-31 -35 -76 -62.5t-187.5 -39.5t-206 28t-83.5 81q-20 68 -34.5 142.5t-20.5 340.5zM176 1778q4 8 58.5 -48.5t89 -92t62.5 -62.5t38 -43q57 -6 88 -3t45 7q-35 33 -81 83t-89 90t-80 78 t-61 64z" />
<glyph unicode="&#xd3;" horiz-adv-x="993" d="M60.5 664.5q7.5 -160.5 13.5 -320.5q2 -59 11 -117.5t38 -109.5q18 -41 47 -66.5t64.5 -42t75.5 -24t83 -11.5q59 -4 117.5 0t116.5 21q63 16 119.5 46t91.5 79q37 59 55 132t22 144l7 68q8 106 6 208.5t4 211.5q2 51 1 101t-5 101q-4 33 -11.5 65t-21.5 62 q-25 72 -84 125q-59 45 -134 69t-154 28t-157.5 -11.5t-146.5 -48.5q-27 -16 -47 -37q-63 -72 -84.5 -165t-24.5 -185q-10 -162 -2.5 -322.5zM150 637q-4 272 7 358t27 164q25 86 97 141q150 68 256 57t147 -28q47 -23 87 -70t44 -104q2 -35 5 -75t3 -42l13 -139v-285 q0 -4 -5.5 -121.5t-7.5 -158.5q-4 -43 -8 -70.5t-13 -44t-17.5 -32t-26.5 -40.5q-31 -35 -76 -62.5t-187.5 -39.5t-206 28t-83.5 81q-20 68 -34.5 142.5t-20.5 340.5zM393 1536q35 33 81 83t89 90t80 78t62 64l69 -73q-4 8 -58 -48.5t-89 -92t-62.5 -62.5t-38.5 -43 q-57 -6 -87.5 -3t-45.5 7z" />
<glyph unicode="&#xd4;" horiz-adv-x="991" d="M60.5 664.5q7.5 -160.5 13.5 -320.5q2 -59 11 -117.5t38 -109.5q18 -41 47 -66.5t64.5 -42t75.5 -24t83 -11.5q59 -4 117.5 0t116.5 21q63 16 119.5 46t91.5 79q37 59 55 132t22 144l7 68q8 106 6 208.5t4 211.5q2 51 1 101t-5 101q-4 33 -11.5 65t-21.5 62 q-25 72 -84 125q-59 45 -134 69t-154 28t-157.5 -11.5t-146.5 -48.5q-27 -16 -47 -37q-63 -72 -84.5 -165t-24.5 -185q-10 -162 -2.5 -322.5zM150 637q-4 272 7 358t27 164q25 86 97 141q150 68 256 57t147 -28q47 -23 87 -70t44 -104q2 -35 5 -75t3 -42l13 -139v-285 q0 -4 -5.5 -121.5t-7.5 -158.5q-4 -43 -8 -70.5t-13 -44t-17.5 -32t-26.5 -40.5q-31 -35 -76 -62.5t-187.5 -39.5t-206 28t-83.5 81q-20 68 -34.5 142.5t-20.5 340.5zM182 1542q63 -2 82 -2t37 2q8 2 72.5 70.5t80 86t33 36t27.5 20.5q8 -4 23.5 -19.5t30 -32.5t93 -93 t87.5 -76q39 6 63.5 9t28.5 1l-330 330q-90 -84 -160.5 -151.5t-167.5 -180.5z" />
<glyph unicode="&#xd5;" horiz-adv-x="991" d="M60.5 664.5q7.5 -160.5 13.5 -320.5q2 -59 11 -117.5t38 -109.5q18 -41 47 -66.5t64.5 -42t75.5 -24t83 -11.5q59 -4 117.5 0t116.5 21q63 16 119.5 46t91.5 79q37 59 55 132t22 144l7 68q8 106 6 208.5t4 211.5q2 51 1 101t-5 101q-4 33 -11.5 65t-21.5 62 q-25 72 -84 125q-59 45 -134 69t-154 28t-157.5 -11.5t-146.5 -48.5q-27 -16 -47 -37q-63 -72 -84.5 -165t-24.5 -185q-10 -162 -2.5 -322.5zM74 1526q31 2 48 2t42 -2v2q20 102 57 173t113 89q45 8 80 -10.5t67 -106.5q41 -133 100.5 -151.5t123.5 -8.5q53 8 93 42t64.5 81 t33.5 101.5t1 105.5v2l-76 -2q12 -82 -9 -161.5t-119.5 -99t-126 73.5t-45 121.5t-48.5 51.5q-33 23 -69.5 30t-73.5 0.5t-72 -24.5t-61 -45q-20 -23 -39 -57.5t-35.5 -73.5t-29.5 -75t-19 -58zM150 637q-4 272 7 358t27 164q25 86 97 141q150 68 256 57t147 -28 q47 -23 87 -70t44 -104q2 -35 5 -75t3 -42l13 -139v-285q0 -4 -5.5 -121.5t-7.5 -158.5q-4 -43 -8 -70.5t-13 -44t-17.5 -32t-26.5 -40.5q-31 -35 -76 -62.5t-187.5 -39.5t-206 28t-83.5 81q-20 68 -34.5 142.5t-20.5 340.5z" />
<glyph unicode="&#xd6;" horiz-adv-x="991" d="M60.5 664.5q7.5 -160.5 13.5 -320.5q2 -59 11 -117.5t38 -109.5q18 -41 47 -66.5t64.5 -42t75.5 -24t83 -11.5q59 -4 117.5 0t116.5 21q63 16 119.5 46t91.5 79q37 59 55 132t22 144l7 68q8 106 6 208.5t4 211.5q2 51 1 101t-5 101q-4 33 -11.5 65t-21.5 62 q-25 72 -84 125q-59 45 -134 69t-154 28t-157.5 -11.5t-146.5 -48.5q-27 -16 -47 -37q-63 -72 -84.5 -165t-24.5 -185q-10 -162 -2.5 -322.5zM150 637q-4 272 7 358t27 164q25 86 97 141q150 68 256 57t147 -28q47 -23 87 -70t44 -104q2 -35 5 -75t3 -42l13 -139v-285 q0 -4 -5.5 -121.5t-7.5 -158.5q-4 -43 -8 -70.5t-13 -44t-17.5 -32t-26.5 -40.5q-31 -35 -76 -62.5t-187.5 -39.5t-206 28t-83.5 81q-20 68 -34.5 142.5t-20.5 340.5zM294 1606.5q1 -29.5 5 -50.5h6l80 -2h4v2v3q0 14 2 46.5t4 68.5t4 62.5t2 28.5q-14 6 -50 5t-54 -7 q0 -12 -1 -38.5t-2 -57.5t0 -60.5zM617 1606.5q1 -29.5 6 -50.5h6l80 -2h4v2v3q0 14 2 46.5t4 68.5t4 62.5t2 28.5q-14 6 -50 5t-54 -7q0 -12 -1.5 -38.5t-2.5 -57.5t0 -60.5z" />
<glyph unicode="&#xd7;" horiz-adv-x="1505" d="M84 1487q0 -197 5 -379t10 -361.5t5 -362.5t-10 -380q365 -10 604.5 -14t385 -4t215 4t94 9t23.5 13t3 15q-4 90 -7 207.5t-4 248.5t-1 269.5v269.5t1 250t1 211zM182 84q0 139 1 313t2 352.5t4.5 351.5t5.5 316q78 -137 448 -676q-82 -131 -461 -657zM293 86 q424 555 444 598l508 -608q-22 -4 -249.5 0t-320.5 5t-206 1t-176 4zM319 1415h118t333 -7t331 -6t118 1q-39 -84 -254 -321.5t-228 -272.5q-10 31 -144 200t-274 406zM831 745q469 588 500 654q0 -133 1 -300t2 -343t-1 -338t-8 -307q-29 70 -122 181t-372 453z" />
<glyph unicode="&#xd8;" horiz-adv-x="980" d="M61.5 802q-2.5 81 7 159.5t30 155.5t61.5 147q8 12 20 24q57 70 126 114t165 48t170 -33q16 -8 33 -16l24 86q70 -4 97 -17q-4 -12 -6.5 -19t-6.5 -19q-10 -29 -30 -93l20 -20q55 -61 89 -143t46 -170q10 -66 15.5 -125.5t1.5 -118.5q4 -80 -4.5 -168t-30 -176t-58 -164 t-88 -134.5t-121 -90t-155.5 -25.5q-76 4 -133 27q-18 6 -35 14l-25 -70q-6 -8 -8 -10q-12 -2 -98 -6q6 14 12 34.5t19 53.5q8 27 16 53q-17 17 -31 35q-51 66 -76.5 150t-31.5 175t-8 183q-4 78 -6.5 159zM152 913q2 -127 2 -231t18 -272q16 -139 78 -226q67 188 94 260 q29 78 65.5 181.5t100.5 277.5q25 63 80 236q37 113 57 176q-55 33 -127 47q-205 4 -265 -112.5t-72.5 -159.5t-18.5 -79t-12 -98zM330 117q63 -35 159 -35q152 10 233 140t94 197.5t15.5 114t6.5 99.5q2 53 3 117.5t-4.5 176t-74.5 257.5q-16 35 -39 78q-16 -70 -41 -144 q-20 -59 -39.5 -118.5t-40.5 -116.5q-41 -119 -80 -236t-86 -233q-10 -31 -21.5 -64t-25.5 -65z" />
<glyph unicode="&#xd9;" horiz-adv-x="1034" d="M82 846q-6 -275 8 -502q4 -94 47 -182t118 -128t167 -55.5t178 -7.5q147 14 233.5 108.5t102.5 229.5q29 264 33 531.5t-8 529.5q-25 14 -101 4q-6 -238 -1 -476.5t-10 -449t-131 -313t-304.5 -54.5t-214 273.5t-6.5 1038.5h-109h-2l2 -2q4 -270 -2 -545zM240 1778 q4 8 58 -48.5t89 -92t62.5 -62.5t37.5 -43q57 -6 88 -3t46 7q-35 33 -81 83t-89 90t-80 78t-62 64z" />
<glyph unicode="&#xda;" horiz-adv-x="1034" d="M82 846q-6 -275 8 -502q4 -94 47 -182t118 -128t167 -55.5t178 -7.5q147 14 233.5 108.5t102.5 229.5q29 264 33 531.5t-8 529.5q-25 14 -101 4q-6 -238 -1 -476.5t-10 -449t-131 -313t-304.5 -54.5t-214 273.5t-6.5 1038.5h-109h-2l2 -2q4 -270 -2 -545zM397 1542 q35 33 81 83t89 90t80 78t62 65l69 -74q-4 8 -58 -48.5t-89 -92t-62.5 -62.5t-38.5 -43q-57 -6 -87.5 -3t-45.5 7z" />
<glyph unicode="&#xdb;" horiz-adv-x="1034" d="M82 846q-6 -275 8 -502q4 -94 47 -182t118 -128t167 -55.5t178 -7.5q147 14 233.5 108.5t102.5 229.5q29 264 33 531.5t-8 529.5q-25 14 -101 4q-6 -238 -1 -476.5t-10 -449t-131 -313t-304.5 -54.5t-214 273.5t-6.5 1038.5h-109h-2l2 -2q4 -270 -2 -545zM184 1542 q63 -2 82 -2t37 2q8 2 72.5 70.5t80 86t33 36t27.5 20.5q8 -4 23.5 -19.5t30 -32.5t93 -93t87.5 -76q39 6 63.5 9t28.5 1l-330 330q-90 -84 -160.5 -151.5t-167.5 -180.5z" />
<glyph unicode="&#xdc;" horiz-adv-x="1034" d="M82 846q-6 -275 8 -502q4 -94 47 -182t118 -128t167 -55.5t178 -7.5q147 14 233.5 108.5t102.5 229.5q29 264 33 531.5t-8 529.5q-25 14 -101 4q-6 -238 -1 -476.5t-10 -449t-131 -313t-304.5 -54.5t-214 273.5t-6.5 1038.5h-109h-2l2 -2q4 -270 -2 -545zM310 1606.5 q1 -29.5 5 -50.5h7l79 -2h5v2v3q0 14 2 46.5t4 68.5t4 62.5t2 28.5q-14 6 -50 5t-55 -7q0 -12 -1 -38.5t-2 -57.5t0 -60.5zM634 1606.5q1 -29.5 5 -50.5h6l80 -2h4v2v3q0 14 2 46.5t4 68.5t4 62.5t2 28.5q-14 6 -50 5t-54 -7q0 -12 -1 -38.5t-2 -57.5t0 -60.5z" />
<glyph unicode="&#xdd;" horiz-adv-x="888" d="M33 1417q20 -86 78.5 -200.5t111.5 -205.5t97.5 -166t136.5 -235q-82 -211 -250 -610h4q12 -2 54 0t54 0q88 209 155 369.5t151 336t161.5 351.5t135.5 360v2q-13 2 -33.5 3t-27.5 0t-34 -5q-18 -45 -91.5 -223t-213.5 -483q-86 125 -190.5 297t-206.5 411q-10 4 -30.5 1 t-61.5 -3zM367 1536q35 33 81 83t89 90t79.5 78t61.5 64l70 -73q-5 8 -59 -48.5t-89 -92t-62.5 -62.5t-37.5 -43q-57 -6 -88 -3t-45 7z" />
<glyph unicode="&#xde;" horiz-adv-x="978" d="M69 578.5q-1 -158.5 3 -580.5q82 10 114 6q2 4 2 14q0 20 2.5 204t-10.5 265q33 -104 95.5 -156t146.5 -57.5t141 2.5q117 8 184.5 60.5t101.5 133.5t44 181.5t14 202.5q0 72 -9 139.5t-28.5 124t-51.5 96t-77 56.5q-55 20 -121.5 25t-182 5t-176 -69.5t-64.5 -87.5 q2 199 3 237.5t-1 79.5v23q0 2 -42 4t-75 -4q-8 -76 -7 -246t-2 -335t-4 -323.5zM193 764q0 117 16 210t96 157.5t154 64.5q147 0 242.5 -43t99.5 -168q4 -108 7 -153.5t3 -86.5q0 -76 -19.5 -170t-59.5 -136t-105.5 -61.5t-143.5 -19.5q-94 0 -165.5 78t-98 156t-26.5 172z " />
<glyph unicode="&#xdf;" horiz-adv-x="962" d="M72 711.5q-6 -349.5 6 -705.5q10 -4 96 -6q20 -2 18 192.5t-4 247t-3 117t-2 121.5t-6 155.5t-8 286t1 232.5q31 16 147.5 20t190.5 -14q203 -55 264 -217q86 -246 -197 -453q156 -35 203 -106.5t47 -204.5t-45 -194.5t-254 -63.5q-33 0 -84 -2q-12 -86 9 -117 q127 -8 186 3t124.5 44t112 93.5t62.5 156.5q12 66 4 119t-29.5 97t-51.5 84t-62 81q-10 12 -14.5 20.5t3.5 22.5q41 70 71 151.5t30 167.5q0 115 -37 194t-100.5 129t-146.5 72.5t-173 26.5t-182 -8t-174 -35l-2 -2q6 -356 0 -705.5z" />
<glyph unicode="&#xe0;" d="M39 545q0 -82 17.5 -178.5t54 -178.5t93 -137t136.5 -55q72 0 232.5 4t228.5 113v-46t1 -46.5t15 -24.5q-2 2 55 2q25 4 26 30.5t1 53.5q14 219 6 433t-2 435v21q0 12 -1 24.5t-3 24.5q-65 4 -70.5 5t-18.5 0t-13 -3q0 -53 -9 -104q-20 37 -39.5 52t-50 30.5t-147.5 17.5 t-168 0q-72 -2 -135.5 -38t-109.5 -98.5t-72.5 -148.5t-26.5 -188zM131 489q0 51 3 104.5t18 104.5q22 97 114 174.5t232 71.5q133 -8 174 -33.5t72.5 -55.5t43 -115t11.5 -222q0 -111 -1 -199t-47 -144t-108.5 -76.5t-159.5 -18.5q-195 -16 -268.5 94.5t-83.5 314.5z M276 1446q5 8 59 -48.5t89 -92t62.5 -62t37.5 -43.5q57 -6 88 -3t45 7q-35 33 -81 83t-89 90t-79.5 78t-61.5 65z" />
<glyph unicode="&#xe1;" d="M39 545q0 -82 17.5 -178.5t54 -178.5t93 -137t136.5 -55q72 0 232.5 4t228.5 113v-46t1 -46.5t15 -24.5q-2 2 55 2q25 4 26 30.5t1 53.5q14 219 6 433t-2 435v21q0 12 -1 24.5t-3 24.5q-65 4 -70.5 5t-18.5 0t-13 -3q0 -53 -9 -104q-20 37 -39.5 52t-50 30.5t-147.5 17.5 t-168 0q-72 -2 -135.5 -38t-109.5 -98.5t-72.5 -148.5t-26.5 -188zM131 489q0 51 3 104.5t18 104.5q22 97 114 174.5t232 71.5q133 -8 174 -33.5t72.5 -55.5t43 -115t11.5 -222q0 -111 -1 -199t-47 -144t-108.5 -76.5t-159.5 -18.5q-195 -16 -268.5 94.5t-83.5 314.5z M391 1194q35 33 81 83t89 90t80 78t61 64l70 -73q-4 8 -58.5 -48.5t-89 -92t-62 -62.5t-38.5 -43q-57 -6 -87.5 -3t-45.5 7z" />
<glyph unicode="&#xe2;" d="M39 545q0 -82 17.5 -178.5t54 -178.5t93 -137t136.5 -55q72 0 232.5 4t228.5 113v-46t1 -46.5t15 -24.5q-2 2 55 2q25 4 26 30.5t1 53.5q14 219 6 433t-2 435v21q0 12 -1 24.5t-3 24.5q-65 4 -70.5 5t-18.5 0t-13 -3q0 -53 -9 -104q-20 37 -39.5 52t-50 30.5t-147.5 17.5 t-168 0q-72 -2 -135.5 -38t-109.5 -98.5t-72.5 -148.5t-26.5 -188zM131 489q0 51 3 104.5t18 104.5q22 97 114 174.5t232 71.5q133 -8 174 -33.5t72.5 -55.5t43 -115t11.5 -222q0 -111 -1 -199t-47 -144t-108.5 -76.5t-159.5 -18.5q-195 -16 -268.5 94.5t-83.5 314.5z M190 1217q63 -2 82 -2.5t37 2.5q8 2 72.5 70.5t80 86t33 35.5t27.5 21q8 -4 23.5 -19.5t30 -33t93.5 -93.5t87 -76q39 6 63.5 9.5t28.5 1.5l-330 329q-90 -84 -160.5 -151.5t-167.5 -179.5z" />
<glyph unicode="&#xe3;" d="M39 545q0 -82 17.5 -178.5t54 -178.5t93 -137t136.5 -55q72 0 232.5 4t228.5 113v-46t1 -46.5t15 -24.5q-2 2 55 2q25 4 26 30.5t1 53.5q14 219 6 433t-2 435v21q0 12 -1 24.5t-3 24.5q-65 4 -70.5 5t-18.5 0t-13 -3q0 -53 -9 -104q-20 37 -39.5 52t-50 30.5t-147.5 17.5 t-168 0q-72 -2 -135.5 -38t-109.5 -98.5t-72.5 -148.5t-26.5 -188zM92 1210q31 2 48.5 2t41.5 -2v2q21 103 57.5 173.5t112.5 89.5q45 8 80 -10.5t68 -106.5q41 -133 100 -151.5t123 -8.5q53 8 93 42t64.5 81t34 101.5t0.5 105.5v2l-75 -2q12 -82 -9.5 -162t-120 -99.5 t-126 74t-45 122t-47.5 50.5q-33 23 -70 30t-74 1t-71.5 -24.5t-61.5 -44.5q-20 -23 -38.5 -58t-35 -73.5t-30 -74.5t-19.5 -59zM131 489q0 51 3 104.5t18 104.5q22 97 114 174.5t232 71.5q133 -8 174 -33.5t72.5 -55.5t43 -115t11.5 -222q0 -111 -1 -199t-47 -144 t-108.5 -76.5t-159.5 -18.5q-195 -16 -268.5 94.5t-83.5 314.5z" />
<glyph unicode="&#xe4;" d="M39 545q0 -82 17.5 -178.5t54 -178.5t93 -137t136.5 -55q72 0 232.5 4t228.5 113v-46t1 -46.5t15 -24.5q-2 2 55 2q25 4 26 30.5t1 53.5q14 219 6 433t-2 435v21q0 12 -1 24.5t-3 24.5q-65 4 -70.5 5t-18.5 0t-13 -3q0 -53 -9 -104q-20 37 -39.5 52t-50 30.5t-147.5 17.5 t-168 0q-72 -2 -135.5 -38t-109.5 -98.5t-72.5 -148.5t-26.5 -188zM131 489q0 51 3 104.5t18 104.5q22 97 114 174.5t232 71.5q133 -8 174 -33.5t72.5 -55.5t43 -115t11.5 -222q0 -111 -1 -199t-47 -144t-108.5 -76.5t-159.5 -18.5q-195 -16 -268.5 94.5t-83.5 314.5z M355 1352.5q1 -29.5 5 -49.5h7l79 -3h5v3v2q0 14 2 46.5t4 68.5t4 62.5t2 28.5q-14 6 -50 5.5t-55 -7.5q0 -12 -1 -38.5t-2 -57.5t0 -60.5zM679 1352.5q1 -29.5 5 -49.5h6l80 -3h4v3v2q0 14 2 46.5t4 68.5t4 62.5t2 28.5q-14 6 -50 5.5t-54 -7.5q0 -12 -1 -38.5t-2 -57.5 t0 -60.5z" />
<glyph unicode="&#xe5;" d="M39 545q0 -82 17.5 -178.5t54 -178.5t93 -137t136.5 -55q72 0 232.5 4t228.5 113v-46t1 -46.5t15 -24.5q-2 2 55 2q25 4 26 30.5t1 53.5q14 219 6 433t-2 435v21q0 12 -1 24.5t-3 24.5q-65 4 -70.5 5t-18.5 0t-13 -3q0 -53 -9 -104q-20 37 -39.5 52t-50 30.5t-147.5 17.5 t-168 0q-72 -2 -135.5 -38t-109.5 -98.5t-72.5 -148.5t-26.5 -188zM131 489q0 51 3 104.5t18 104.5q22 97 114 174.5t232 71.5q133 -8 174 -33.5t72.5 -55.5t43 -115t11.5 -222q0 -111 -1 -199t-47 -144t-108.5 -76.5t-159.5 -18.5q-195 -16 -268.5 94.5t-83.5 314.5z M327 1342.5q3 -60.5 13 -117.5q10 -27 36.5 -42.5t55.5 -17.5t57.5 -2t57.5 4q35 2 69.5 11.5t53.5 38.5q24 61 27 130.5t-15 133.5q-23 33 -71 45t-91 14q-47 4 -89 -5t-71 -36q-16 -20 -22 -41q-14 -55 -11 -115.5zM418 1362q0 14 4 35q6 27 31 41q26 12 61 12 q23 0 43.5 -6t36.5 -23q10 -16 14 -45q2 -23 -2 -47t-8 -45q-10 -23 -38 -26t-50 -5h-21q-31 0 -51 19q-16 16 -18 41.5t-2 48.5z" />
<glyph unicode="&#xe6;" horiz-adv-x="1439" d="M19.5 308q-3.5 -79 29.5 -142.5t94.5 -107.5t138 -62.5t161.5 -8t165 55.5q33 20 58.5 39.5t48.5 38.5v4q63 -61 112 -90q57 -23 111 -31q55 0 119.5 -4t126 0t114 23.5t84.5 64.5q14 12 22.5 42t14.5 71t9.5 90t7.5 98q-20 6 -46 2t-44 -2q4 -80 -15.5 -201.5 t-218.5 -128t-265.5 78.5t-78.5 147.5t-15 99.5t-5 94v35q20 -4 62 -6t183.5 -5t198.5 -1t108.5 5t89 7t50.5 8q6 80 0 160t-34 145.5t-82 111.5t-142 60q-70 18 -142.5 16.5t-138 -22t-119.5 -59.5q-27 -20 -45 -45q-2 25 -12 35q-39 37 -105.5 57t-142.5 21.5t-153.5 -16 t-138 -55.5t-95.5 -96.5t-24 -138.5q20 -10 55 -6t59 8q-18 115 38 159t186.5 54.5t190.5 -14.5t55 -149.5t-5 -152.5t2 -73q-51 29 -129 52.5t-180 17.5t-165.5 -35t-96.5 -80q-53 -90 -56.5 -169zM105.5 233.5q-5.5 55.5 12 122t52.5 99.5q98 70 201.5 65.5t203.5 -59.5 q45 -27 68 -103.5t0.5 -152.5t-102.5 -123t-250 -19q-94 17 -137 66t-48.5 104.5zM757 606.5q-3 18.5 3 63.5q8 57 26.5 109t56.5 87t96 57.5t151 22.5q45 0 71.5 -4t69.5 -18q76 -54 108.5 -136.5t36.5 -154.5v-35q0 -10 -21.5 -13t-66.5 -6.5t-151 1.5q-141 -6 -212 -3 t-118 7t-50 22.5z" />
<glyph unicode="&#xe7;" horiz-adv-x="907" d="M47 662q0 -135 1 -183.5t5 -129.5t24.5 -154.5t76.5 -122.5q72 -72 176 -90h67q-23 -68 -35 -117q-14 -66 -38 -158v-2h102q4 14 21.5 82t33.5 135q8 29 13 53q51 -2 98 2q66 4 122 25t91 70q14 14 23.5 46t15.5 76t10 95t8 104q-22 6 -39.5 4t-46.5 9q2 -35 -1 -134.5 t-75.5 -167t-280.5 -52t-243 150.5t-31 182q-12 270 2.5 370.5t38 142.5t88.5 54q252 16 385.5 -14.5t126.5 -345.5q27 -4 40.5 -5t39.5 5q-2 68 -3 126t-9 105t-23.5 82t-44.5 56q-43 41 -102 61t-125 25q-43 4 -81 0.5t-79 1.5q-49 0 -97 -6.5t-90 -21.5t-74 -37.5 t-46 -53.5q-6 -20 -18.5 -59.5t-14.5 -61.5q-12 -74 -12 -147z" />
<glyph unicode="&#xe8;" horiz-adv-x="909" d="M43 582q-4 -84 4 -168t30.5 -159t59.5 -137.5t92 -101.5q49 -29 107 -36q57 0 125.5 -4.5t134.5 0t121 24.5t90 70q14 12 23.5 43.5t15.5 75.5t10 95.5t8 104.5q-23 6 -49.5 2t-46.5 -2q4 -84 -16.5 -214t-231.5 -136t-281.5 84t-84 156.5t-16.5 105.5t-5 100v37 q21 -4 66 -6t194.5 -6t211 -2t115.5 6t94 8t54 8q6 86 0 170t-35.5 154t-87 119t-151.5 65q-74 18 -151.5 16.5t-147.5 -23t-125 -63.5t-82 -102q-25 -68 -32 -138.5t-13 -145.5zM142 619.5q-3 19.5 3 68.5q8 59 28 115.5t60.5 93.5t102 60.5t160.5 23.5q47 0 75.5 -4 t73.5 -21q82 -55 117 -143t39 -166v-36t-22.5 -14t-71 -6t-160.5 1q-152 -6 -226.5 -3t-125 7t-53.5 23.5zM227 1442q4 8 58.5 -48.5t89.5 -92t62.5 -62.5t37.5 -43q57 -6 88 -3t45 7q-35 33 -81 83t-89 90t-79.5 78t-61.5 65z" />
<glyph unicode="&#xe9;" horiz-adv-x="909" d="M43 582q-4 -84 4 -168t30.5 -159t59.5 -137.5t92 -101.5q49 -29 107 -36q57 0 125.5 -4.5t134.5 0t121 24.5t90 70q14 12 23.5 43.5t15.5 75.5t10 95.5t8 104.5q-23 6 -49.5 2t-46.5 -2q4 -84 -16.5 -214t-231.5 -136t-281.5 84t-84 156.5t-16.5 105.5t-5 100v37 q21 -4 66 -6t194.5 -6t211 -2t115.5 6t94 8t54 8q6 86 0 170t-35.5 154t-87 119t-151.5 65q-74 18 -151.5 16.5t-147.5 -23t-125 -63.5t-82 -102q-25 -68 -32 -138.5t-13 -145.5zM142 619.5q-3 19.5 3 68.5q8 59 28 115.5t60.5 93.5t102 60.5t160.5 23.5q47 0 75.5 -4 t73.5 -21q82 -55 117 -143t39 -166v-36t-22.5 -14t-71 -6t-160.5 1q-152 -6 -226.5 -3t-125 7t-53.5 23.5zM356 1204q35 33 81 83t89 90t80 78t62 65l69 -74q-4 8 -58 -48.5t-89 -92t-62.5 -62t-38.5 -43.5q-57 -6 -87.5 -3t-45.5 7z" />
<glyph unicode="&#xea;" horiz-adv-x="909" d="M43 582q-4 -84 4 -168t30.5 -159t59.5 -137.5t92 -101.5q49 -29 107 -36q57 0 125.5 -4.5t134.5 0t121 24.5t90 70q14 12 23.5 43.5t15.5 75.5t10 95.5t8 104.5q-23 6 -49.5 2t-46.5 -2q4 -84 -16.5 -214t-231.5 -136t-281.5 84t-84 156.5t-16.5 105.5t-5 100v37 q21 -4 66 -6t194.5 -6t211 -2t115.5 6t94 8t54 8q6 86 0 170t-35.5 154t-87 119t-151.5 65q-74 18 -151.5 16.5t-147.5 -23t-125 -63.5t-82 -102q-25 -68 -32 -138.5t-13 -145.5zM142 619.5q-3 19.5 3 68.5q8 59 28 115.5t60.5 93.5t102 60.5t160.5 23.5q47 0 75.5 -4 t73.5 -21q82 -55 117 -143t39 -166v-36t-22.5 -14t-71 -6t-160.5 1q-152 -6 -226.5 -3t-125 7t-53.5 23.5zM156 1221q63 -2 81.5 -2t36.5 2q8 2 73 70.5t80 86t32.5 36t27.5 20.5q8 -4 23.5 -19.5t30 -33t93.5 -93.5t87 -76q39 6 63.5 9.5t28.5 1.5l-330 329 q-90 -84 -160.5 -151.5t-166.5 -179.5z" />
<glyph unicode="&#xeb;" horiz-adv-x="909" d="M41 526q0 -78 10 -153.5t34 -143t59.5 -123t84.5 -90.5q61 -35 139 -39t167 -4q82 0 155.5 17.5t116.5 79.5q14 12 23.5 43.5t15.5 75.5t10 95.5t8 104.5q-10 2 -28 2q-16 0 -32 -1t-28 -1h-8v-29q0 -37 -3 -84t-13 -102q-25 -135 -258 -135q-190 0 -256 84 q-35 45 -54.5 84t-29 72.5t-12.5 60.5l-5 45q-2 20 -3 45t-1 55v37q-6 0 28 -2t93 -5t139 -6t168 -3q49 0 99.5 3t93.5 6t73.5 7t40.5 8q2 23 3 44.5t1 43.5q0 90 -18 170t-64.5 139.5t-127 93.5t-205.5 34q-59 0 -116.5 -12.5t-107 -36t-87 -58.5t-58.5 -82 q-29 -78 -38 -166t-9 -174zM139 637q0 70 17.5 133.5t59.5 109.5t109.5 73.5t170.5 27.5q47 0 75.5 -4t73.5 -21q43 -30 73 -71t48 -86t26.5 -92.5t8.5 -85.5q0 -10 -4 -15.5t-19.5 -9.5t-46.5 -5t-86 -1q-20 0 -45 1t-53 1q-55 0 -100.5 -3t-79.5 -3q-102 0 -165 8t-63 43z M248 1477.5q2 -25.5 2 -60.5q0 -51 6 -82h6l80 -2h4v4q0 14 2 47t4 69t4 62.5t2 28.5q-6 4 -17 4h-26q-33 0 -47 -7t-18 -22.5t-2 -41zM571 1477.5q2 -25.5 2 -60.5q0 -51 7 -84h6h80h4v4q0 14 2 47t4 69t4 62.5t2 28.5q-6 4 -17.5 4h-25.5q-33 0 -47 -7t-18.5 -22.5 t-2.5 -41z" />
<glyph unicode="&#xec;" horiz-adv-x="423" d="M-82 1450q4 8 58.5 -48t89 -92t62.5 -62.5t38 -43.5q57 -6 88 -3t45 7q-35 33 -81 83t-89 90t-80 78t-61 65zM168 781q2 -128 2 -235.5v-216v-333.5q14 4 36.5 6t78.5 -2q-16 260 -9 518t9 506v6q-99 4 -107 2v-2q-12 -121 -10 -249z" />
<glyph unicode="&#xed;" horiz-adv-x="423" d="M168 781q2 -128 2 -235.5v-216v-333.5q14 4 36.5 6t78.5 -2q-16 260 -9 518t9 506v6q-99 4 -107 2v-2q-12 -121 -10 -249zM168 1196q35 33 81 83t89 90t80 78t61 64l70 -73q-4 8 -58.5 -48.5t-89 -92t-62.5 -62.5t-38 -43q-57 -6 -88 -3t-45 7z" />
<glyph unicode="&#xee;" horiz-adv-x="423" d="M-104 1210q63 -2 81.5 -2t36.5 2q8 2 73 71t80 86t32.5 35.5t27.5 20.5q8 -4 23.5 -19t30 -32.5t93.5 -93.5t87 -76q39 6 63.5 9t28.5 1l-330 330q-90 -84 -160.5 -151.5t-166.5 -180.5zM168 781q2 -128 2 -235.5v-216v-333.5q14 4 36.5 6t78.5 -2q-16 260 -9 518t9 506 v6q-99 4 -107 2v-2q-12 -121 -10 -249z" />
<glyph unicode="&#xef;" horiz-adv-x="423" d="M-3 1383.5q1 -29.5 5 -50.5h6l80 -2h4v2v2q0 14 2 47t4 69t4 62.5t2 28.5q-14 6 -50 5t-54 -7q0 -12 -1 -38.5t-2 -57.5t0 -60.5zM168 781q2 -128 2 -235.5v-216v-333.5q14 4 36.5 6t78.5 -2q-16 260 -9 518t9 506v6q-99 4 -107 2v-2q-12 -121 -10 -249zM320.5 1383.5 q1.5 -29.5 5.5 -50.5h6l80 -2h4v2v2q0 14 2 47t4 69t4 62.5t2 28.5q-14 6 -50 5t-54 -7q0 -12 -1 -38.5t-2.5 -57.5t0 -60.5z" />
<glyph unicode="&#xf0;" horiz-adv-x="1083" d="M37 422l2 -57q0 -12 1 -24.5t3 -23.5q12 -109 67.5 -183.5t138.5 -117.5t184.5 -57t207.5 -2q150 18 236 94t117.5 195t33.5 262t-16 297q-41 219 -226.5 420.5t-224.5 234.5q29 18 68 42t85 58.5t154 102.5q-51 55 -75 88q-23 -12 -82.5 -55t-210.5 -160 q-39 12 -124 60.5t-116 70.5q-10 4 -49 -22.5t-55.5 -42t-14.5 -17.5q82 -35 136.5 -70.5t107.5 -48.5q-51 -37 -137 -101.5t-120 -89t-54 -38.5l-21 -14q4 -6 30 -27.5t40 -42.5q6 4 33.5 21.5t70.5 46t107.5 81t128.5 95.5q63 -53 101 -85t168 -184.5t171 -461.5 q-80 125 -149.5 173t-109.5 57t-95 11t-201 8q-96 -12 -158.5 -51t-98.5 -102.5t-47 -149.5t-7 -190zM133 393q-14 158 34 284t195 146q68 8 157 -8t169 -64.5t137.5 -130t69.5 -198.5q14 -160 -61.5 -255t-233.5 -114q-66 -10 -138.5 0t-136 41t-112.5 90.5t-70 141.5z" />
<glyph unicode="&#xf1;" horiz-adv-x="921" d="M53 1212q31 2 48.5 2t41.5 -2v2q21 103 58 173.5t112 89.5q45 8 80 -10.5t68 -106.5q41 -133 100.5 -151.5t122.5 -8.5q53 8 93 42t64.5 81t34 101.5t1.5 105.5v2l-76 -2q12 -82 -9.5 -162t-120 -99.5t-126 74t-45 122t-47.5 51.5q-33 23 -70 29.5t-74 0.5t-71.5 -24.5 t-61.5 -44.5q-20 -23 -38.5 -58t-35 -73.5t-30 -74.5t-19.5 -59zM73 498q5 -252 5 -504q49 4 112 4v8q2 68 2.5 135.5t-3 136t-5.5 204.5t2 208q4 55 32 102.5t92.5 82t248.5 50t190.5 -127t6.5 -224t-5.5 -181t-6.5 -163t-1 -123t5 -106.5q80 0 104 4q-4 70 -2 162t4 191.5 t3 196.5t-2 179t-14.5 140.5t-31.5 76.5q-43 37 -96.5 51.5t-109.5 12.5t-183 -24.5t-170 -53.5q-10 -8 -25.5 -16.5t-25.5 -14.5q-2 29 -1 51.5t-3 57.5q0 6 -16.5 7t-47.5 -1t-55 0q-8 -270 -3 -522z" />
<glyph unicode="&#xf2;" horiz-adv-x="917" d="M49 666q6 -68 3 -150t1 -163t24.5 -154.5t76.5 -122.5q72 -72 176 -90q57 0 126.5 -5.5t135 0t122 26t91.5 69.5q20 20 31.5 75.5t18.5 125t10 145.5t5 135q-2 68 -4 132.5t-10 118.5t-24.5 95t-45.5 60q-43 41 -102 62.5t-125 25.5q-43 4 -81 1t-79 1q-49 0 -97 -6.5 t-90 -21.5t-74 -37.5t-46 -53.5q-16 -45 -23.5 -71.5t-9.5 -49.5q-6 -39 -8 -75t-2 -72zM131 585.5q-2 102.5 6 171t47 128.5q53 67 213 90q135 12 255 -22.5t120 -178.5q14 -164 9 -269.5t-5 -182.5q0 -201 -108 -238q-72 -25 -155 -30t-149.5 4.5t-129 46t-78.5 167.5 q-23 211 -25 313.5zM201 1448q4 8 58 -48.5t89 -92t62.5 -62t38.5 -43.5q57 -6 87.5 -3t45.5 7q-35 33 -81 83t-89 90t-80 78t-62 65z" />
<glyph unicode="&#xf3;" horiz-adv-x="917" d="M49 666q6 -68 3 -150t1 -163t24.5 -154.5t76.5 -122.5q72 -72 176 -90q57 0 126.5 -5.5t135 0t122 26t91.5 69.5q20 20 31.5 75.5t18.5 125t10 145.5t5 135q-2 68 -4 132.5t-10 118.5t-24.5 95t-45.5 60q-43 41 -102 62.5t-125 25.5q-43 4 -81 1t-79 1q-49 0 -97 -6.5 t-90 -21.5t-74 -37.5t-46 -53.5q-16 -45 -23.5 -71.5t-9.5 -49.5q-6 -39 -8 -75t-2 -72zM131 585.5q-2 102.5 6 171t47 128.5q53 67 213 90q135 12 255 -22.5t120 -178.5q14 -164 9 -269.5t-5 -182.5q0 -201 -108 -238q-72 -25 -155 -30t-149.5 4.5t-129 46t-78.5 167.5 q-23 211 -25 313.5zM360 1196q35 33 81 83t89 90t80 78t62 64l69 -73q-4 8 -58 -48.5t-89 -92t-62.5 -62.5t-37.5 -43q-57 -6 -88 -3t-46 7z" />
<glyph unicode="&#xf4;" horiz-adv-x="917" d="M49 666q6 -68 3 -150t1 -163t24.5 -154.5t76.5 -122.5q72 -72 176 -90q57 0 126.5 -5.5t135 0t122 26t91.5 69.5q20 20 31.5 75.5t18.5 125t10 145.5t5 135q-2 68 -4 132.5t-10 118.5t-24.5 95t-45.5 60q-43 41 -102 62.5t-125 25.5q-43 4 -81 1t-79 1q-49 0 -97 -6.5 t-90 -21.5t-74 -37.5t-46 -53.5q-16 -45 -23.5 -71.5t-9.5 -49.5q-6 -39 -8 -75t-2 -72zM131 585.5q-2 102.5 6 171t47 128.5q53 67 213 90q135 12 255 -22.5t120 -178.5q14 -164 9 -269.5t-5 -182.5q0 -201 -108 -238q-72 -25 -155 -30t-149.5 4.5t-129 46t-78.5 167.5 q-23 211 -25 313.5zM145 1214q63 -2 82 -2t37 2q8 2 72.5 71t80 86.5t33 35.5t27.5 20q8 -4 23.5 -19t30 -32.5t93 -93.5t87.5 -76q39 6 63.5 9.5t28.5 1.5l-330 329q-90 -84 -160.5 -151.5t-167.5 -180.5z" />
<glyph unicode="&#xf5;" horiz-adv-x="917" d="M47 1212q31 2 48.5 2t41.5 -2v2q21 103 57.5 173.5t112.5 89.5q45 8 80 -10.5t68 -106.5q41 -133 100 -151.5t123 -8.5q53 8 93 42t64.5 81t34 101.5t0.5 105.5v2l-75 -2q12 -82 -9.5 -162t-120 -99.5t-126 74t-45 122t-48.5 51.5q-33 23 -69.5 29.5t-73.5 0.5 t-71.5 -24.5t-61.5 -44.5q-20 -23 -38.5 -58t-35 -73.5t-30 -74.5t-19.5 -59zM49 666q6 -68 3 -150t1 -163t24.5 -154.5t76.5 -122.5q72 -72 176 -90q57 0 126.5 -5.5t135 0t122 26t91.5 69.5q20 20 31.5 75.5t18.5 125t10 145.5t5 135q-2 68 -4 132.5t-10 118.5t-24.5 95 t-45.5 60q-43 41 -102 62.5t-125 25.5q-43 4 -81 1t-79 1q-49 0 -97 -6.5t-90 -21.5t-74 -37.5t-46 -53.5q-16 -45 -23.5 -71.5t-9.5 -49.5q-6 -39 -8 -75t-2 -72zM131 585.5q-2 102.5 6 171t47 128.5q53 67 213 90q135 12 255 -22.5t120 -178.5q14 -164 9 -269.5t-5 -182.5 q0 -201 -108 -238q-72 -25 -155 -30t-149.5 4.5t-129 46t-78.5 167.5q-23 211 -25 313.5z" />
<glyph unicode="&#xf6;" horiz-adv-x="917" d="M49 666q6 -68 3 -150t1 -163t24.5 -154.5t76.5 -122.5q72 -72 176 -90q57 0 126.5 -5.5t135 0t122 26t91.5 69.5q20 20 31.5 75.5t18.5 125t10 145.5t5 135q-2 68 -4 132.5t-10 118.5t-24.5 95t-45.5 60q-43 41 -102 62.5t-125 25.5q-43 4 -81 1t-79 1q-49 0 -97 -6.5 t-90 -21.5t-74 -37.5t-46 -53.5q-16 -45 -23.5 -71.5t-9.5 -49.5q-6 -39 -8 -75t-2 -72zM131 585.5q-2 102.5 6 171t47 128.5q53 67 213 90q135 12 255 -22.5t120 -178.5q14 -164 9 -269.5t-5 -182.5q0 -201 -108 -238q-72 -25 -155 -30t-149.5 4.5t-129 46t-78.5 167.5 q-23 211 -25 313.5zM245 1385.5q1 -29.5 5 -50.5h6l80 -2h4v2v2q0 14 2 47t4 69t4 62.5t2 28.5q-14 6 -50 5t-54 -7q0 -12 -1 -38.5t-2 -57.5t0 -60.5zM568 1385.5q1 -29.5 5 -50.5h7l79 -2h5v2v2q0 14 2 47t4 69t4 62.5t2 28.5q-14 6 -50 5t-55 -7q0 -12 -1 -38.5t-2 -57.5 t0 -60.5z" />
<glyph unicode="&#xf7;" horiz-adv-x="954" d="M47 410q10 0 85 -2t181.5 -3.5t226 -4.5t225 -5t121 -2t11.5 0h2q-4 70 -6 133h-32.5h-129h-225.5h-219.5h-166h-67.5q0 -6 -1 -38.5t-3 -42t-2 -35.5zM413 59.5q1 -34.5 5 -57.5h6l82 -2h4v2v2q0 14 2 53t4 80t4 73t2 34q-14 6 -27.5 9t-36 -1t-42.5 -12q0 -14 -1 -45 t-2 -66t0 -69.5zM415 747.5q1 -34.5 5 -57.5h6l82 -2h4v2v2q0 14 2 53t4 80t4 73t2 34q-14 6 -27.5 9t-36 -1t-42.5 -12q0 -14 -1 -45t-2 -66t0 -69.5z" />
<glyph unicode="&#xf8;" horiz-adv-x="718" d="M50 562.5q-1 58.5 6 113.5t21.5 110.5t47.5 104.5q4 8 14 16q41 49 92.5 82t120.5 35q72 4 125 -23q12 -6 27 -12l16 62q51 -2 72 -13q-4 -8 -5 -13t-5 -13q-6 -20 -23 -68q8 -6 16 -14q39 -43 65 -102.5t34 -120.5q8 -47 12 -90.5t0 -84.5q4 -57 -2 -119.5t-21.5 -126 t-43 -116.5t-65.5 -96t-89 -65.5t-117 -16.5q-53 2 -96 18q-14 4 -27 10l-18 -49q-4 -6 -6 -8q-8 -2 -72 -4q6 10 10 24.5t13 36.5q6 20 12 41q-13 11 -23 25q-39 45 -57 105.5t-22.5 125t-6.5 132.5q-4 55 -5 113.5zM119 474q0 -75 14 -193q12 -100 55 -160q49 135 72 184 q20 55 47 130t76 200q16 45 57 168q27 80 41 125q-39 23 -92 35q-152 2 -195.5 -81t-53 -115t-13.5 -57.5t-8 -68.5v-167zM250 72q45 -27 115 -27q113 10 172 103.5t69 140.5t11 79.5t6 71.5q2 39 2 84t-3.5 125t-54.5 185q-12 25 -28 55q-12 -49 -29 -101 q-18 -45 -31.5 -87t-29.5 -80q-29 -86 -59 -170t-62 -166q-8 -23 -16.5 -46.5t-18.5 -48.5z" />
<glyph unicode="&#xf9;" horiz-adv-x="921" d="M64.5 470q-1.5 -97 2 -179t11.5 -134.5t43 -88t88 -50t146.5 -14.5t198.5 19.5t147 49t53 36.5q2 -29 4 -109q0 -6 11 -7t21.5 1t55.5 10q8 270 3 522t-5 504q-51 -4 -88 -14v-8q2 -68 3 -135.5t4 -213t5 -215t-4 -160.5t-152.5 -156t-304 -46.5t-155.5 242t2 313.5 t1 153.5t1 123t-4 106.5h-82q4 -70 2 -162t-4 -191.5t-3.5 -196.5zM197 1442q4 8 58 -48.5t89 -92t62.5 -62.5t37.5 -43q57 -6 88 -3t46 7q-35 33 -81 83t-89 90t-80 78t-62 65z" />
<glyph unicode="&#xfa;" horiz-adv-x="919" d="M64.5 470q-1.5 -97 2 -179t11.5 -134.5t43 -88t88 -50t146.5 -14.5t198.5 19.5t147 49t53 36.5q2 -29 4 -109q0 -6 11 -7t21.5 1t55.5 10q8 270 3 522t-5 504q-51 -4 -88 -14v-8q2 -68 3 -135.5t4 -213t5 -215t-4 -160.5t-152.5 -156t-304 -46.5t-155.5 242t2 313.5 t1 153.5t1 123t-4 106.5h-82q4 -70 2 -162t-4 -191.5t-3.5 -196.5zM358 1198q35 33 81 83t89 90t80 78t62 64l69 -73q-4 8 -58 -48.5t-89 -92t-62.5 -62.5t-37.5 -43q-57 -6 -88 -3t-46 7z" />
<glyph unicode="&#xfb;" horiz-adv-x="921" d="M64.5 470q-1.5 -97 2 -179t11.5 -134.5t43 -88t88 -50t146.5 -14.5t198.5 19.5t147 49t53 36.5q2 -29 4 -109q0 -6 11 -7t21.5 1t55.5 10q8 270 3 522t-5 504q-51 -4 -88 -14v-8q2 -68 3 -135.5t4 -213t5 -215t-4 -160.5t-152.5 -156t-304 -46.5t-155.5 242t2 313.5 t1 153.5t1 123t-4 106.5h-82q4 -70 2 -162t-4 -191.5t-3.5 -196.5zM143 1221q63 -2 82 -2t37 2q8 2 72.5 70.5t80 86t33 36t27.5 20.5q8 -4 23.5 -19.5t30 -33t93 -93.5t87.5 -76q39 6 63.5 9.5t28.5 1.5l-330 329q-90 -84 -160.5 -151.5t-167.5 -179.5z" />
<glyph unicode="&#xfc;" horiz-adv-x="919" d="M64.5 470q-1.5 -97 2 -179t11.5 -134.5t43 -88t88 -50t146.5 -14.5t198.5 19.5t147 49t53 36.5q2 -29 4 -109q0 -6 11 -7t21.5 1t55.5 10q8 270 3 522t-5 504q-51 -4 -88 -14v-8q2 -68 3 -135.5t4 -213t5 -215t-4 -160.5t-152.5 -156t-304 -46.5t-155.5 242t2 313.5 t1 153.5t1 123t-4 106.5h-82q4 -70 2 -162t-4 -191.5t-3.5 -196.5zM245 1385.5q1 -29.5 5 -50.5h6l80 -2h4v2v2q0 14 2 47t4 69t4 62.5t2 28.5q-14 6 -50 5t-54 -7q0 -12 -1 -38.5t-2 -57.5t0 -60.5zM568 1385.5q1 -29.5 5 -50.5h7l79 -2h5v2v2q0 14 2 47t4 69t4 62.5 t2 28.5q-14 6 -50 5t-55 -7q0 -12 -1 -38.5t-2 -57.5t0 -60.5z" />
<glyph unicode="&#xfd;" horiz-adv-x="919" d="M-14 -264q-18 -49 2 -98q174 -10 293.5 26.5t200.5 107t130.5 167t81 203t53 217t47 214t51 215t58.5 234.5l-102 -6q-25 -61 -138.5 -568t-191.5 -516q-57 41 -358 1088q-44 8 -107 4q63 -231 125 -420.5t234 -712.5q23 -80 -88 -129t-291 -26zM319 1200q35 33 81 83 t89 90t80 78t62 65l69 -74q-4 8 -58 -48.5t-89 -92t-62.5 -62.5t-37.5 -43q-57 -6 -88 -3t-46 7z" />
<glyph unicode="&#xfe;" horiz-adv-x="962" d="M69 308.5q-1 -158.5 3 -668.5q82 10 114 6q2 4 2 14q0 20 2.5 247.5t-10.5 309.5q33 -104 95.5 -156.5t146.5 -57.5t141 3q117 8 184.5 60.5t101.5 133.5t44 181t14 203q0 72 -9 139.5t-28.5 123.5t-51.5 96t-77 56q-55 20 -121.5 25.5t-182 5.5t-176 -69.5t-64.5 -88.5 q2 199 2 258.5v95.5t-1 55t-2 36.5t-2 39t-4 62.5v23q0 2 -36.5 4t-69.5 -4v-135q0 -170 -4 -340t-7 -335t-4 -323.5zM193 494q0 117 16 210t96 157.5t154 64.5q147 0 242.5 -43t99.5 -168q4 -109 7 -154t3 -86q0 -76 -19.5 -170t-59.5 -136t-105.5 -61.5t-143.5 -19.5 q-94 0 -165.5 78t-98 155.5t-26.5 172.5z" />
<glyph unicode="&#xff;" horiz-adv-x="919" d="M-14 -264q-18 -49 2 -98q174 -10 293.5 26.5t200.5 107t130.5 167t81 203t53 217t47 214t51 215t58.5 234.5l-102 -6q-25 -61 -138.5 -568t-191.5 -516q-57 41 -358 1088q-44 8 -107 4q63 -231 125 -420.5t234 -712.5q23 -80 -88 -129t-291 -26zM245 1385.5 q1 -29.5 5 -50.5h6l80 -2h4v2v2q0 14 2 47t4 69t4 62.5t2 28.5q-14 6 -50 5t-54 -7q0 -12 -1 -38.5t-2 -57.5t0 -60.5zM568 1385.5q1 -29.5 5 -50.5h7l79 -2h5v2v2q0 14 2 47t4 69t4 62.5t2 28.5q-14 6 -50 5t-55 -7q0 -12 -1 -38.5t-2 -57.5t0 -60.5z" />
<glyph unicode="&#x152;" horiz-adv-x="1699" d="M60.5 664.5q7.5 -160.5 13.5 -320.5q2 -59 11 -117.5t38 -109.5q18 -41 47 -66.5t64.5 -42t75.5 -24t83 -11.5q59 -4 117.5 0t116.5 21q63 16 119.5 46t91.5 79q12 20 22 43q2 -76 2 -152q199 -16 389.5 -9t399.5 5l4 74v4q-139 -4 -270.5 3t-436.5 5l-2 2q8 244 5 372 t7 187q10 8 124 11.5t150 1.5t48 1t94 7v12q0 20 -2 59v3q-63 2 -126.5 2t-295.5 2l-2 2q-14 55 -2 288.5t10 292.5l2 2h7q238 8 305 8.5t135 -1t128 2t126 -0.5l2 77q0 2 -41 4.5t-108.5 2.5t-155.5 -2.5t-182.5 -4.5t-162 -5t-147.5 -7q-4 -63 -8 -127q-18 29 -45 53 q-59 45 -134 69t-154 28t-157.5 -11.5t-146.5 -48.5q-27 -16 -47 -37q-63 -72 -84.5 -165t-24.5 -185q-10 -162 -2.5 -322.5zM150 637q-4 272 7 358t27 164q25 86 97 141q150 68 256 57t147 -28q47 -23 87 -70t44 -104q2 -35 5 -75t3 -42l13 -139v-285q0 -4 -5.5 -121.5 t-7.5 -158.5q-4 -43 -8 -70.5t-13 -44t-17.5 -32t-26.5 -40.5q-31 -35 -76 -62.5t-187.5 -39.5t-206 28t-83.5 81q-20 68 -34.5 142.5t-20.5 340.5zM1374 674h2q-2 -4 -2 0z" />
<glyph unicode="&#x153;" horiz-adv-x="1439" d="M27 649q6 -63 3 -142t1 -155t23.5 -145.5t70.5 -118.5q70 -66 168 -84q53 0 119.5 -5t129 0t115.5 24q47 18 78 55q25 -29 56 -49q45 -25 100 -33q55 0 120.5 -4t130 0t117 22.5t84.5 67.5q14 12 22.5 43t14.5 73t10.5 91t8.5 100q-23 6 -47.5 2t-44.5 -2 q4 -82 -15.5 -207t-222.5 -131t-271.5 81t-80.5 151.5t-15.5 102.5t-5.5 95v35q21 -4 65 -6t186.5 -5t201.5 -1t111.5 5t90.5 7t52 8q6 82 0 163t-34 148.5t-84 113.5t-146 63q-70 18 -144.5 16t-141.5 -22.5t-122 -61.5l-10 -8q-41 33 -94 53q-55 20 -115 25q-43 4 -79 1 t-75 1q-47 0 -92 -6t-85 -20.5t-69.5 -35t-43.5 -51.5q-14 -43 -21.5 -67.5t-9.5 -47.5q-6 -37 -8 -70.5t-2 -68.5zM104.5 573.5q-2.5 96.5 5 162t46.5 120.5q48 66 200 86q129 12 242 -22q53 -14 74 -39q-12 -16 -19 -35q-23 -63 -30 -131t-13 -142q-4 -80 4.5 -160.5 t28.5 -154.5q10 -35 25 -68q-10 -80 -54 -94q-70 -23 -147.5 -28t-141 3.5t-123 44.5t-75.5 160q-20 201 -22.5 297.5zM705.5 609.5q-3.5 19.5 3.5 66.5q8 57 26.5 110.5t57 89t98 59t156.5 23.5q43 0 70.5 -4t72.5 -20q78 -53 111.5 -138t37.5 -159v-37q0 -10 -22.5 -12 t-67.5 -5t-155 1q-145 -6 -216 -3t-120 6t-52.5 22.5z" />
<glyph unicode="&#x178;" horiz-adv-x="888" d="M33 1417q20 -86 78.5 -200.5t111.5 -205.5t97.5 -166t136.5 -235q-82 -211 -250 -610h4q12 -2 54 0t54 0q88 209 155 369.5t151 336t161.5 351.5t135.5 360v2q-13 2 -33.5 3t-27.5 0t-34 -5q-18 -45 -91.5 -223t-213.5 -483q-86 125 -190.5 297t-206.5 411q-10 4 -30.5 1 t-61.5 -3zM234.5 1606.5q1.5 -29.5 5.5 -50.5h6l80 -2h4v2v3q0 14 2 46.5t4 68.5t4 62.5t2 28.5q-14 6 -50 5t-54 -7q0 -12 -1 -38.5t-2.5 -57.5t0 -60.5zM558 1606.5q1 -29.5 5 -50.5h6l80 -2h4v2v3q0 14 2 46.5t4.5 68.5t4.5 62.5t2 28.5q-14 6 -50 5t-55 -7 q0 -12 -1 -38.5t-2 -57.5t0 -60.5z" />
<glyph unicode="&#x2c6;" horiz-adv-x="710" d="M23 1081q63 -2 81.5 -2t36.5 2q8 2 73 71t80 86t32.5 35.5t27.5 20.5q8 -4 23.5 -19t30 -32.5t93.5 -93.5t87 -76q39 6 63.5 9t28.5 1l-330 330q-90 -84 -160.5 -151.5t-166.5 -180.5z" />
<glyph unicode="&#x2dc;" horiz-adv-x="919" d="M37 1024q31 2 48 2t42 -2v2q20 102 57 173t113 89q45 8 80 -10t67 -107q41 -133 100.5 -151.5t123.5 -7.5q53 8 93 41.5t64.5 81t33.5 101.5t1 105v2l-76 -2q12 -82 -9 -161.5t-119.5 -99t-126 73.5t-45 122t-48.5 51q-33 23 -69.5 30t-73.5 1t-72 -24.5t-61 -45.5 q-20 -23 -39 -57.5t-35 -73.5t-29.5 -74.5t-19.5 -58.5z" />
<glyph unicode="&#x2000;" horiz-adv-x="958" />
<glyph unicode="&#x2001;" horiz-adv-x="1916" />
<glyph unicode="&#x2002;" horiz-adv-x="958" />
<glyph unicode="&#x2003;" horiz-adv-x="1916" />
<glyph unicode="&#x2004;" horiz-adv-x="638" />
<glyph unicode="&#x2005;" horiz-adv-x="479" />
<glyph unicode="&#x2006;" horiz-adv-x="319" />
<glyph unicode="&#x2007;" horiz-adv-x="319" />
<glyph unicode="&#x2008;" horiz-adv-x="239" />
<glyph unicode="&#x2009;" horiz-adv-x="383" />
<glyph unicode="&#x200a;" horiz-adv-x="106" />
<glyph unicode="&#x2010;" horiz-adv-x="1067" d="M74 557q10 0 79.5 -2t168 -3t211 -3t211 -4t168 -2h79.5h2q-4 61 -6 119h-100.5h-175h-210h-203.5h-154.5h-63.5q0 -6 -1 -35t-3 -37t-2 -33z" />
<glyph unicode="&#x2011;" horiz-adv-x="1067" d="M74 557q10 0 79.5 -2t168 -3t211 -3t211 -4t168 -2h79.5h2q-4 61 -6 119h-100.5h-175h-210h-203.5h-154.5h-63.5q0 -6 -1 -35t-3 -37t-2 -33z" />
<glyph unicode="&#x2012;" horiz-adv-x="1067" d="M74 557q10 0 79.5 -2t168 -3t211 -3t211 -4t168 -2h79.5h2q-4 61 -6 119h-100.5h-175h-210h-203.5h-154.5h-63.5q0 -6 -1 -35t-3 -37t-2 -33z" />
<glyph unicode="&#x2013;" horiz-adv-x="931" d="M74 465q10 0 79.5 -2t168 -3t211 -3t201.5 -4t103.5 -2t10.5 0h2q-4 61 -6 118h-30.5h-111h-201h-203.5h-154.5h-63.5q0 -6 -1 -34.5t-3 -37t-2 -32.5z" />
<glyph unicode="&#x2014;" horiz-adv-x="1417" d="M74 475q16 0 126.5 -2t268.5 -3t337 -3t335.5 -4t179 -2t16.5 0h4q-6 61 -10 119h-49h-191.5h-334.5h-324.5h-247h-100.5q0 -6 -2 -35t-5 -37t-3 -33z" />
<glyph unicode="&#x2018;" horiz-adv-x="423" d="M100 938h62h41q4 14 21.5 81.5t39 150.5t42 160t28.5 112q-2 8 -34 9t-41 -3t-17 -4h-2l-2 -4q-25 -72 -39.5 -123t-28.5 -103.5t-29.5 -117t-40.5 -156.5v-2z" />
<glyph unicode="&#x2019;" horiz-adv-x="423" d="M100 938h62h41q4 14 21.5 81.5t39 150.5t42 160t28.5 112q-2 8 -34 9t-41 -3t-17 -4h-2l-2 -4q-25 -72 -39.5 -123t-28.5 -103.5t-29.5 -117t-40.5 -156.5v-2z" />
<glyph unicode="&#x201a;" horiz-adv-x="401" d="M78 -199v-2h61h41q4 14 21.5 82t39 151t42 159.5t28.5 111.5q-39 2 -51 2h-22.5h-18.5h-2l-2 -4q-25 -72 -39 -123t-28.5 -103t-30 -116.5t-39.5 -157.5z" />
<glyph unicode="&#x201c;" horiz-adv-x="751" d="M100 938h62h41q4 14 21.5 81.5t39 150.5t42 160t28.5 112q-2 8 -34 9t-41 -3t-17 -4h-2l-2 -4q-25 -72 -39.5 -123t-28.5 -103.5t-29.5 -117t-40.5 -156.5v-2zM420 938h61h41q4 14 21.5 81.5t39 150.5t42 160t28.5 112q-2 8 -33.5 9t-41 -3t-17.5 -4h-2l-2 -4 q-25 -72 -39 -123t-28.5 -103.5t-30 -117t-39.5 -156.5v-2z" />
<glyph unicode="&#x201d;" horiz-adv-x="751" d="M100 938h62h41q4 14 21.5 81.5t39 150.5t42 160t28.5 112q-2 8 -34 9t-41 -3t-17 -4h-2l-2 -4q-25 -72 -39.5 -123t-28.5 -103.5t-29.5 -117t-40.5 -156.5v-2zM420 938h61h41q4 14 21.5 81.5t39 150.5t42 160t28.5 112q-2 8 -33.5 9t-41 -3t-17.5 -4h-2l-2 -4 q-25 -72 -39 -123t-28.5 -103.5t-30 -117t-39.5 -156.5v-2z" />
<glyph unicode="&#x201e;" horiz-adv-x="722" d="M76 -199v-2h61h41q4 14 21.5 82t39 151t42 159.5t28.5 111.5q-23 2 -43 3t-30.5 0t-18.5 -1h-2l-2 -4q-25 -72 -39 -123t-28.5 -103t-30 -116.5t-39.5 -157.5zM395 -199v-2h61h42q4 14 21.5 82t39 151t42 159.5t28.5 111.5q-39 2 -51.5 2h-22.5h-18h-2l-3 -4 q-25 -72 -39 -123t-28 -103t-29.5 -116.5t-40.5 -157.5z" />
<glyph unicode="&#x2022;" horiz-adv-x="591" d="M246 516q2 -6 4 -10q4 -6 12 -10t14 -2h3h15h15q6 2 11.5 2t9.5 2q8 4 12 10t6 14q0 12 1 24.5t-1 24.5q0 10 -8 17.5t-16 9.5q-6 2 -11.5 2h-9.5h-13h-14l-2 -1l-2 -1q-6 0 -8 -2q-4 0 -8 -4q-4 -2 -8 -8v-3v-1q-2 -8 -2 -15.5v-15.5q-2 -16 0 -33z" />
<glyph unicode="&#x2026;" horiz-adv-x="1064" d="M146 59.5q1 -34.5 6 -57.5h6l82 -2h4v2v2q0 14 2 53t4 80t4 73t2 34q-14 6 -27.5 9t-36 -1t-42.5 -12q0 -14 -1.5 -45t-2.5 -66t0 -69.5zM480 59.5q1 -34.5 5 -57.5h7l81 -2h5v2v2q0 14 2 53t4 80t4 73t2 34q-14 6 -27.5 9t-36 -1t-43.5 -12q0 -14 -1 -45t-2 -66t0 -69.5 zM820 59.5q1 -34.5 5 -57.5h6l82 -2h5v2v2q0 14 2 53t4 80t4 73t2 34q-14 6 -27.5 9t-36 -1t-43.5 -12q0 -14 -1 -45t-2 -66t0 -69.5z" />
<glyph unicode="&#x202f;" horiz-adv-x="383" />
<glyph unicode="&#x2039;" horiz-adv-x="741" d="M115 539q57 -78 125.5 -143.5t131 -127t107.5 -99.5t107 -101l32 24l37 43q-98 80 -203.5 182.5t-207.5 214.5q39 49 89 102.5t302 317.5q-6 14 -24.5 34t-37.5 30q-43 -39 -81.5 -79t-90 -92t-102.5 -104.5t-98 -102.5t-86 -99z" />
<glyph unicode="&#x203a;" horiz-adv-x="741" d="M115 135q98 80 203.5 182.5t207.5 214.5q-39 49 -89 102.5t-302 317.5q6 14 24.5 34t37.5 30q43 -39 81.5 -79t90 -92t102.5 -104.5t98 -102.5t86 -99q-57 -78 -125.5 -143.5t-131 -127t-107.5 -99.5t-107 -101l-32 24z" />
<glyph unicode="&#x205f;" horiz-adv-x="479" />
<glyph unicode="&#x20ac;" horiz-adv-x="1003" d="M59 736.5q-2 -115.5 9.5 -224.5t39 -204t87.5 -165q31 -39 75 -65q45 -27 90.5 -44.5t102.5 -27.5l37 -4q118 -4 220.5 -5t219.5 17q0 31 -2 90v2q-129 0 -186.5 2.5t-185.5 -1t-259 73.5t-139 407q84 4 199.5 0t281.5 2q-6 41 -6 98q-72 4 -237.5 3t-237.5 -1 q-4 18 -2 56t2 85h2q29 2 63.5 1t69.5 0.5t177.5 4.5t168.5 11v2l2 82v2q-35 10 -233.5 3t-243.5 -7h-8q4 172 77.5 292.5t278.5 129t271.5 12.5t128.5 0q2 2 2 6q-2 37 4 80v2h-2q-102 -4 -215 -1t-218.5 -10.5t-195.5 -51t-147 -121.5q-47 -76 -64.5 -151t-22.5 -152 q-2 -113 -4 -228.5z" />
<glyph unicode="&#x2122;" horiz-adv-x="1155" d="M90 1325q-2 -27 1 -39t5 -18h22.5h51.5t64.5 -2t44.5 -2v-9q4 -262 6 -366.5t1 -173t-2 -101t-1 -39.5q27 6 38 6.5t31 2.5v2q-2 115 -2 200.5t-2 147t-2 100.5v119t1 91t-1 24h129t60 -4q6 29 4 53q-111 12 -225.5 11t-223.5 -1v-2zM627 650q0 -32 2 -48t2 -18 q2 -4 4 -4l57 4q-6 96 -8 197.5t-6 445.5l52 -105q52 -106 72.5 -151t43.5 -70q4 0 12 19.5t69.5 143.5t70 143.5t16.5 31.5q-2 -293 0 -345t1 -107.5t-1 -107.5v-97h23.5t27.5 -4l2 337q6 101 2 200t0 200q-16 0 -37.5 -2t-30.5 0q-8 -12 -64 -120t-65.5 -135.5 t-31.5 -66.5q-27 57 -77 160.5t-59.5 124t-19.5 33.5q-41 0 -53 -6q-2 -141 -3 -249t-1 -187v-132v-85z" />
<glyph unicode="&#x25fc;" horiz-adv-x="1024" d="M0 0v1024h1024v-1024h-1024z" />
<glyph unicode="&#xfb01;" horiz-adv-x="1136" d="M53 903l6 -102q41 2 121 -1t113 1q0 -31 -1 -121t-2 -163t-1 -150.5t1 -148.5t2 -127t5 -81q27 -4 49 -4h8q2 0 27 -2v797q63 -2 180 -4q115 -2 223 4q2 -10 2 -21q2 -127 2 -235v-549q14 4 37 6t78 -2q-16 260 -9 518t9 506v6q-98 4 -106 2v-2q-6 -66 -11 -133l-397 -4 q-4 322 8.5 372t114.5 50h184q82 0 107 -2q4 29 4 47t-10 49q-96 4 -328 0q-176 0 -180 -188.5t0 -321.5q-33 2 -113 3t-123 1z" />
<glyph unicode="&#xfb02;" horiz-adv-x="1150" d="M86 903l6 -102q41 2 121 -1t113 1q0 -31 -1 -121t-2 -163t-1 -150.5t1 -148.5t2 -127t5 -81q27 -4 49 -4h8q2 0 27 -2v797q63 -2 180 -4t227 4q0 20 1 5t3 -63q6 -186 9.5 -372.5t-11.5 -370.5q14 4 30.5 1t39 -2t33.5 13q-4 82 -6 200t-2 253t1 280.5t3 280.5t4 254 t2 203l-92 6q-5 -41 -9 -80q-96 4 -325 0q-176 0 -180.5 -188.5t0.5 -321.5q-33 2 -113 3t-123 1zM422 893q-4 322 8 372t115 50h184q63 0 92 -2q-4 -98 -4 -197l2 -219z" />
<glyph unicode="&#xfb03;" horiz-adv-x="1953" d="M104 950l7 -108q43 2 127 -1t118 1q0 -33 -1 -127t-2 -171t-1 -159t1 -155.5t2 -133t5 -86.5q29 -4 52 -4h10q2 0 27 -2v838q68 -2 190.5 -4t427.5 2q84 -2 119 2q0 -33 -1 -127t-2 -171t-1 -159t1 -155.5t2 -133t5 -86.5q29 -4 51 -4h10q2 0 27 -2v838q68 -2 190 -4 q119 -2 232 4q2 -31 2 -62q2 -127 2 -235v-549q14 4 36.5 6t78.5 -2q-16 260 -9 518t9 506v6q-99 4 -107 2v-2q-4 -43 -8 -88l-418 -4q-4 338 9.5 391t121.5 53h193q86 0 112 -2q4 31 4 50.5t-10 50.5q-102 4 -346 0q-184 0 -188 -198t0 -339q-35 4 -725 -6q-4 338 9 391 t122 53h192q86 0 113 -2q4 31 4 50.5t-10 50.5q-102 4 -346 0q-184 0 -188.5 -198t-0.5 -339q-35 4 -118.5 5t-129.5 1z" />
<glyph unicode="&#xfb04;" horiz-adv-x="2068" d="M2 950l6 -108q43 2 127 -1t119 1q0 -33 -1 -127t-2 -171t-1 -159t1 -155.5t2 -133t5 -86.5q29 -4 51 -4h10q2 0 27 -2v838q68 -2 190.5 -4t428.5 2q84 -2 118 2q0 -33 -1 -127t-2 -171t-1 -159t1 -155.5t2 -133t5 -86.5q29 -4 52 -4h10q2 0 27 -2v838q67 -2 190 -4t238 4 q4 78 8 100l-428 -4q-4 338 9 391t122 53h192q86 0 113 -2q4 31 4 50.5t-10 50.5q-102 4 -346 0q-184 0 -188.5 -198t-0.5 -339q-35 4 -725 -6q-4 338 9.5 391t121.5 53h193q86 0 113 -2q4 31 4 50.5t-11 50.5q-102 4 -346 0q-184 0 -188 -198t0 -339q-35 4 -119 5t-129 1z M1791 1116.5q1 -186.5 7 -373t9 -373t-11 -370.5q14 4 30.5 1t39 -2t32.5 13q-4 82 -6 200t-2 253t1 280.5t3 280.5t4.5 254t2.5 203l-93 6q-18 -186 -17 -372.5z" />
</font>
</defs>
</svg>
