<?xml version="1.0" encoding="utf-8"?>
<!-- Generator: Adobe Illustrator 22.1.0, SVG Export Plug-In . SVG Version: 6.00 Build 0)  -->
<svg version="1.1" id="Capa_1" xmlns="http://www.w3.org/2000/svg" xmlns:xlink="http://www.w3.org/1999/xlink" x="0px" y="0px"
	 viewBox="0 0 298.85 462.85" style="enable-background:new 0 0 298.85 462.85;" xml:space="preserve">
<style type="text/css">
	.st0{fill:#FFFFFF;stroke:#FFFFFF;stroke-miterlimit:10;}
</style>
<path class="st0" d="M291.1768,232.2195C224.3117,160.0012,162.1592,83.5262,93.5918,12.8594
	c-4.6489-4.7929-10.1866-5.3725-14.9409-3.5794c-2.7331,0.3536-5.4904,1.4376-8.0486,3.5794
	c-20.3056,17.0131-39.8258,34.8977-58.6107,53.587c-8.0825,8.04-4.0799,18.642,3.3698,23.318
	c39.2761,46.7257,84.116,92.9925,123.336,139.7626C94.2082,274.2248,51.3256,324.8527,8.6402,371.2132
	c-4.788,5.2006-4.9774,11.3325-2.681,16.3466c0.3652,4.7687,3.25,9.1345,7.4033,12.3478
	c19.5327,15.0848,38.4008,30.9897,56.6873,47.5614c4.6016,7.5501,15.3475,11.716,23.5363,3.6596
	c65.3387-64.2364,122.5457-136.6383,194.2453-194.2424c1.967-1.5805,3.2915-3.3118,4.1166-5.102
	C296.049,246.3875,297.0836,238.5978,291.1768,232.2195z"/>
</svg>
