<?xml version="1.0" encoding="utf-8"?>
<!-- Generator: Adobe Illustrator 22.1.0, SVG Export Plug-In . SVG Version: 6.00 Build 0)  -->
<svg version="1.1" id="Capa_1" xmlns="http://www.w3.org/2000/svg" xmlns:xlink="http://www.w3.org/1999/xlink" x="0px" y="0px"
	 viewBox="0 0 462.846 298.845" style="enable-background:new 0 0 462.846 298.845;" xml:space="preserve">
<style type="text/css">
	.st0{fill:#FFFFFF;stroke:#FFFFFF;stroke-miterlimit:10;}
</style>
<path class="st0" d="M231.6269,291.1751C303.8452,224.31,380.3202,162.1575,450.987,93.5901
	c4.7928-4.6489,5.3725-10.1866,3.5794-14.9408c-0.3536-2.7331-1.4376-5.4904-3.5794-8.0486
	C433.9739,50.295,416.0893,30.7748,397.4,11.9898c-8.04-8.0825-18.642-4.0799-23.318,3.3698
	c-46.7257,39.2761-92.9925,84.116-139.7626,123.336C189.6215,94.2064,138.9937,51.3239,92.6332,8.6384
	c-5.2005-4.788-11.3325-4.9774-16.3466-2.681c-4.7687,0.3652-9.1345,3.25-12.3478,7.4033
	C48.854,32.8935,32.9491,51.7615,16.3775,70.048c-7.5501,4.6016-11.716,15.3475-3.6596,23.5363
	C76.9542,158.923,149.3561,216.13,206.9602,287.8296c1.5805,1.967,3.3118,3.2915,5.102,4.1165
	C217.4589,296.0472,225.2486,297.0819,231.6269,291.1751z"/>
</svg>
