<?xml version="1.0" encoding="utf-8"?>
<!-- Generator: Adobe Illustrator 22.1.0, SVG Export Plug-In . SVG Version: 6.00 Build 0)  -->
<svg version="1.1" id="Capa_1" xmlns="http://www.w3.org/2000/svg" xmlns:xlink="http://www.w3.org/1999/xlink" x="0px" y="0px"
	 viewBox="0 0 463.5 463.5" style="enable-background:new 0 0 463.5 463.5;" xml:space="preserve">
<style type="text/css">
	.st0{fill:#FFFFFF;}
</style>
<g>
	<g>
		<path class="st0" d="M450.1,302c-101.2,10.8-203.3,27.2-305.1,14.5c-0.6-0.3-1.2-0.6-1.9-0.9c-9.3-3.5-12.4-9.3-12.3-17.9
			c8.7-12.4,27.1-11.6,40.1-10.6c18.1,1.4,36.1,1.2,54.3,1c47.2-0.5,94.5-3.7,141.3-9.7c25.9-3.3,51.7-7.1,77.5-11.7
			c8-1.4,10.8-7.7,10-13.8c0.2-0.8,0.3-1.6,0.3-2.5c1.4-55,3.1-109.9,8.4-164.7c0.8-8.6-5.1-13-11.7-13.4c-1.5-0.5-3.3-0.8-5.2-0.7
			C327.1,78.5,208.2,80,89.3,81.4c-0.7-0.8-1.5-1.6-2.4-2.3C66,63,42.8,51.3,17.4,43.9C-0.1,38.8-7.5,66,9.9,71.1
			c65.4,19,94.8,75.5,107.3,138.6c3.8,18.9,5.6,38.2,7.1,57.4c0.1,1.2-16.4,14.1-18.2,17.4c-4,7.3-4.7,15.8-2.8,23.8
			c5.8,24.2,25.5,34.2,48.3,38.2c-4,5.3-7.2,11.4-9.5,18.4c-0.8,2.6-0.9,4.9-0.5,6.9c0,13,3.7,25.6,13.3,34.9
			c9.9,9.7,24.1,12.8,37.4,13.5c1.5,0.1,2.9-0.1,4.2-0.4c0.5,0,0.9,0,1.4-0.1c24.6-4,42.5-22.2,44.7-47c0.8-9.1-1.5-17.3-6-24.2
			c38.5-0.6,76.4-3.9,114.8-7.7c-3.7,4.8-6.6,10.1-8.4,15.8c-9.7,31.4,20.9,53.6,50.1,55.2c1.5,0.1,2.9-0.1,4.2-0.4
			c0.5,0,0.9,0,1.4-0.1c24.6-4,42.5-22.2,44.7-47c1.1-12.7-4-23.7-12.3-32c6.3-0.7,12.6-1.4,19-2.1
			C467.9,328.2,468.1,300.1,450.1,302z M426.4,241.3c-22.6,3.9-45.3,7.2-68,9.9c-0.1-10.6-0.3-21.2-0.6-31.7
			c23.1-0.3,46.2-0.4,69.3-0.1C426.8,226.7,426.6,234,426.4,241.3z M428,191.2c-23.8-0.3-47.6-0.2-71.3,0.2
			c-0.4-8.4-0.9-16.7-1.4-25c24.6-0.4,49.1-0.7,73.7-0.5C428.7,174.3,428.4,182.8,428,191.2z M433.3,100.4
			c-1.1,12.4-1.9,24.9-2.7,37.3c-25.7-0.2-51.4,0.1-77.1,0.6c-0.9-11.4-1.9-22.8-3-34.2C378.1,103.1,405.7,101.9,433.3,100.4z
			 M330.3,254.2c-26.4,2.6-52.8,4.4-79.3,5.3c-1.6-11.9-3.3-23.8-5-35.7c27.9-1.9,55.8-3.1,83.7-3.8
			C330,231.4,330.1,242.8,330.3,254.2z M328.5,192c-28.8,0.8-57.6,2.1-86.4,4.2c-1.2-9.1-2.4-18.1-3.5-27.2
			c29.5-0.7,59-1.4,88.5-2.1C327.7,175.2,328.2,183.6,328.5,192z M322.4,105.1c1.1,11.2,2.1,22.4,2.9,33.7c-30,0.6-60,1.4-90.1,2.1
			c-1.2-11.1-2.4-22.3-3.4-33.4C262.1,106.9,292.3,106.1,322.4,105.1z M222.8,260.3c-23.6,0.3-47.3,0-71-1
			c-0.7-8.6-1.7-17.2-2.8-25.7c22.9-3.1,45.9-5.6,69-7.6C219.6,237.4,221.3,248.8,222.8,260.3z M214.3,198.3
			c-23.2,2-46.4,4.6-69.5,7.7c-2.3-12.1-5.1-24.1-8.6-35.8c24.8,0.1,49.6-0.2,74.4-0.6C211.7,179.1,213,188.7,214.3,198.3z
			 M108.6,109.3c31.7-0.4,63.5-0.8,95.2-1.4c1,11.2,2.1,22.3,3.4,33.5c-27.1,0.5-54.2,0.7-81.3,0.5
			C121.1,130.7,115.4,119.8,108.6,109.3z M192.5,392.1c-0.1,0-0.2,0-0.3-0.1c-15.5-0.8-22.6-6.1-22.5-21
			c4.5-12.2,13.7-17.4,25.4-18.3c10.6,2.4,19.5,7.7,19.3,20C214.2,384.4,202.5,390.1,192.5,392.1z M393.4,383.7
			c-0.1,0-0.2,0-0.3-0.1c-15.5-0.8-22.6-6.1-22.5-21c4.5-12.2,13.7-17.4,25.4-18.3c10.6,2.4,19.5,7.7,19.3,20
			C415,376,403.3,381.6,393.4,383.7z"/>
	</g>
</g>
</svg>
